<?xml version="1.0" encoding="UTF-8"?>
<svg width="15px" height="20px" viewBox="0 0 15 20" version="1.1" xmlns="http://www.w3.org/2000/svg" xmlns:xlink="http://www.w3.org/1999/xlink">
    <!-- Generator: sketchtool 52.4 (67378) - http://www.bohemiancoding.com/sketch -->
    <title>574A0F62-471C-4611-A3DE-EBD74F7C9B54</title>
    <desc>Created with sketchtool.</desc>
    <defs>
        <polygon id="path-1" points="0.000384615385 0.000153846154 14.4434615 0.000153846154 14.4434615 19.2583846 0.000384615385 19.2583846"></polygon>
    </defs>
    <g id="Page-1" stroke="none" stroke-width="1" fill="none" fill-rule="evenodd">
        <g id="login" transform="translate(-533.000000, -338.000000)">
            <g id="Group-3" transform="translate(533.000000, 338.000000)">
                <mask id="mask-2" fill="white">
                    <use xlink:href="#path-1"></use>
                </mask>
                <g id="Clip-2"></g>
                <path d="M12.0365385,8.42553846 L12.0365385,4.81476923 C12.0365385,2.16092308 9.87730769,0.000153846154 7.22192308,0.000153846154 C4.56884615,0.000153846154 2.40730769,2.16092308 2.40730769,4.81476923 L2.40730769,8.42553846 C1.07807692,8.42553846 0.000384615385,9.50323077 0.000384615385,10.8324615 L0.000384615385,16.8509231 C0.000384615385,18.1809231 1.07807692,19.2586154 2.40730769,19.2586154 L12.0365385,19.2586154 C13.3657692,19.2586154 14.4434615,18.1809231 14.4434615,16.8509231 L14.4434615,10.8324615 C14.4434615,9.50323077 13.3657692,8.42553846 12.0365385,8.42553846 Z M7.82346154,14.2586154 L7.82346154,16.2493846 C7.82346154,16.5824615 7.555,16.8509231 7.22192308,16.8509231 C6.88884615,16.8509231 6.61961538,16.5824615 6.61961538,16.2493846 L6.61961538,14.2586154 C6.26730769,14.0493846 6.01807692,13.6809231 6.01807692,13.2401538 C6.01807692,12.5755385 6.55730769,12.0363077 7.22192308,12.0363077 C7.88576923,12.0363077 8.42576923,12.5755385 8.42576923,13.2401538 C8.42576923,13.6809231 8.17807692,14.0501538 7.82346154,14.2586154 Z M9.62961538,8.42553846 L4.81423077,8.42553846 L4.81423077,4.81476923 C4.81423077,3.48630769 5.89576923,2.40707692 7.22192308,2.40707692 C8.54884615,2.40707692 9.62961538,3.48630769 9.62961538,4.81476923 L9.62961538,8.42553846 Z" id="Fill-1" fill="#949494" mask="url(#mask-2)"></path>
            </g>
        </g>
    </g>
</svg>