<?xml version="1.0" encoding="UTF-8"?>
<svg width="18px" height="15px" viewBox="0 0 18 15" version="1.1" xmlns="http://www.w3.org/2000/svg" xmlns:xlink="http://www.w3.org/1999/xlink">
    <!-- Generator: Sketch 52.5 (67469) - http://www.bohemiancoding.com/sketch -->
    <title>icon-skillCodes</title>
    <desc>Created with Sketch.</desc>
    <defs>
        <polygon id="path-1" points="0.23967 0.632709126 15.8247 0.632709126 15.8247 7.05882353 0.23967 7.05882353"></polygon>
    </defs>
    <g id="Page-1" stroke="none" stroke-width="1" fill="none" fill-rule="evenodd">
        <g id="icon-skillCodes">
            <polygon id="Fill-1" fill="#FFFFFF" points="-1.6009416e-13 14.4282353 1.7343 14.4282353 1.7343 7.665 -1.6009416e-13 7.665"></polygon>
            <g id="Group-4" transform="translate(1.800000, 7.941176)">
                <mask id="mask-2" fill="white">
                    <use xlink:href="#path-1"></use>
                </mask>
                <g id="Clip-3"></g>
                <path d="M15.71967,3.10032353 C15.59097,2.89032353 15.35157,2.77297059 15.00597,2.75355882 L14.91327,2.74914706 C14.86197,2.7465 14.81157,2.74385294 14.76117,2.74032353 C13.40667,3.15591176 11.76867,3.58561765 9.86517,3.64032353 L7.52427,4.66120588 C7.50447,4.66914706 7.48287,4.67355882 7.46217,4.67355882 C7.44957,4.67355882 7.43697,4.67267647 7.42437,4.66914706 L3.43377,3.68091176 C3.35187,3.66061765 3.30237,3.57944118 3.32307,3.49914706 C3.34377,3.41885294 3.42657,3.37032353 3.50847,3.39061765 L7.44777,4.3665 L9.63477,3.41267647 C9.33597,2.69532353 8.89317,2.20297059 8.28297,1.91179412 C7.58457,1.70708824 6.92757,1.71944118 6.32097,1.76355882 C6.12387,1.77767647 6.00147,1.80326471 5.90337,1.82355882 C5.59287,1.88885294 5.50377,1.85797059 5.04837,1.51914706 C4.82517,1.35414706 4.61727,1.16797059 4.41657,0.987970588 C4.32567,0.907676471 4.23297,0.824735294 4.13937,0.744441176 C3.36807,0.507088235 2.81727,0.687970588 2.12337,0.914735294 C1.96137,0.967676471 1.79487,1.02326471 1.61757,1.07532353 L0.35667,1.44326471 C0.31617,1.45473529 0.27387,1.44855882 0.23967,1.43002941 L0.23967,4.94444118 L6.80517,6.91826471 C7.48017,7.13973529 8.11737,7.10002941 8.75457,6.79738235 C8.75907,6.79561765 8.76357,6.79385294 8.76807,6.79208824 L11.42397,5.81973529 C12.82887,5.30532353 14.23377,4.79091176 15.63867,4.2765 C15.85467,3.79738235 15.88437,3.37032353 15.71967,3.10032353" id="Fill-2" fill="#FFFFFF" mask="url(#mask-2)"></path>
            </g>
            <path d="M7.479,2.07661765 C8.145,2.07661765 8.685,2.60602941 8.685,3.25808824 C8.685,3.91191176 8.145,4.44044118 7.479,4.44044118 C6.813,4.44044118 6.2739,3.91191176 6.2739,3.25808824 C6.2739,2.60602941 6.813,2.07661765 7.479,2.07661765 M5.1075,4.55514706 L4.6008,5.05279412 L5.6934,6.12308824 L6.2118,5.61573529 C6.363,5.69426471 6.5205,5.75779412 6.6807,5.80632353 L6.6807,6.50691176 L8.226,6.50691176 L8.226,5.82132353 C8.4132,5.76926471 8.5959,5.69602941 8.7714,5.60338235 L9.3015,6.12308824 L10.3941,5.05279412 L9.8631,4.53220588 C9.9495,4.37602941 10.0179,4.21455882 10.0701,4.04867647 L10.7856,4.04867647 L10.7856,2.53367647 L10.0881,2.53367647 C10.0332,2.34397059 9.9576,2.16220588 9.8631,1.99191176 L10.3572,1.5075 L9.2646,0.437205882 L8.7714,0.920735294 C8.5995,0.829852941 8.4168,0.756617647 8.226,0.702794118 L8.226,-0.000441176471 L6.6807,-0.000441176471 L6.6807,0.717794118 C6.4998,0.7725 6.327,0.844852941 6.1641,0.933970588 L5.6565,0.437205882 L4.5639,1.5075 L5.0823,2.01573529 C4.9941,2.17897059 4.923,2.35191176 4.8708,2.53367647 L4.1733,2.53367647 L4.1733,4.04867647 L4.8888,4.04867647 C4.9428,4.2225 5.0157,4.39279412 5.1075,4.55514706" id="Fill-7" fill="#FFFFFF"></path>
            <path d="M13.14099,6.87185294 C13.58919,6.87185294 13.95279,7.22832353 13.95279,7.66773529 C13.95279,8.10714706 13.58919,8.46361765 13.14099,8.46361765 C12.69189,8.46361765 12.32919,8.10714706 12.32919,7.66773529 C12.32919,7.22832353 12.69189,6.87185294 13.14099,6.87185294 M11.54439,8.54126471 L11.20239,8.87567647 L11.93859,9.59744118 L12.28689,9.25508824 C12.38949,9.30802941 12.49479,9.35126471 12.60279,9.38391176 L12.60279,9.85597059 L13.64409,9.85597059 L13.64409,9.39361765 C13.77009,9.35832353 13.89339,9.30979412 14.01039,9.24714706 L14.36859,9.59744118 L15.10389,8.87567647 L14.74659,8.52538235 C14.80419,8.42038235 14.85099,8.31185294 14.88609,8.19979412 L15.36759,8.19979412 L15.36759,7.17979412 L14.89779,7.17979412 C14.86089,7.05185294 14.80959,6.92920588 14.74659,6.81538235 L15.07959,6.48891176 L14.34339,5.76802941 L14.01039,6.09361765 C13.89519,6.03185294 13.77279,5.98244118 13.64409,5.94626471 L13.64409,5.47332353 L12.60279,5.47332353 L12.60279,5.95685294 C12.48129,5.99302941 12.36429,6.04244118 12.25539,6.10244118 L11.91339,5.76802941 L11.17809,6.48891176 L11.52639,6.83126471 C11.46699,6.94067647 11.41929,7.05714706 11.38419,7.17979412 L10.91439,7.17979412 L10.91439,8.19979412 L11.39589,8.19979412 C11.43279,8.31714706 11.48229,8.43185294 11.54439,8.54126471" id="Fill-12" fill="#FFFFFF"></path>
        </g>
    </g>
</svg>