<?xml version="1.0" encoding="UTF-8"?>
<svg width="18px" height="11px" viewBox="0 0 18 11" version="1.1" xmlns="http://www.w3.org/2000/svg" xmlns:xlink="http://www.w3.org/1999/xlink">
    <!-- Generator: Sketch 53.2 (72643) - https://sketchapp.com -->
    <title>icon-view-blue</title>
    <desc>Created with Sketch.</desc>
    <g id="Page-1" stroke="none" stroke-width="1" fill="none" fill-rule="evenodd">
        <g id="icon-view-blue" transform="translate(0.000000, 0.000000)" fill="#005EFF">
            <path d="M9,2 C10.6565,2 12,3.3435 12,5 C12,6.6565 10.6565,8 9,8 C7.3435,8 6,6.6565 6,5 C6,3.3435 7.3435,2 9,2" id="Fill-1"></path>
            <path d="M9,9.9 C4.078125,9.9 1.40625,5.5 1.40625,5.5 C1.40625,5.5 4.078125,1.1 9,1.1 C13.921875,1.1 16.59375,5.5 16.59375,5.5 C16.59375,5.5 13.921875,9.9 9,9.9 M9,0 C3.375,0 0,5.4659 0,5.4659 C0,5.4659 3.375,11 9,11 C14.625,11 18,5.5 18,5.5 C18,5.5 14.625,0 9,0" id="Fill-3"></path>
        </g>
    </g>
</svg>