<?xml version="1.0" encoding="UTF-8"?>
<svg width="22px" height="19px" viewBox="0 0 22 19" version="1.1" xmlns="http://www.w3.org/2000/svg" xmlns:xlink="http://www.w3.org/1999/xlink">
    <!-- Generator: Sketch 52.5 (67469) - http://www.bohemiancoding.com/sketch -->
    <title>icon-skill-codes-white</title>
    <desc>Created with Sketch.</desc>
    <defs>
        <polygon id="path-1" points="0.29293 0.788777377 19.3413 0.788777377 19.3413 8.8 0.29293 8.8"></polygon>
    </defs>
    <g id="Symbols" stroke="none" stroke-width="1" fill="none" fill-rule="evenodd">
        <g id="icon-skill-codes-white" transform="translate(0.000000, -1.000000)">
            <polygon id="Fill-1" fill="#FFFFFF" points="-2.27373675e-13 18.9872 2.1197 18.9872 2.1197 10.5557 -2.27373675e-13 10.5557"></polygon>
            <g id="Group-4" transform="translate(2.200000, 10.900000)">
                <mask id="mask-2" fill="white">
                    <use xlink:href="#path-1"></use>
                </mask>
                <g id="Clip-3"></g>
                <path d="M19.21293,3.86507 C19.05563,3.60327 18.76303,3.45697 18.34063,3.43277 L18.22733,3.42727 C18.16463,3.42397 18.10303,3.42067 18.04143,3.41627 C16.38593,3.93437 14.38393,4.47007 12.05743,4.53827 L9.19633,5.81097 C9.17213,5.82087 9.14573,5.82637 9.12043,5.82637 C9.10503,5.82637 9.08963,5.82527 9.07423,5.82087 L4.19683,4.58887 C4.09673,4.56357 4.03623,4.46237 4.06153,4.36227 C4.08683,4.26217 4.18803,4.20167 4.28813,4.22697 L9.10283,5.44357 L11.77583,4.25447 C11.41063,3.36017 10.86943,2.74637 10.12363,2.38337 C9.27003,2.12817 8.46703,2.14357 7.72563,2.19857 C7.48473,2.21617 7.33513,2.24807 7.21523,2.27337 C6.83573,2.35477 6.72683,2.31627 6.17023,1.89387 C5.89743,1.68817 5.64333,1.45607 5.39803,1.23167 C5.28693,1.13157 5.17363,1.02817 5.05923,0.92807 C4.11653,0.63217 3.44333,0.85767 2.59523,1.14037 C2.39723,1.20637 2.19373,1.27567 1.97703,1.34057 L0.43593,1.79927 C0.38643,1.81357 0.33473,1.80587 0.29293,1.78277 L0.29293,6.16407 L8.31743,8.62477 C9.14243,8.90087 9.92123,8.85137 10.70003,8.47407 C10.70553,8.47187 10.71103,8.46967 10.71653,8.46747 L13.96263,7.25527 C15.67973,6.61397 17.39683,5.97267 19.11393,5.33137 C19.37793,4.73407 19.41423,4.20167 19.21293,3.86507" id="Fill-2" fill="#FFFFFF" mask="url(#mask-2)"></path>
            </g>
            <path d="M9.141,3.58885 C9.955,3.58885 10.615,4.24885 10.615,5.06175 C10.615,5.87685 9.955,6.53575 9.141,6.53575 C8.327,6.53575 7.6681,5.87685 7.6681,5.06175 C7.6681,4.24885 8.327,3.58885 9.141,3.58885 M6.2425,6.67875 L5.6232,7.29915 L6.9586,8.63345 L7.5922,8.00095 C7.777,8.09885 7.9695,8.17805 8.1653,8.23855 L8.1653,9.11195 L10.054,9.11195 L10.054,8.25725 C10.2828,8.19235 10.5061,8.10105 10.7206,7.98555 L11.3685,8.63345 L12.7039,7.29915 L12.0549,6.65015 C12.1605,6.45545 12.2441,6.25415 12.3079,6.04735 L13.1824,6.04735 L13.1824,4.15865 L12.3299,4.15865 C12.2628,3.92215 12.1704,3.69555 12.0549,3.48325 L12.6588,2.87935 L11.3234,1.54505 L10.7206,2.14785 C10.5105,2.03455 10.2872,1.94325 10.054,1.87615 L10.054,0.99945 L8.1653,0.99945 L8.1653,1.89485 C7.9442,1.96305 7.733,2.05325 7.5339,2.16435 L6.9135,1.54505 L5.5781,2.87935 L6.2117,3.51295 C6.1039,3.71645 6.017,3.93205 5.9532,4.15865 L5.1007,4.15865 L5.1007,6.04735 L5.9752,6.04735 C6.0412,6.26405 6.1303,6.47635 6.2425,6.67875" id="Fill-7" fill="#FFFFFF"></path>
            <path d="M16.06121,9.56691 C16.60901,9.56691 17.05341,10.01131 17.05341,10.55911 C17.05341,11.10691 16.60901,11.55131 16.06121,11.55131 C15.51231,11.55131 15.06901,11.10691 15.06901,10.55911 C15.06901,10.01131 15.51231,9.56691 16.06121,9.56691 M14.10981,11.64811 L13.69181,12.06501 L14.59161,12.96481 L15.01731,12.53801 C15.14271,12.60401 15.27141,12.65791 15.40341,12.69861 L15.40341,13.28711 L16.67611,13.28711 L16.67611,12.71071 C16.83011,12.66671 16.98081,12.60621 17.12381,12.52811 L17.56161,12.96481 L18.46031,12.06501 L18.02361,11.62831 C18.09401,11.49741 18.15121,11.36211 18.19411,11.22241 L18.78261,11.22241 L18.78261,9.95081 L18.20841,9.95081 C18.16331,9.79131 18.10061,9.63841 18.02361,9.49651 L18.43061,9.08951 L17.53081,8.19081 L17.12381,8.59671 C16.98301,8.51971 16.83341,8.45811 16.67611,8.41301 L16.67611,7.82341 L15.40341,7.82341 L15.40341,8.42621 C15.25491,8.47131 15.11191,8.53291 14.97881,8.60771 L14.56081,8.19081 L13.66211,9.08951 L14.08781,9.51631 C14.01521,9.65271 13.95691,9.79791 13.91401,9.95081 L13.33981,9.95081 L13.33981,11.22241 L13.92831,11.22241 C13.97341,11.36871 14.03391,11.51171 14.10981,11.64811" id="Fill-12" fill="#FFFFFF"></path>
        </g>
    </g>
</svg>