<?xml version="1.0" encoding="UTF-8"?>
<svg width="25px" height="22px" viewBox="0 0 25 22" version="1.1" xmlns="http://www.w3.org/2000/svg" xmlns:xlink="http://www.w3.org/1999/xlink">
    <!-- Generator: Sketch 53.1 (72631) - https://sketchapp.com -->
    <title>icon-roles-light</title>
    <desc>Created with Sketch.</desc>
    <g id="Symbols" stroke="none" stroke-width="1" fill="none" fill-rule="evenodd">
        <path d="M13.1032413,9.12519247 L22.2110624,9.12519247 L22.2110624,6.95637412 L13.1032413,6.95637412 L13.1032413,9.12519247 Z M13.1032413,13.4680406 L22.2110624,13.4680406 L22.2110624,11.2992222 L13.1032413,11.2992222 L13.1032413,13.4680406 Z M13.1032413,17.7691974 L22.2110624,17.7691974 L22.2110624,15.600379 L13.1032413,15.600379 L13.1032413,17.7691974 Z M6.69927751,18.6151842 C3.8772948,18.6151842 2.18358403,17.8630029 2.18358403,17.109953 C2.18358403,15.6055904 3.8772948,14.1003593 6.69927751,14.1003593 C9.44222038,14.1003593 11.2141024,15.6055904 11.2141024,17.109953 C11.2141024,17.8630029 9.34667772,18.6151842 6.69927751,18.6151842 L6.69927751,18.6151842 Z M4.03711161,6.92423704 C4.7180702,6.24327846 5.65959967,5.82202219 6.69927751,5.82202219 C7.73808678,5.82202219 8.67874768,6.24327846 9.35970627,6.92423704 C10.0397963,7.60519563 10.4619211,8.54585653 10.4619211,9.5846658 C10.4619211,10.6243436 10.0397963,11.5650045 9.35970627,12.2450946 C8.67874768,12.9260531 7.73808678,13.3473094 6.69927751,13.3473094 C5.65959967,13.3473094 4.7180702,12.9260531 4.03711161,12.2450946 C3.3570216,11.5650045 2.9366339,10.6243436 2.9366339,9.5846658 C2.9366339,8.54585653 3.3570216,7.60519563 4.03711161,6.92423704 L4.03711161,6.92423704 Z M22.9823522,3.12077066 L14.6310553,3.12077066 L14.6310553,1.87611039 C14.6310553,0.839906826 13.7911485,0 12.7540764,0 L12.4300999,0 C11.3938963,0 10.5539895,0.839906826 10.5539895,1.87611039 L10.5539895,3.12077066 L1.87611039,3.12077066 C0.839906826,3.12077066 0,3.96067748 0,4.99688105 L0,20.1238896 C0,21.1600932 0.839906826,22 1.87611039,22 L22.9823522,22 C24.0185558,22 24.8584626,21.1600932 24.8584626,20.1238896 L24.8584626,4.99688105 C24.8584626,3.96067748 24.0185558,3.12077066 22.9823522,3.12077066 L22.9823522,3.12077066 Z" id="icon-roles-light" fill="#FFFFFF"></path>
    </g>
</svg>