<?xml version="1.0" encoding="UTF-8"?>
<svg width="22px" height="22px" viewBox="0 0 22 22" version="1.1" xmlns="http://www.w3.org/2000/svg" xmlns:xlink="http://www.w3.org/1999/xlink">
    <!-- Generator: Sketch 53.2 (72643) - https://sketchapp.com -->
    <title>icon-job-light</title>
    <desc>Created with Sketch.</desc>
    <defs>
        <polygon id="path-1" points="0 0 22 0 22 22 0 22"></polygon>
    </defs>
    <g id="Page-1" stroke="none" stroke-width="1" fill="none" fill-rule="evenodd">
        <g id="icon-job-light">
            <mask id="mask-2" fill="white">
                <use xlink:href="#path-1"></use>
            </mask>
            <g id="Clip-2"></g>
            <path d="M9.9,13.2 L1.1,13.2 L1.1,19.8 C1.1,21.0150273 2.08497266,22 3.3,22 L18.7,22 C19.9150273,22 20.9,21.0150273 20.9,19.8 L20.9,13.2 L12.1,13.2 L12.1,15.4 L9.9,15.4 L9.9,13.2 Z M9.9,12.099957 L0,12.099957 L0,5.5 C0,4.29 0.99,3.3 2.2,3.3 L6.6,3.3 L6.6,2.2 C6.6,0.984972656 7.58497266,0 8.8,0 L13.2,0 C14.4150273,0 15.4,0.984972656 15.4,2.2 L15.4,3.3 L19.8,3.3 C21.0150273,3.3 22,4.28497266 22,5.5 L22,12.099957 L12.1,12.099957 L12.1,9.9 L9.9,9.9 L9.9,12.099957 Z M8.8,3.3 L13.2,3.3 L13.2,2.2 L8.8,2.2 L8.8,3.3 Z" id="Fill-1" fill="#FFFFFF" mask="url(#mask-2)"></path>
        </g>
    </g>
</svg>