<?xml version="1.0" encoding="UTF-8"?>
<svg width="43px" height="48px" viewBox="0 0 43 48" version="1.1" xmlns="http://www.w3.org/2000/svg" xmlns:xlink="http://www.w3.org/1999/xlink">
    <!-- Generator: Sketch 53 (72520) - https://sketchapp.com -->
    <title>icon-frequency</title>
    <desc>Created with Sketch.</desc>
    <defs>
        <polygon id="path-1" points="0 0 42.9473684 0 42.9473684 48 0 48"></polygon>
    </defs>
    <g id="Pay-Rate" stroke="none" stroke-width="1" fill="none" fill-rule="evenodd">
        <g id="Pay-Rate-Change" transform="translate(-948.000000, -201.000000)">
            <g id="icon-frequency" transform="translate(948.000000, 201.000000)">
                <mask id="mask-2" fill="white">
                    <use xlink:href="#path-1"></use>
                </mask>
                <g id="Clip-2"></g>
                <path d="M0,9.6 C0,6.96028425 2.14765101,4.8 4.77192982,4.8 L38.1754386,4.8 C40.8110208,4.8 42.9473684,6.94891433 42.9473684,9.6 L42.9473684,43.198105 C42.9473684,45.8491907 40.8110208,48 38.1754386,48 L4.77192982,48 C2.13823148,48 0,45.8491907 0,43.198105 L0,9.6 Z M4.77192982,43.198105 L38.1735547,43.198105 L38.1735547,14.4 L4.77192982,14.4 L4.77192982,43.198105 Z M9.54385965,4.8 L14.3139056,4.8 L14.3139056,0 L9.54385965,0 L9.54385965,4.8 Z M28.6315789,4.8 L33.4016249,4.8 L33.4016249,0 L28.6315789,0 L28.6315789,4.8 Z M9.54385965,26.4009475 L14.3139056,26.4009475 L14.3139056,21.6009475 L9.54385965,21.6009475 L9.54385965,26.4009475 Z M9.54385965,35.9990525 L14.3139056,35.9990525 L14.3139056,31.1990525 L9.54385965,31.1990525 L9.54385965,35.9990525 Z M19.0877193,26.4009475 L23.8596491,26.4009475 L23.8596491,21.6009475 L19.0877193,21.6009475 L19.0877193,26.4009475 Z M19.0877193,35.9990525 L23.8596491,35.9990525 L23.8596491,31.1990525 L19.0877193,31.1990525 L19.0877193,35.9990525 Z M28.6315789,26.4009475 L33.4016249,26.4009475 L33.4016249,21.6009475 L28.6315789,21.6009475 L28.6315789,26.4009475 Z M28.6315789,35.9990525 L33.4016249,35.9990525 L33.4016249,31.1990525 L28.6315789,31.1990525 L28.6315789,35.9990525 Z" id="Fill-1" fill="#2E3D4A" mask="url(#mask-2)"></path>
            </g>
        </g>
    </g>
</svg>