<?xml version="1.0" encoding="UTF-8"?>
<svg width="41px" height="41px" viewBox="0 0 41 41" version="1.1" xmlns="http://www.w3.org/2000/svg" xmlns:xlink="http://www.w3.org/1999/xlink">
    <!-- Generator: Sketch 53 (72520) - https://sketchapp.com -->
    <title>icon-history</title>
    <desc>Created with Sketch.</desc>
    <defs>
        <polygon id="path-1" points="0 0 41 0 41 41 0 41"></polygon>
    </defs>
    <g id="Pay-Rate" stroke="none" stroke-width="1" fill="none" fill-rule="evenodd">
        <g id="Pay-Rate-Change" transform="translate(-740.000000, -380.000000)">
            <g id="icon-history" transform="translate(740.000000, 380.000000)">
                <mask id="mask-2" fill="white">
                    <use xlink:href="#path-1"></use>
                </mask>
                <g id="Clip-2"></g>
                <path d="M18.2302226,10.0093755 L18.2302226,22.7706816 L28.893213,22.7706816 L28.893213,18.2129584 L22.7877782,18.2129584 L22.7877782,10.0093755 L18.2302226,10.0093755 Z M35.0018361,5.99845154 C26.99463,-1.99948385 14.0233708,-1.99948385 6.01616474,5.99845154 L4.55755565,7.52566344 L0,2.96794024 L0,15.9332997 L12.8979303,15.9332997 L7.70273133,10.7395039 L9.22988709,9.21229203 C14.4776916,4.01849624 22.6012676,3.10344443 28.8724896,7.00118253 C35.1405235,10.8973265 37.9190543,18.5891818 35.5836856,25.592357 C33.2483169,32.5955323 26.4143746,37.0831121 19.0591589,36.4390687 C11.7039432,35.7950253 5.75313687,30.1883402 4.67233144,22.8838674 L0.114775798,22.8838674 C1.32789222,33.2252282 10.097082,41.0143277 20.5097975,40.9999802 C28.7991606,40.9936035 36.2675581,35.9974844 39.4398336,28.3375124 C42.610515,20.6791346 40.85859,11.8633916 35.0018361,5.99845154 L35.0018361,5.99845154 Z" id="Fill-1" fill="#2E3D4A" mask="url(#mask-2)"></path>
            </g>
        </g>
    </g>
</svg>