<?xml version="1.0" encoding="UTF-8"?>
<svg width="17px" height="17px" viewBox="0 0 17 17" version="1.1" xmlns="http://www.w3.org/2000/svg" xmlns:xlink="http://www.w3.org/1999/xlink">
    <!-- Generator: Sketch 53 (72520) - https://sketchapp.com -->
    <title>icon-logout-light</title>
    <desc>Created with Sketch.</desc>
    <defs>
        <polygon id="path-1" points="0.000130769231 0.444533333 16.6881154 0.444533333 16.6881154 15.3332 0.000130769231 15.3332"></polygon>
    </defs>
    <g id="Page-1" stroke="none" stroke-width="1" fill="none" fill-rule="evenodd">
        <g id="icon-logout-light">
            <path d="M8.34418846,6.80613333 C9.26153462,6.80613333 10.0128038,6.0408 10.0128038,5.1048 L10.0128038,1.70146667 C10.0128038,0.765466667 9.26153462,0.000133333333 8.34418846,0.000133333333 C7.42618846,0.000133333333 6.67491923,0.765466667 6.67491923,1.70146667 L6.67491923,5.1048 C6.67491923,6.0408 7.42618846,6.80613333 8.34418846,6.80613333" id="Fill-1" fill="#FFFFFF"></path>
            <g id="Group-5" transform="translate(0.000000, 1.682067)">
                <mask id="mask-2" fill="white">
                    <use xlink:href="#path-1"></use>
                </mask>
                <g id="Clip-4"></g>
                <path d="M14.2683615,0.7852 L14.2683615,0.7852 C14.0179385,0.529866667 13.7675154,0.444533333 13.3510154,0.444533333 C12.6827846,0.444533333 12.0989,1.04053333 12.0989,1.7212 C12.0989,2.0612 12.2656308,2.40186667 12.4323615,2.6572 C13.5177462,3.76253333 14.1016308,5.2092 14.1016308,6.82586667 C14.1016308,10.1438667 11.5150154,12.7812 8.26082308,12.7812 C5.00663077,12.7812 2.42001538,10.1438667 2.42001538,6.82586667 C2.42001538,5.2092 3.08693846,3.67786667 4.17232308,2.6572 C4.42209231,2.40186667 4.58882308,2.0612 4.58882308,1.7212 C4.58882308,1.04053333 4.00559231,0.444533333 3.33736154,0.444533333 C3.00324615,0.444533333 2.67043846,0.6152 2.42001538,0.7852 C0.918130769,2.31653333 0.000130769231,4.4432 0.000130769231,6.82586667 C0.000130769231,11.5052 3.75516923,15.3332 8.34386154,15.3332 C12.9332077,15.3332 16.6882462,11.5052 16.6882462,6.82586667 C16.6882462,4.4432 15.7702462,2.31653333 14.2683615,0.7852" id="Fill-3" fill="#FFFFFF" mask="url(#mask-2)"></path>
            </g>
        </g>
    </g>
</svg>