<?xml version="1.0" encoding="UTF-8"?>
<svg width="25px" height="22px" viewBox="0 0 25 22" version="1.1" xmlns="http://www.w3.org/2000/svg" xmlns:xlink="http://www.w3.org/1999/xlink">
    <!-- Generator: Sketch 53.1 (72631) - https://sketchapp.com -->
    <title>icon-roles-dark</title>
    <desc>Created with Sketch.</desc>
    <g id="Symbols" stroke="none" stroke-width="1" fill="none" fill-rule="evenodd">
        <g id="bars/roles-nav" transform="translate(-43.000000, -13.000000)" fill="#020303">
            <path d="M56.1032413,22.1251925 L65.2110624,22.1251925 L65.2110624,19.9563741 L56.1032413,19.9563741 L56.1032413,22.1251925 Z M56.1032413,26.4680406 L65.2110624,26.4680406 L65.2110624,24.2992222 L56.1032413,24.2992222 L56.1032413,26.4680406 Z M56.1032413,30.7691974 L65.2110624,30.7691974 L65.2110624,28.600379 L56.1032413,28.600379 L56.1032413,30.7691974 Z M49.6992775,31.6151842 C46.8772948,31.6151842 45.183584,30.8630029 45.183584,30.109953 C45.183584,28.6055904 46.8772948,27.1003593 49.6992775,27.1003593 C52.4422204,27.1003593 54.2141024,28.6055904 54.2141024,30.109953 C54.2141024,30.8630029 52.3466777,31.6151842 49.6992775,31.6151842 L49.6992775,31.6151842 Z M47.0371116,19.924237 C47.7180702,19.2432785 48.6595997,18.8220222 49.6992775,18.8220222 C50.7380868,18.8220222 51.6787477,19.2432785 52.3597063,19.924237 C53.0397963,20.6051956 53.4619211,21.5458565 53.4619211,22.5846658 C53.4619211,23.6243436 53.0397963,24.5650045 52.3597063,25.2450946 C51.6787477,25.9260531 50.7380868,26.3473094 49.6992775,26.3473094 C48.6595997,26.3473094 47.7180702,25.9260531 47.0371116,25.2450946 C46.3570216,24.5650045 45.9366339,23.6243436 45.9366339,22.5846658 C45.9366339,21.5458565 46.3570216,20.6051956 47.0371116,19.924237 L47.0371116,19.924237 Z M65.9823522,16.1207707 L57.6310553,16.1207707 L57.6310553,14.8761104 C57.6310553,13.8399068 56.7911485,13 55.7540764,13 L55.4300999,13 C54.3938963,13 53.5539895,13.8399068 53.5539895,14.8761104 L53.5539895,16.1207707 L44.8761104,16.1207707 C43.8399068,16.1207707 43,16.9606775 43,17.996881 L43,33.1238896 C43,34.1600932 43.8399068,35 44.8761104,35 L65.9823522,35 C67.0185558,35 67.8584626,34.1600932 67.8584626,33.1238896 L67.8584626,17.996881 C67.8584626,16.9606775 67.0185558,16.1207707 65.9823522,16.1207707 L65.9823522,16.1207707 Z" id="icon-roles-dark"></path>
        </g>
    </g>
</svg>