<?xml version="1.0" encoding="UTF-8"?>
<svg width="20px" height="12px" viewBox="0 0 20 12" version="1.1" xmlns="http://www.w3.org/2000/svg" xmlns:xlink="http://www.w3.org/1999/xlink">
    <!-- Generator: Sketch 52.5 (67469) - http://www.bohemiancoding.com/sketch -->
    <title>icon-view</title>
    <desc>Created with Sketch.</desc>
    <g id="Page-1" stroke="none" stroke-width="1" fill="none" fill-rule="evenodd">
        <g id="icons" transform="translate(-27.000000, -46.000000)" fill="#000000">
            <g id="icon-view" transform="translate(27.000000, 46.000000)">
                <path d="M9.81818182,2.18181818 C11.6252727,2.18181818 13.0909091,3.64745455 13.0909091,5.45454545 C13.0909091,7.26163636 11.6252727,8.72727273 9.81818182,8.72727273 C8.01109091,8.72727273 6.54545455,7.26163636 6.54545455,5.45454545 C6.54545455,3.64745455 8.01109091,2.18181818 9.81818182,2.18181818" id="Fill-1"></path>
                <path d="M9.81818182,10.8 C4.44886364,10.8 1.53409091,6 1.53409091,6 C1.53409091,6 4.44886364,1.2 9.81818182,1.2 C15.1875,1.2 18.1022727,6 18.1022727,6 C18.1022727,6 15.1875,10.8 9.81818182,10.8 M9.81818182,0 C3.68181818,0 0,5.9628 0,5.9628 C0,5.9628 3.68181818,12 9.81818182,12 C15.9545455,12 19.6363636,6 19.6363636,6 C19.6363636,6 15.9545455,0 9.81818182,0" id="Fill-3"></path>
            </g>
        </g>
    </g>
</svg>