<?xml version="1.0" encoding="UTF-8"?>
<svg width="18px" height="16px" viewBox="0 0 18 16" version="1.1" xmlns="http://www.w3.org/2000/svg" xmlns:xlink="http://www.w3.org/1999/xlink">
    <!-- Generator: Sketch 52.5 (67469) - http://www.bohemiancoding.com/sketch -->
    <title>icon-eventCode</title>
    <desc>Created with Sketch.</desc>
    <g id="Page-1" stroke="none" stroke-width="1" fill="none" fill-rule="evenodd">
        <path d="M12.375,4.57142857 C11.75,4.57142857 11.25,4.05536508 11.25,3.41739683 L11.25,1.15403175 C11.25,0.506920635 11.754,0 12.375,0 C13,0 13.5,0.516063492 13.5,1.15403175 L13.5,3.41739683 C13.5,4.06450794 12.996,4.57142857 12.375,4.57142857 M2.243,2.28571429 L3.375,2.28571429 L3.375,3.43060317 C3.375,4.69231746 4.374,5.71428571 5.625,5.71428571 C6.868,5.71428571 7.875,4.6872381 7.875,3.43060317 L7.875,2.28571429 L10.125,2.28571429 L10.125,3.43060317 C10.125,4.69231746 11.124,5.71428571 12.375,5.71428571 C13.618,5.71428571 14.625,4.6872381 14.625,3.43060317 L14.625,2.28571429 L15.757,2.28571429 C16.994,2.28571429 18,3.31377778 18,4.5815873 L18,13.704127 C18,14.9688889 16.996,16 15.757,16 L2.243,16 C1.006,16 0,14.9719365 0,13.704127 L0,4.5815873 C0,3.3168254 1.004,2.28571429 2.243,2.28571429 M5.625,4.57142857 C5,4.57142857 4.5,4.05536508 4.5,3.41739683 L4.5,1.15403175 C4.5,0.506920635 5.004,0 5.625,0 C6.25,0 6.75,0.516063492 6.75,1.15403175 L6.75,3.41739683 C6.75,4.06450794 6.246,4.57142857 5.625,4.57142857" id="icon-eventCode" fill="#090909"></path>
    </g>
</svg>