<?xml version="1.0" encoding="UTF-8"?>
<svg width="22px" height="18px" viewBox="0 0 22 18" version="1.1" xmlns="http://www.w3.org/2000/svg" xmlns:xlink="http://www.w3.org/1999/xlink">
    <!-- Generator: Sketch 52.5 (67469) - http://www.bohemiancoding.com/sketch -->
    <title>icon-department-code-white</title>
    <desc>Created with Sketch.</desc>
    <defs>
        <polygon id="path-1" points="0 0 22 0 22 17.6 0 17.6"></polygon>
    </defs>
    <g id="Symbols" stroke="none" stroke-width="1" fill="none" fill-rule="evenodd">
        <g id="icon-department-code-white">
            <mask id="mask-2" fill="white">
                <use xlink:href="#path-1"></use>
            </mask>
            <g id="Clip-2"></g>
            <path d="M19.6095752,11.6458853 L19.6095752,8.38112162 C19.6095752,8.03639101 19.3295864,7.75724644 18.9845366,7.75724644 L11.6252005,7.75724644 L11.6252005,5.94248371 L14.284285,5.94248371 C14.6296585,5.94248371 14.9093236,5.66269298 14.9093236,5.31828545 L14.9093236,0.623875172 C14.9093236,0.279144562 14.6296585,0 14.284285,0 L7.65809878,0 C7.31272529,0 7.03306016,0.279144562 7.03306016,0.623875172 L7.03306016,5.31828545 C7.03306016,5.66269298 7.31272529,5.94248371 7.65809878,5.94248371 L10.3747995,5.94248371 L10.3747995,7.75724644 L3.0151397,7.75724644 C2.66944252,7.75724644 2.38977739,8.03639101 2.38977739,8.38112162 L2.38977739,11.6458853 C1.02640988,11.9337531 0,13.1437026 0,14.5898265 C0,16.249832 1.35203849,17.6 3.01416864,17.6 C4.67791722,17.6 6.03125046,16.249832 6.03125046,14.5898265 C6.03125046,13.1443488 5.00419321,11.9343993 3.64050201,11.6458853 L3.64050201,9.00564296 L10.3747995,9.00564296 L10.3747995,11.6394236 C8.99686613,11.9166296 7.95589036,13.133687 7.95589036,14.5898265 C7.95589036,16.249832 9.30857622,17.6 10.9707064,17.6 C12.6338076,17.6 13.9861698,16.249832 13.9861698,14.5898265 C13.9861698,13.1543644 12.9740021,11.9528151 11.6252005,11.6533162 L11.6252005,9.00564296 L18.3588506,9.00564296 L18.3588506,11.6458853 C16.9954831,11.9340762 15.9687495,13.1440257 15.9687495,14.5898265 C15.9687495,16.249832 17.3214354,17.6 18.9838892,17.6 C20.6469905,17.6 22,16.249832 22,14.5898265 C22,13.1440257 20.9732664,11.9343993 19.6095752,11.6458853" id="Fill-1" fill="#FFFFFF" mask="url(#mask-2)"></path>
        </g>
    </g>
</svg>