<?xml version="1.0" encoding="UTF-8"?>
<svg width="18px" height="18px" viewBox="0 0 18 18" version="1.1" xmlns="http://www.w3.org/2000/svg" xmlns:xlink="http://www.w3.org/1999/xlink">
    <!-- Generator: Sketch 52.6 (67491) - http://www.bohemiancoding.com/sketch -->
    <title>Group 6</title>
    <desc>Created with Sketch.</desc>
    <defs>
        <polygon id="path-1" points="0.164566071 0.338538462 14.3431554 0.338538462 14.3431554 18 0.164566071 18"></polygon>
    </defs>
    <g id="Page-1" stroke="none" stroke-width="1" fill="none" fill-rule="evenodd">
        <g id="Group-6">
            <g id="Group-3" transform="translate(3.375000, 0.000000)">
                <mask id="mask-2" fill="white">
                    <use xlink:href="#path-1"></use>
                </mask>
                <g id="Clip-2"></g>
                <path d="M13.5958875,4.82538462 L10.3463518,1.08 L9.70424464,0.338538462 L2.02820893,0.338538462 C0.997494643,0.338538462 0.164566071,1.16792308 0.164566071,2.19323077 L0.164566071,4.54984615 L1.31994107,4.54984615 L1.31924464,2.64461538 C1.31994107,2.06792308 1.78654821,1.60130769 2.36458393,1.60130769 L8.92981607,1.59507692 L8.92981607,4.68692308 C8.93120893,5.83823077 9.86720893,6.77076923 11.0260661,6.77076923 L13.2978161,6.77076923 L13.1863875,15.6897692 C13.1842982,16.2636923 12.7162982,16.7268462 12.1396554,16.7316923 L2.28170893,16.7268462 C1.75381607,16.7268462 1.32969107,16.2124615 1.32690536,15.5783077 L1.32690536,14.823 L0.1701375,14.823 L0.1701375,15.9486923 C0.1701375,17.0799231 0.932030357,18 1.86872679,18 L12.4774232,17.9972308 C13.5074411,17.9972308 14.3431554,17.1636923 14.3431554,16.1411538 L14.3431554,5.68938462 L13.5958875,4.82538462" id="Fill-1" fill="#020303" mask="url(#mask-2)"></path>
            </g>
            <path d="M0,14.625 L12.375,14.625 L12.375,3.375 L0,3.375 L0,14.625 Z M1.18907733,13.4924314 L11.18449,13.4924314 L11.18449,4.50688678 L1.18907733,4.50688678 L1.18907733,13.4924314 Z" id="Fill-4" fill="#020303"></path>
            <polygon id="Fill-5" fill="#020303" points="9 12.375 7.01727273 12.375 5.66318182 10.5289575 4.24159091 12.375 2.25 12.375 4.72159091 9.37526325 2.72522727 6.75 4.73795455 6.75 5.67204545 8.17747455 6.66818182 6.75 8.71636364 6.75 6.62318182 9.37526325"></polygon>
        </g>
    </g>
</svg>