<?xml version="1.0" encoding="UTF-8"?>
<svg width="18px" height="15px" viewBox="0 0 18 15" version="1.1" xmlns="http://www.w3.org/2000/svg" xmlns:xlink="http://www.w3.org/1999/xlink">
    <!-- Generator: Sketch 54.1 (76490) - https://sketchapp.com -->
    <title>icon-duplicate-row</title>
    <desc>Created with Sketch.</desc>
    <g id="Payroll-ver2" stroke="none" stroke-width="1" fill="none" fill-rule="evenodd">
        <g id="payroll-hourly-pay-run-details" transform="translate(-920.000000, -553.000000)" fill="#005EFF">
            <g id="icon-duplicate-row" transform="translate(920.000000, 553.000000)">
                <path d="M14.7922924,1.93133047 L3.24463519,1.93133047 L3.24463519,1.28754107 C3.24463519,0.576192831 3.8188229,0 4.52773327,0 L16.7169019,0 C17.4258123,0 18,0.576192831 18,1.28754107 L18,10.300404 C18,11.0118277 17.4258123,11.5879828 16.7169019,11.5879828 L16.0753905,11.5879828 L16.0753905,3.21887155 C16.0753905,2.50748558 15.5012028,1.93133047 14.7922924,1.93133047" id="Fill-1"></path>
                <path d="M13.472301,3.24463519 L1.28306376,3.24463519 C0.57418917,3.24463519 0,3.81807964 0,4.52611872 L0,12.8558555 C0,13.5638946 0.57418917,14.1373391 1.28306376,14.1373391 L13.472301,14.1373391 C14.1811756,14.1373391 14.7553648,13.5638946 14.7553648,12.8558555 L14.7553648,4.52611872 C14.7553648,3.81807964 14.1811756,3.24463519 13.472301,3.24463519 M9.62307218,9.65212793 L7.69845774,9.65212793 L7.69845774,11.574372 C7.69845774,11.9280724 7.41104364,12.215095 7.05690707,12.215095 C6.70280808,12.215095 6.41539398,11.9280724 6.41539398,11.574372 L6.41539398,9.65212793 L4.49074196,9.65212793 C4.13664297,9.65212793 3.84922887,9.36506781 3.84922887,9.01136739 C3.84922887,8.65766698 4.13664297,8.3706444 4.49074196,8.3706444 L6.41539398,8.3706444 L6.41539398,6.44836279 C6.41539398,6.09469992 6.70280808,5.8076398 7.05690707,5.8076398 C7.41104364,5.8076398 7.69845774,6.09469992 7.69845774,6.44836279 L7.69845774,8.3706444 L9.62307218,8.3706444 C9.97720875,8.3706444 10.2646229,8.65766698 10.2646229,9.01136739 C10.2646229,9.36506781 9.97720875,9.65212793 9.62307218,9.65212793" id="Fill-3"></path>
            </g>
        </g>
    </g>
</svg>