<?xml version="1.0" encoding="UTF-8"?>
<svg width="18px" height="16px" viewBox="0 0 18 16" version="1.1" xmlns="http://www.w3.org/2000/svg" xmlns:xlink="http://www.w3.org/1999/xlink">
    <!-- Generator: Sketch 52.5 (67469) - http://www.bohemiancoding.com/sketch -->
    <title>icon-workDataRecord</title>
    <desc>Created with Sketch.</desc>
    <defs>
        <polygon id="path-1" points="0 0.301207729 8.68527949 0.301207729 8.68527949 7.50700135 0 7.50700135"></polygon>
    </defs>
    <g id="Page-1" stroke="none" stroke-width="1" fill="none" fill-rule="evenodd">
        <g id="icon-workDataRecord" transform="translate(0.000000, -1.000000)">
            <g id="Group-5" transform="translate(0.000000, 6.768278)">
                <mask id="mask-2" fill="white">
                    <use xlink:href="#path-1"></use>
                </mask>
                <g id="Clip-4"></g>
                <path d="M0.578944929,6.71920563 C0.543897641,6.67357598 0.509454618,6.62794634 0.474407331,6.58231669 C0.342073608,6.41240629 0.239953065,6.22568498 0.162003064,6.02575508 C0.0435674036,5.72375886 -0.00416941865,5.40975485 6.04263572e-05,5.0855442 C0.00549879851,4.67487738 0.00368600779,4.26421056 0.00489453494,3.85414413 C0.00670732565,3.44948121 0.00670732565,3.04541868 0.0103329071,2.64135615 C0.0145627521,2.13222536 0.16985849,1.67172616 0.47259454,1.26105934 C0.781977489,0.841386669 1.18381276,0.548396306 1.68595579,0.394096054 C1.96633409,0.308240271 2.25396355,0.284825058 2.54642712,0.311842612 C2.64733914,0.320848463 2.74885542,0.329253924 2.85460154,0.338860166 C2.84432906,0.567608789 2.83405658,0.795156632 2.82317984,1.02690721 C2.83647363,1.0275076 2.84855891,1.02870838 2.86064418,1.02870838 C3.20084457,1.02930877 3.5404407,1.03050955 3.88003682,1.03110994 L6.40646282,1.03651345 C6.78775313,1.03771423 7.17025198,1.03891501 7.55275082,1.03891501 C7.64520314,1.03891501 7.738864,1.0275076 7.83071206,1.03411189 C8.09900509,1.05512554 8.32016555,1.17220161 8.48210819,1.38594048 C8.71112408,1.6873363 8.74617137,2.01635007 8.58906284,2.35797203 C8.47243997,2.61073626 8.27061594,2.77404236 8.00232291,2.85569541 L7.97754811,2.86410088 C8.2778671,3.10725886 8.40355393,3.41826093 8.32862524,3.79230395 C8.2530923,4.16694737 8.0107826,4.39989872 7.64822446,4.51517362 C7.95337757,4.7643355 8.07906439,5.08374303 7.99084191,5.46799269 C7.9014109,5.85284273 7.6409733,6.08039058 7.26330857,6.17645299 C7.28566632,6.24970058 7.31406671,6.32174739 7.32856903,6.39619576 C7.38476554,6.67357598 7.32977756,6.92994255 7.1533326,7.15208688 C6.95815546,7.39824682 6.69590507,7.51051977 6.38047949,7.50691742 C5.93453297,7.50091352 5.48979498,7.50031313 5.04445273,7.49911235 C4.67343489,7.49791157 4.30302132,7.49911235 3.93260775,7.50031313 C3.41414961,7.50151391 2.89629573,7.50391547 2.37904611,7.50511625 C1.98023215,7.50691742 1.60256742,7.41986086 1.24907323,7.2361415 C1.09438176,7.15628961 0.949962762,7.06142798 0.818837567,6.94675347 C0.809773613,6.9389484 0.797688342,6.9329445 0.787415861,6.92634021 C0.71792555,6.85729535 0.648435239,6.78825049 0.578944929,6.71920563" id="Fill-3" fill="#000000" mask="url(#mask-2)"></path>
            </g>
            <path d="M3.21211669,1.26214541 C3.26750592,1.2197451 3.32076479,1.17447019 3.37757425,1.13566313 C3.45071644,1.08463903 3.52740922,1.03864547 3.60268176,0.99121462 C3.61120318,0.993370568 3.61972459,0.996245165 3.6275359,0.999119762 C3.62327519,1.017086 3.61333353,1.03505223 3.61333353,1.05229981 C3.61262341,1.7910713 3.61333353,2.53056145 3.61191329,3.26861429 C3.61191329,3.44827662 3.67085311,3.59847432 3.80648571,3.71561416 C3.89312014,3.79035369 3.99466706,3.8298794 4.10757587,3.84065914 C4.13527048,3.84281509 4.16225498,3.84281509 4.18923948,3.84281509 C4.92847263,3.84281509 5.66770579,3.84281509 6.40693894,3.84353374 C6.5411513,3.84353374 6.66329165,3.81047587 6.77122963,3.72567525 C6.90615211,3.61787786 6.97645382,3.47486664 6.9757437,3.30382811 C6.97432347,2.92941181 6.96509193,2.55427687 6.95870086,2.17986058 C6.95373004,1.81119348 6.94733897,1.44252639 6.94094791,1.07457794 C6.94094791,1.0623609 6.93810743,1.05014386 6.93526696,1.02283519 C7.00627879,1.0637982 7.06805908,1.09398147 7.12415843,1.13135124 C7.33790404,1.27436245 7.51401338,1.45689937 7.66739893,1.66171443 C7.99121288,2.09362266 8.20850908,2.57871095 8.36686546,3.09254521 C8.50462841,3.54241968 8.58984261,4.00235524 8.57635036,4.47666378 C8.56711882,4.78568299 8.50675877,5.08032921 8.36544523,5.35629054 C8.22413168,5.63225188 8.02458844,5.85647046 7.77888751,6.04116334 C7.45365332,6.28478545 7.0879424,6.4400137 6.69950768,6.5449365 C6.68388508,6.5492484 6.66826248,6.55571624 6.6497994,6.56218409 C6.6576107,6.73250397 6.665422,6.90282386 6.67323331,7.0681132 L3.84412198,7.0681132 C3.85122316,6.90426116 3.85903446,6.73322262 3.86684576,6.56362139 C3.73760423,6.52409567 3.61120318,6.48960051 3.48693247,6.4472002 C3.18300184,6.3437147 2.89611404,6.20501538 2.63976133,6.00882412 C2.20729929,5.67824543 1.94597575,5.2448999 1.8820651,4.69513317 C1.84726931,4.39042587 1.88845617,4.0921864 1.94881622,3.79610288 C2.08515894,3.12488443 2.31736762,2.49175438 2.68307855,1.91252304 C2.76971298,1.77526102 2.87481049,1.64949739 2.9720967,1.51870321 C2.979908,1.50792348 2.98629907,1.49570644 2.99340025,1.48420805 C3.06583232,1.41018717 3.1389745,1.33616629 3.21211669,1.26214541" id="Fill-6" fill="#000000"></path>
            <path d="M3.30139403,14.9946433 C4.25975605,14.9844366 5.21570102,14.97423 6.17527158,14.9640234 C6.18493979,15.09731 6.19158669,15.2287954 6.20427623,15.3596804 C6.21817429,15.4941678 6.21938282,15.6274544 6.19219096,15.760741 C6.13720297,16.0333181 6.02843553,16.2812792 5.84715646,16.4962189 C5.59819987,16.7916108 5.27612738,16.9387064 4.8942328,16.9687259 C4.66400838,16.9867376 4.43861807,16.9657239 4.22047892,16.8876732 C3.9902545,16.8060202 3.79809868,16.6709324 3.64642853,16.4812091 C3.38115682,16.1497938 3.266951,15.771548 3.29233007,15.3500742 C3.29897697,15.2456063 3.29776845,15.1399377 3.3001855,15.0348694 C3.3001855,15.0222612 3.30078976,15.009653 3.30139403,14.9946433" id="Fill-8" fill="#000000"></path>
            <polygon id="Fill-10" fill="#000000" points="10 6 18 6 18 5 10 5"></polygon>
            <polygon id="Fill-12" fill="#000000" points="10 9 18 9 18 8 10 8"></polygon>
            <polygon id="Fill-13" fill="#000000" points="10 12 18 12 18 11 10 11"></polygon>
            <polygon id="Fill-14" fill="#000000" points="10 15 18 15 18 14 10 14"></polygon>
        </g>
    </g>
</svg>