<?xml version="1.0" encoding="UTF-8"?>
<svg width="18px" height="18px" viewBox="0 0 18 18" version="1.1" xmlns="http://www.w3.org/2000/svg" xmlns:xlink="http://www.w3.org/1999/xlink">
    <!-- Generator: Sketch 53 (72520) - https://sketchapp.com -->
    <title>icon-help-light</title>
    <desc>Created with Sketch.</desc>
    <defs>
        <polygon id="path-1" points="0 -6.92307692e-05 17.5581692 -6.92307692e-05 17.5581692 17.5581692 0 17.5581692"></polygon>
    </defs>
    <g id="Page-1" stroke="none" stroke-width="1" fill="none" fill-rule="evenodd">
        <g id="icon-help-light">
            <mask id="mask-2" fill="white">
                <use xlink:href="#path-1"></use>
            </mask>
            <g id="Clip-2"></g>
            <path d="M11.7960923,7.32516923 C11.6029385,7.70870769 11.2650923,8.13447692 10.7832462,8.60178462 L10.1664,9.18886154 C9.78009231,9.55993846 9.55993846,9.99401538 9.50316923,10.4924769 L9.4734,10.9577077 L7.52386154,10.9577077 C7.52386154,10.2460154 7.60970769,9.67901538 7.78278462,9.2574 C7.95516923,8.83578462 8.27086154,8.4204 8.73055385,8.01124615 C9.18955385,7.60209231 9.49624615,7.26909231 9.64786154,7.01224615 C9.80016923,6.7554 9.87701538,6.48470769 9.87701538,6.20016923 C9.87701538,5.34032308 9.48032308,4.91109231 8.68901538,4.91109231 C8.31309231,4.91109231 8.01193846,5.02670769 7.78624615,5.25793846 C7.56055385,5.48986154 7.44216923,5.80901538 7.43178462,6.21609231 L5.22401538,6.21609231 C5.23370769,5.24547692 5.54801538,4.48532308 6.16416923,3.93632308 C6.78101538,3.38801538 7.62286154,3.11386154 8.68901538,3.11386154 C9.76486154,3.11386154 10.5997846,3.37416923 11.1944769,3.89478462 C11.7877846,4.41609231 12.0854769,5.15132308 12.0854769,6.10186154 C12.0854769,6.53316923 11.9885538,6.94163077 11.7960923,7.32516923 M9.43116923,14.1187846 C9.20547692,14.3361692 8.90709231,14.4448615 8.53670769,14.4448615 C8.16563077,14.4448615 7.86724615,14.3361692 7.64155385,14.1187846 C7.41586154,13.9014 7.30301538,13.6251692 7.30301538,13.2914769 C7.30301538,12.9522462 7.41863077,12.6725538 7.64916923,12.4524 C7.8804,12.2322462 8.17601538,12.1221692 8.53670769,12.1221692 C8.8974,12.1221692 9.19232308,12.2322462 9.42355385,12.4524 C9.65478462,12.6725538 9.76970769,12.9522462 9.76970769,13.2914769 C9.76970769,13.6251692 9.65686154,13.9014 9.43116923,14.1187846 M8.77970769,-0.000138461538 C3.93078462,-0.000138461538 -0.000138461538,3.93078462 -0.000138461538,8.77901538 C-0.000138461538,13.6279385 3.93078462,17.5581692 8.77970769,17.5581692 C13.6279385,17.5581692 17.5581692,13.6279385 17.5581692,8.77901538 C17.5581692,3.93078462 13.6279385,-0.000138461538 8.77970769,-0.000138461538" id="Fill-1" fill="#FFFFFF" mask="url(#mask-2)"></path>
        </g>
    </g>
</svg>