<?xml version="1.0" encoding="UTF-8"?>
<svg width="13px" height="18px" viewBox="0 0 13 18" version="1.1" xmlns="http://www.w3.org/2000/svg" xmlns:xlink="http://www.w3.org/1999/xlink">
    <!-- Generator: Sketch 52.6 (67491) - http://www.bohemiancoding.com/sketch -->
    <title>employee-attribute-black</title>
    <desc>Created with Sketch.</desc>
    <g id="Page-1" stroke="none" stroke-width="1" fill="none" fill-rule="evenodd">
        <g id="employee-attribute-black" fill="#000000">
            <path d="M6.25263158,10.4210526 C7.69177895,10.4210526 8.99441053,9.83747368 9.93751579,8.89436842 C10.8795789,7.95230526 11.4631579,6.64967368 11.4631579,5.21052632 C11.4631579,3.77137895 10.8795789,2.46874737 9.93751579,1.52668421 C8.99441053,0.583578947 7.69177895,0 6.25263158,0 C4.81348421,0 3.51085263,0.583578947 2.56774737,1.52668421 C1.62568421,2.46874737 1.04210526,3.77137895 1.04210526,5.21052632 C1.04210526,6.64967368 1.62568421,7.95230526 2.56774737,8.89436842 C3.51085263,9.83747368 4.81348421,10.4210526 6.25263158,10.4210526 Z" id="Path"></path>
            <path d="M6.25263158,17.7157895 C9.91875789,17.7157895 12.5052632,16.6736842 12.5052632,15.6315789 C12.5052632,13.5473684 10.0521474,11.4631579 6.25263158,11.4631579 C2.34473684,11.4631579 0,13.5473684 0,15.6315789 C0,16.6736842 2.34473684,17.7157895 6.25263158,17.7157895 Z" id="Path"></path>
        </g>
    </g>
</svg>