<?xml version="1.0" encoding="UTF-8"?>
<svg width="18px" height="12px" viewBox="0 0 18 12" version="1.1" xmlns="http://www.w3.org/2000/svg" xmlns:xlink="http://www.w3.org/1999/xlink">
    <!-- Generator: Sketch 52.5 (67469) - http://www.bohemiancoding.com/sketch -->
    <title>icon-view</title>
    <desc>Created with Sketch.</desc>
    <g id="Page-1" stroke="none" stroke-width="1" fill="none" fill-rule="evenodd">
        <g id="icon-view" fill="#FFFFFF">
            <path d="M9,2.18181818 C10.6565,2.18181818 12,3.64745455 12,5.45454545 C12,7.26163636 10.6565,8.72727273 9,8.72727273 C7.3435,8.72727273 6,7.26163636 6,5.45454545 C6,3.64745455 7.3435,2.18181818 9,2.18181818" id="Fill-1"></path>
            <path d="M9,10.8 C4.078125,10.8 1.40625,6 1.40625,6 C1.40625,6 4.078125,1.2 9,1.2 C13.921875,1.2 16.59375,6 16.59375,6 C16.59375,6 13.921875,10.8 9,10.8 M9,0 C3.375,0 0,5.9628 0,5.9628 C0,5.9628 3.375,12 9,12 C14.625,12 18,6 18,6 C18,6 14.625,0 9,0" id="Fill-3"></path>
        </g>
    </g>
</svg>