<?xml version="1.0" encoding="UTF-8"?>
<svg width="17px" height="18px" viewBox="0 0 17 18" version="1.1" xmlns="http://www.w3.org/2000/svg" xmlns:xlink="http://www.w3.org/1999/xlink">
    <!-- Generator: Sketch 52.5 (67469) - http://www.bohemiancoding.com/sketch -->
    <title>Group 18</title>
    <desc>Created with Sketch.</desc>
    <defs>
        <polygon id="path-1" points="0 0.0081 4.385475 0.0081 4.385475 4.39362 0 4.39362"></polygon>
        <polygon id="path-3" points="0 0.005265 5.847525 0.005265 5.847525 11.699865 0 11.699865"></polygon>
    </defs>
    <g id="Page-1" stroke="none" stroke-width="1" fill="none" fill-rule="evenodd">
        <g id="ver6-menu" transform="translate(-47.000000, -273.000000)">
            <g id="Group-18" transform="translate(47.000000, 273.000000)">
                <g id="Group-3" transform="translate(0.000000, 0.441945)">
                    <mask id="mask-2" fill="white">
                        <use xlink:href="#path-1"></use>
                    </mask>
                    <g id="Clip-2"></g>
                    <path d="M4.385475,2.20077 C4.385475,3.41172 3.403575,4.39362 2.192625,4.39362 C0.981675,4.39362 -0.000225,3.41172 -0.000225,2.20077 C-0.000225,0.98982 0.981675,0.00792 2.192625,0.00792 C3.403575,0.00792 4.385475,0.98982 4.385475,2.20077" id="Fill-1" fill="#000000" mask="url(#mask-2)"></path>
                </g>
                <path d="M8.770815,7.759035 L3.654315,7.759035 C3.250665,7.759035 2.923515,7.431885 2.923515,7.028235 C2.923515,6.624585 3.250665,6.296985 3.654315,6.296985 L8.770815,6.296985 C9.174465,6.296985 9.502065,6.624585 9.502065,7.028235 C9.502065,7.431885 9.174465,7.759035 8.770815,7.759035" id="Fill-4" fill="#000000"></path>
                <g id="Group-8" transform="translate(0.000000, 6.291945)">
                    <mask id="mask-4" fill="white">
                        <use xlink:href="#path-3"></use>
                    </mask>
                    <g id="Clip-7"></g>
                    <path d="M4.385475,10.944765 C4.385475,11.361465 4.047075,11.699865 3.630375,11.699865 C3.232575,11.699865 2.903175,11.391615 2.876625,10.994265 L2.556675,6.192315 C2.543625,6.001515 2.384775,5.852565 2.192625,5.852565 C2.000475,5.852565 1.842075,6.001515 1.828575,6.193215 L1.508625,10.995165 C1.482075,11.391615 1.152675,11.699865 0.754875,11.699865 C0.338175,11.699865 -0.000225,11.361465 -0.000225,10.944765 L-0.000225,1.466865 C-0.000225,0.659565 0.654075,0.005265 1.461825,0.005265 L5.847525,0.005265 L5.847525,1.466865 L5.116275,1.466865 C4.713075,1.466865 4.385475,1.794465 4.385475,2.198115 L4.385475,10.944765 Z" id="Fill-6" fill="#000000" mask="url(#mask-4)"></path>
                </g>
                <g id="Group-11" transform="translate(5.400000, 1.791945)" fill="#000000">
                    <path d="M9.949185,10.35261 L0.447435,10.35261 L0.447435,8.89056 L9.217935,8.89056 L9.217935,1.58166 L0.447435,1.58166 L0.447435,0.11961 L9.949185,0.11961 C10.352835,0.11961 10.679985,0.44721 10.679985,0.85086 L10.679985,9.62136 C10.679985,10.02546 10.352835,10.35261 9.949185,10.35261" id="Fill-9"></path>
                </g>
                <path d="M9.50184,3.373515 C9.09819,3.373515 8.77104,3.046365 8.77104,2.642715 L8.77104,1.911915 C8.77104,1.507815 9.09819,1.180665 9.50184,1.180665 C9.90549,1.180665 10.23264,1.507815 10.23264,1.911915 L10.23264,2.642715 C10.23264,3.046365 9.90549,3.373515 9.50184,3.373515" id="Fill-12" fill="#000000"></path>
                <path d="M6.57882,17.991945 C6.52032,17.991945 6.46047,17.984745 6.40062,17.969895 C6.00912,17.872245 5.77107,17.475345 5.86917,17.083395 L7.33077,11.236545 C7.42887,10.844595 7.82577,10.606545 8.21727,10.704645 C8.60877,10.802295 8.84727,11.199195 8.74917,11.590695 L7.28712,17.438445 C7.20432,17.770095 6.90642,17.991945 6.57882,17.991945" id="Fill-14" fill="#000000"></path>
                <path d="M12.42486,17.991945 C12.09726,17.991945 11.79936,17.770095 11.71656,17.438445 L10.25451,11.590695 C10.15641,11.199195 10.39491,10.802295 10.78641,10.704645 C11.17791,10.606545 11.57481,10.844595 11.67291,11.236545 L13.13451,17.083395 C13.23216,17.475345 12.99456,17.871795 12.60306,17.969895 C12.54321,17.984745 12.48336,17.991945 12.42486,17.991945" id="Fill-16" fill="#000000"></path>
            </g>
        </g>
    </g>
</svg>