<?xml version="1.0" encoding="UTF-8"?>
<svg width="18px" height="16px" viewBox="0 0 18 16" version="1.1" xmlns="http://www.w3.org/2000/svg" xmlns:xlink="http://www.w3.org/1999/xlink">
    <!-- Generator: Sketch 54.1 (76490) - https://sketchapp.com -->
    <title>icon-view-off</title>
    <desc>Created with Sketch.</desc>
    <g id="Page-1" stroke="none" stroke-width="1" fill="none" fill-rule="evenodd">
        <path d="M9.43337509,4.031091 L6.031091,7.43337509 C6.01060455,7.29186908 6,7.14716983 6,7 C6,5.3435 7.3435,4 9,4 C9.14716983,4 9.29186908,4.01060455 9.43337509,4.031091 Z M11.9974901,7.12383023 L9.12383023,9.99749011 C10.68187,9.93418987 11.9341899,8.68187001 11.9974891,7.12383129 Z M14.1889279,4.93239242 L14.9335525,4.18776781 C16.9089214,5.72194602 18,7.5 18,7.5 C18,7.5 14.625,13 9,13 C8.10695402,13 7.27062137,12.8605079 6.49550405,12.6258163 L7.38409281,11.7372275 C7.89223233,11.8412124 8.43108524,11.9 9,11.9 C13.921875,11.9 16.59375,7.5 16.59375,7.5 C16.59375,7.5 15.767981,6.14013716 14.1889279,4.93239242 Z M10.2653289,3.19913717 C9.86172226,3.13513921 9.43984559,3.1 9,3.1 C4.078125,3.1 1.40625,7.5 1.40625,7.5 C1.40625,7.5 2.15133351,8.72699132 3.57937543,9.88509066 L2.84379493,10.6206712 C1.00925439,9.12080806 5.32907052e-15,7.4659 5.32907052e-15,7.4659 C5.32907052e-15,7.4659 3.375,2 9,2 C9.7708549,2 10.4994544,2.1032911 11.182903,2.2815631 L10.2653289,3.19913717 Z M15.8492424,-5.06261699e-14 L16.5563492,0.707106781 L1.70710678,15.5563492 L1,14.8492424 L15.8492424,-5.06261699e-14 Z" id="icon-view-off" fill="#005EFF"></path>
    </g>
</svg>