<?xml version="1.0" encoding="UTF-8"?>
<svg width="28px" height="26px" viewBox="0 0 28 26" version="1.1" xmlns="http://www.w3.org/2000/svg" xmlns:xlink="http://www.w3.org/1999/xlink">
    <!-- Generator: Sketch 53 (72520) - https://sketchapp.com -->
    <title>icon-client-info-light</title>
    <desc>Created with Sketch.</desc>
    <defs>
        <polygon id="path-1" points="0.7966 0.887 12.4406 0.887 12.4406 16.1779 0.7966 16.1779"></polygon>
        <polygon id="path-3" points="0.000122792418 0.9125 23.311 0.9125 23.311 14 0.000122792418 14"></polygon>
    </defs>
    <g id="Page-1" stroke="none" stroke-width="1" fill="none" fill-rule="evenodd">
        <g id="icon-client-info-light" transform="translate(0.000000, -1.000000)">
            <g id="Group-3" transform="translate(5.000000, 0.113400)">
                <mask id="mask-2" fill="white">
                    <use xlink:href="#path-1"></use>
                </mask>
                <g id="Clip-2"></g>
                <path d="M6.6696,16.1779 C9.8846,16.1779 12.4406,11.5749 12.4406,7.7729 C12.4406,3.9699 9.8346,0.8859 6.6186,0.8859 C3.4036,0.8859 0.7966,3.9699 0.7966,7.7729 C0.7966,11.5759 3.4536,16.1779 6.6696,16.1779" id="Fill-1" fill="#FFFFFF" mask="url(#mask-2)"></path>
            </g>
            <path d="M23.1618,16.4686 C23.0498,16.5756 22.8998,16.6286 22.7148,16.6286 C22.5288,16.6286 22.3798,16.5756 22.2668,16.4686 C22.1538,16.3626 22.0978,16.2246 22.0978,16.0576 C22.0978,15.8926 22.1528,15.7566 22.2638,15.6496 C22.3738,15.5426 22.5238,15.4896 22.7148,15.4896 C22.9018,15.4896 23.0528,15.5426 23.1638,15.6496 C23.2758,15.7566 23.3318,15.8926 23.3318,16.0576 C23.3318,16.2246 23.2748,16.3626 23.1618,16.4686 L23.1618,16.4686 Z M22.1618,21.2456 L23.2668,21.2456 L23.2668,17.1236 L22.1618,17.1236 L22.1618,21.2456 Z M18.0638,18.5486 C18.0638,21.1166 20.1458,23.1986 22.7148,23.1986 C25.2828,23.1986 27.3648,21.1166 27.3648,18.5486 C27.3648,15.9796 25.2828,13.8976 22.7148,13.8976 C20.1458,13.8976 18.0638,15.9796 18.0638,18.5486 Z" id="Fill-4" fill="#FFFFFF"></path>
            <g id="Group-8" transform="translate(0.000000, 12.113400)">
                <mask id="mask-4" fill="white">
                    <use xlink:href="#path-3"></use>
                </mask>
                <g id="Clip-7"></g>
                <path d="M22.61,12.3005 C19.371,12.3005 16.745,9.6745 16.745,6.4345 C16.745,4.5765 17.611,2.9245 18.959,1.8485 C18.518,1.5095 18.05,1.1885 17.517,0.9125 C16.414,3.4355 14.006,5.5455 11.671,5.5455 C8.819,5.5455 6.749,3.4605 5.644,0.9375 C-0.777,4.2635 0.033,12.6805 0.033,12.6805 C0.033,13.8325 0.94,14.0005 2.007,14.0005 L11.67,14.0005 L21.317,14.0005 C22.385,14.0005 23.297,13.8325 23.297,12.6805 C23.297,12.6805 23.307,12.5225 23.311,12.2545 C23.081,12.2815 22.848,12.3005 22.61,12.3005" id="Fill-6" fill="#FFFFFF" mask="url(#mask-4)"></path>
            </g>
        </g>
    </g>
</svg>