<?xml version="1.0" encoding="UTF-8"?>
<svg width="14px" height="18px" viewBox="0 0 14 18" version="1.1" xmlns="http://www.w3.org/2000/svg" xmlns:xlink="http://www.w3.org/1999/xlink">
    <!-- Generator: Sketch 52.5 (67469) - http://www.bohemiancoding.com/sketch -->
    <title>icon-taxFilingRecord</title>
    <desc>Created with Sketch.</desc>
    <defs>
        <polygon id="path-1" points="0.0267333333 0.470666667 4.346 0.470666667 4.346 4.84246667 0.0267333333 4.84246667"></polygon>
        <polygon id="path-3" points="0 0.470866667 13.6792667 0.470866667 13.6792667 17.3333333 0 17.3333333"></polygon>
    </defs>
    <g id="Page-1" stroke="none" stroke-width="1" fill="none" fill-rule="evenodd">
        <g id="icon-taxFilingRecord">
            <g id="Group-3" transform="translate(9.333333, 0.195867)">
                <mask id="mask-2" fill="white">
                    <use xlink:href="#path-1"></use>
                </mask>
                <g id="Clip-2"></g>
                <path d="M0.7394,4.84246667 L4.34606667,4.84246667 L0.0267333333,0.470466667 L0.0267333333,4.21646667 C0.0267333333,4.56246667 0.350733333,4.84246667 0.7394,4.84246667" id="Fill-1" fill="#000000" mask="url(#mask-2)"></path>
            </g>
            <polygon id="Fill-4" fill="#000000" points="5.8188 11.1822667 6.88546667 11.1822667 6.3488 9.5856"></polygon>
            <g id="Group-8" transform="translate(0.000000, 0.195867)">
                <mask id="mask-4" fill="white">
                    <use xlink:href="#path-3"></use>
                </mask>
                <g id="Clip-7"></g>
                <path d="M11.0766,8.31153333 L12.0872667,8.31153333 L10.8446,10.4268667 L12.1192667,12.5768667 L11.0972667,12.5768667 L10.2772667,11.0828667 L9.4566,12.5768667 L8.43393333,12.5768667 L9.70793333,10.4268667 L8.46593333,8.31153333 L9.47726667,8.31153333 L10.2772667,9.7822 L11.0766,8.31153333 Z M7.41793333,12.5768667 L7.12193333,11.6982 L5.58126667,11.6982 L5.28793333,12.5768667 L4.35393333,12.5768667 L5.94126667,8.31153333 L6.7566,8.31153333 L8.3526,12.5768667 L7.41793333,12.5768667 Z M3.25726667,12.5768667 L2.3786,12.5768667 L2.3786,9.02353333 L1.08993333,9.02353333 L1.08993333,8.31153333 L4.56393333,8.31153333 L4.56393333,9.02353333 L3.25726667,9.02353333 L3.25726667,12.5768667 Z M8.63993333,4.21886667 L8.63993333,0.470866667 L1.44593333,0.470866667 C0.647266667,0.470866667 -6.66666667e-05,1.0322 -6.66666667e-05,1.7242 L-6.66666667e-05,16.0795333 C-6.66666667e-05,16.7722 0.641933333,17.3335333 1.43793333,17.3335333 L12.2412667,17.3335333 C13.0352667,17.3335333 13.6792667,16.7768667 13.6792667,16.0862 L13.6792667,5.46686667 L10.0839333,5.46686667 C9.28593333,5.46686667 8.63993333,4.91353333 8.63993333,4.21886667 Z" id="Fill-6" fill="#000000" mask="url(#mask-4)"></path>
            </g>
        </g>
    </g>
</svg>