<?xml version="1.0" encoding="UTF-8"?>
<svg width="18px" height="18px" viewBox="0 0 18 18" version="1.1" xmlns="http://www.w3.org/2000/svg" xmlns:xlink="http://www.w3.org/1999/xlink">
    <!-- Generator: Sketch 52.6 (67491) - http://www.bohemiancoding.com/sketch -->
    <title>dashboard-icon-white</title>
    <desc>Created with Sketch.</desc>
    <g id="Page-1" stroke="none" stroke-width="1" fill="none" fill-rule="evenodd">
        <g id="dashboard-icon-white" fill="#FFFFFF">
            <path d="M8.88313846,6.92307692e-05 C3.97744615,6.92307692e-05 0.000138461538,3.97737692 0.000138461538,8.88306923 C0.000138461538,13.7887615 3.97744615,17.7667615 8.88313846,17.7667615 C13.7888308,17.7667615 17.7668308,13.7887615 17.7668308,8.88306923 C17.7668308,3.97737692 13.7888308,6.92307692e-05 8.88313846,6.92307692e-05 M8.88313846,1.48022308 C9.2916,1.48022308 9.62321538,1.81253077 9.62321538,2.22099231 C9.62321538,2.62945385 9.2916,2.96106923 8.88313846,2.96106923 C8.47467692,2.96106923 8.14306154,2.62945385 8.14306154,2.22099231 C8.14306154,1.81253077 8.47467692,1.48022308 8.88313846,1.48022308 M2.22036923,9.62314615 C1.8126,9.62314615 1.48029231,9.29153077 1.48029231,8.88306923 C1.48029231,8.47460769 1.8126,8.14299231 2.22036923,8.14299231 C2.62952308,8.14299231 2.96113846,8.47460769 2.96113846,8.88306923 C2.96113846,9.29153077 2.62952308,9.62314615 2.22036923,9.62314615 M4.69536923,14.1176077 C4.40598462,14.4069923 3.93729231,14.4069923 3.6486,14.1176077 C3.35921538,13.8282231 3.35921538,13.3595308 3.6486,13.0708385 C3.93798462,12.7814538 4.40667692,12.7814538 4.69536923,13.0708385 C4.98475385,13.3595308 4.98475385,13.8289154 4.69536923,14.1176077 M4.69536923,4.6953 C4.40598462,4.98468462 3.93729231,4.98468462 3.6486,4.6953 C3.35921538,4.40591538 3.35921538,3.93722308 3.6486,3.64922308 C3.93798462,3.35914615 4.40667692,3.35914615 4.69536923,3.64922308 C4.98475385,3.93722308 4.98475385,4.40660769 4.69536923,4.6953 M7.83636923,9.92983846 C7.25829231,9.35176154 7.25829231,8.41437692 7.83636923,7.8363 C8.19983077,7.47283846 11.1504462,5.34953077 13.2938308,3.82091538 C13.7237538,3.51422308 14.2533692,4.04314615 13.9459846,4.47237692 C12.4173692,6.61576154 10.2933692,9.56637692 9.92990769,9.92983846 C9.35183077,10.5079154 8.41444615,10.5079154 7.83636923,9.92983846 M14.1176769,14.1176077 C13.8282923,14.4069923 13.3596,14.4069923 13.0709077,14.1176077 C12.7822154,13.8282231 12.7815231,13.3595308 13.0709077,13.0708385 C13.3602923,12.7814538 13.8289846,12.7814538 14.1176769,13.0708385 C14.4070615,13.3595308 14.4070615,13.8289154 14.1176769,14.1176077 M15.5459077,9.62314615 C15.1367538,9.62314615 14.8051385,9.29153077 14.8051385,8.88306923 C14.8051385,8.47460769 15.1367538,8.14299231 15.5459077,8.14299231 C15.9543692,8.14299231 16.2859846,8.47460769 16.2859846,8.88306923 C16.2859846,9.29153077 15.9543692,9.62314615 15.5459077,9.62314615" id="Fill-1"></path>
        </g>
    </g>
</svg>