<?xml version="1.0" encoding="UTF-8"?>
<svg width="18px" height="18px" viewBox="0 0 18 18" version="1.1" xmlns="http://www.w3.org/2000/svg" xmlns:xlink="http://www.w3.org/1999/xlink">
    <!-- Generator: Sketch 54.1 (76490) - https://sketchapp.com -->
    <title>icion-save-blue</title>
    <desc>Created with Sketch.</desc>
    <defs>
        <polygon id="path-1" points="0.000135849057 0.000169811321 17.9500755 0.000169811321 17.9500755 17.9502453 0.000135849057 17.9502453"></polygon>
    </defs>
    <g id="Page-1" stroke="none" stroke-width="1" fill="none" fill-rule="evenodd">
        <g id="icion-save-blue">
            <mask id="mask-2" fill="white">
                <use xlink:href="#path-1"></use>
            </mask>
            <g id="Clip-2"></g>
            <path d="M13.9613434,-7.10542736e-15 L1.9944,-7.10542736e-15 C0.897418868,-7.10542736e-15 0.000135849057,0.897622642 0.000135849057,1.99460377 L0.000135849057,15.9554717 C0.000135849057,17.0527925 0.897418868,17.9504151 1.9944,17.9504151 L15.9559472,17.9504151 C17.0529283,17.9504151 17.9502113,17.0527925 17.9502113,15.9554717 L17.9502113,3.98886792 L13.9613434,-7.10542736e-15 Z M8.97500377,15.9554717 C7.27994717,15.9554717 5.98326792,14.6594717 5.98326792,12.9640755 C5.98326792,11.2690189 7.27994717,9.97233962 8.97500377,9.97233962 C10.6704,9.97233962 11.9667396,11.2690189 11.9667396,12.9640755 C11.9667396,14.6594717 10.6704,15.9554717 8.97500377,15.9554717 L8.97500377,15.9554717 Z M1.9944,5.9834717 L11.9667396,5.9834717 L11.9667396,1.99460377 L1.9944,1.99460377 L1.9944,5.9834717 Z" id="Fill-1" fill="#005EFF" mask="url(#mask-2)"></path>
        </g>
    </g>
</svg>