<?xml version="1.0" encoding="UTF-8"?>
<svg width="17px" height="18px" viewBox="0 0 17 18" version="1.1" xmlns="http://www.w3.org/2000/svg" xmlns:xlink="http://www.w3.org/1999/xlink">
    <!-- Generator: Sketch 52.5 (67469) - http://www.bohemiancoding.com/sketch -->
    <title>icon-beneficiaries</title>
    <desc>Created with Sketch.</desc>
    <defs>
        <polygon id="path-1" points="0 0.103223077 12.638208 0.103223077 12.638208 6.23076923 0 6.23076923"></polygon>
        <polygon id="path-3" points="0.025228 0.587492308 4.78108 0.587492308 4.78108 9.91703077 0.025228 9.91703077"></polygon>
    </defs>
    <g id="Page-1" stroke="none" stroke-width="1" fill="none" fill-rule="evenodd">
        <g id="icon-beneficiaries">
            <path d="M6.318968,10.2123 C7.774168,10.2123 9.089968,9.64045385 10.043328,8.71622308 C10.995328,7.79268462 11.584888,6.51676154 11.584888,5.10653077 C11.584888,3.69560769 10.995328,2.41968462 10.043328,1.49614615 C9.089968,0.571915385 7.774168,6.92307692e-05 6.318968,6.92307692e-05 C4.864448,6.92307692e-05 3.548648,0.571915385 2.594608,1.49614615 C1.642608,2.41968462 1.053048,3.69560769 1.053048,5.10653077 C1.053048,6.51676154 1.642608,7.79268462 2.594608,8.71622308 C3.548648,9.64045385 4.864448,10.2123 6.318968,10.2123" id="Fill-1" fill="#000000"></path>
            <g id="Group-5" transform="translate(0.000000, 11.130300)">
                <mask id="mask-2" fill="white">
                    <use xlink:href="#path-1"></use>
                </mask>
                <g id="Clip-4"></g>
                <path d="M6.318968,0.103223077 C2.369528,0.103223077 -0.000272,2.14553077 -0.000272,4.18853077 C-0.000272,5.20968462 2.369528,6.23083846 6.318968,6.23083846 C10.024288,6.23083846 12.638208,5.20968462 12.638208,4.18853077 C12.638208,2.14553077 10.158928,0.103223077 6.318968,0.103223077" id="Fill-3" fill="#000000" mask="url(#mask-2)"></path>
            </g>
            <g id="Group-8" transform="translate(11.560000, 3.514915)">
                <mask id="mask-4" fill="white">
                    <use xlink:href="#path-3"></use>
                </mask>
                <g id="Clip-7"></g>
                <path d="M3.388508,6.98372308 C3.388508,6.7158 3.315748,6.50256923 3.169548,6.34403077 C3.023348,6.1848 2.775148,6.03872308 2.424948,5.90441538 C2.074068,5.7708 1.772828,5.63718462 1.519188,5.50495385 C1.264868,5.37203077 1.047948,5.22041538 0.865708,5.04872308 C0.684148,4.87703077 0.542708,4.67487692 0.442068,4.44295385 C0.341428,4.21103077 0.289748,3.93410769 0.289748,3.61356923 C0.289748,3.06110769 0.463828,2.60833846 0.810628,2.25456923 C1.157428,1.90218462 1.618468,1.69587692 2.193068,1.63703077 L2.193068,0.587492308 L2.964188,0.587492308 L2.964188,1.65156923 C3.532668,1.73326154 3.977388,1.97487692 4.299028,2.37503077 C4.620668,2.77587692 4.781148,3.29510769 4.781148,3.93272308 L3.388508,3.93272308 C3.388508,3.54018462 3.308948,3.24664615 3.149828,3.05210769 C2.990708,2.85756923 2.778548,2.75995385 2.511308,2.75995385 C2.248148,2.75995385 2.043468,2.83610769 1.899988,2.98841538 C1.755148,3.14072308 1.682388,3.35049231 1.682388,3.61910769 C1.682388,3.86764615 1.753788,4.06703077 1.895228,4.21726154 C2.035988,4.36749231 2.298468,4.52118462 2.682668,4.67833846 C3.066188,4.8348 3.381708,4.98295385 3.629228,5.12210769 C3.876748,5.26126154 4.084828,5.41841538 4.255508,5.59287692 C4.425508,5.76803077 4.556068,5.96741538 4.646508,6.19172308 C4.735588,6.41533846 4.781148,6.67633846 4.781148,6.97403077 C4.781148,7.52995385 4.610468,7.98133846 4.270468,8.32749231 C3.929788,8.67433846 3.460588,8.87926154 2.863548,8.94087692 L2.863548,9.91703077 L2.097188,9.91703077 L2.097188,8.94572308 C1.438948,8.87372308 0.928948,8.63626154 0.567868,8.23264615 C0.205428,7.82833846 0.025228,7.29110769 0.025228,6.62095385 L1.417868,6.62095385 C1.417868,7.01003077 1.508308,7.30841538 1.689868,7.51610769 C1.872108,7.7238 2.132548,7.82764615 2.472548,7.82764615 C2.755428,7.82764615 2.978468,7.75149231 3.143028,7.59987692 C3.306228,7.44756923 3.388508,7.24264615 3.388508,6.98372308" id="Fill-6" fill="#000000" mask="url(#mask-4)"></path>
            </g>
        </g>
    </g>
</svg>