<?xml version="1.0" encoding="UTF-8"?>
<svg width="18px" height="18px" viewBox="0 0 18 18" version="1.1" xmlns="http://www.w3.org/2000/svg" xmlns:xlink="http://www.w3.org/1999/xlink">
    <!-- Generator: Sketch 53.2 (72643) - https://sketchapp.com -->
    <title>icon-pay-rate-change-dark</title>
    <desc>Created with Sketch.</desc>
    <defs>
        <polygon id="path-1" points="0 0 18 0 18 18 0 18"></polygon>
    </defs>
    <g id="Page-1" stroke="none" stroke-width="1" fill="none" fill-rule="evenodd">
        <g id="icon-pay-rate-change-dark">
            <mask id="mask-2" fill="white">
                <use xlink:href="#path-1"></use>
            </mask>
            <g id="Clip-2"></g>
            <path d="M9.0402304,17.9999099 C5.81531815,18.0143097 2.82944829,16.3021669 1.21231212,13.5114748 C-0.404104041,10.7207828 -0.404104041,7.27849724 1.21231212,4.48780518 C2.82944829,1.69783312 5.81531815,-0.0143097345 9.0402304,9.01212601e-05 C13.99532,0.0224098978 18,4.04500962 18,9 C18,13.9549904 13.99532,17.9775901 9.0402304,17.9999099 L9.0402304,17.9999099 Z M9.9402394,13.4999549 L10.8402484,13.4999549 C12.3270633,13.493475 13.5280353,12.2860471 13.5280353,10.799982 C13.5280353,9.31319686 12.3270633,8.10648895 10.8402484,8.10000901 L7.23157232,8.10000901 C6.73620736,8.09784903 6.33516335,7.69537306 6.33516335,7.20001802 C6.33516335,6.70466298 6.73620736,6.30218701 7.23157232,6.30002704 L12.6402664,6.30002704 L12.6402664,4.50004506 L9.9402394,4.50004506 L9.9402394,2.70006308 L8.1402214,2.70006308 L8.1402214,4.50004506 L7.2402124,4.50004506 C6.27252273,4.4957251 5.37683377,5.00907996 4.89226892,5.84643158 C4.40698407,6.68378319 4.40698407,7.71625285 4.89226892,8.55360447 C5.37683377,9.39023609 6.27252273,9.90431094 7.2402124,9.89999099 L10.8402484,9.89999099 C11.1628116,9.898551 11.4616146,10.0699093 11.6236162,10.3485465 C11.7856179,10.6279037 11.7856179,10.9720603 11.6236162,11.2506975 C11.4616146,11.5300547 11.1628116,11.7014129 10.8402484,11.699973 L5.4401944,11.699973 L5.4401944,13.4999549 L8.1402214,13.4999549 L8.1402214,15.2999369 L9.9402394,15.2999369 L9.9402394,13.4999549 Z" id="Fill-1" fill="#000000" mask="url(#mask-2)"></path>
        </g>
    </g>
</svg>