<?xml version="1.0" encoding="UTF-8"?>
<svg width="17px" height="18px" viewBox="0 0 17 18" version="1.1" xmlns="http://www.w3.org/2000/svg" xmlns:xlink="http://www.w3.org/1999/xlink">
    <!-- Generator: Sketch 53 (72520) - https://sketchapp.com -->
    <title>icon-change-password-dark</title>
    <desc>Created with Sketch.</desc>
    <defs>
        <polygon id="path-1" points="0 0.0193846154 16.3387708 0.0193846154 16.3387708 17.307372 0 17.307372"></polygon>
    </defs>
    <g id="Page-1" stroke="none" stroke-width="1" fill="none" fill-rule="evenodd">
        <g id="icon-change-password-dark">
            <g id="Group-3" transform="translate(0.000000, 0.672715)">
                <mask id="mask-2" fill="white">
                    <use xlink:href="#path-1"></use>
                </mask>
                <g id="Clip-2"></g>
                <path d="M13.4452292,3.22816154 C13.4296458,3.21223846 13.4048542,3.21223846 13.3850208,3.22400769 L11.5908125,4.23477692 C11.5582292,4.25416154 11.5539792,4.29777692 11.5865625,4.32131538 C13.2362708,5.39923846 14.3228542,7.23939231 14.3228542,9.32808462 C14.3228542,12.6241615 11.6106458,15.3020077 8.24677083,15.3456231 C4.82197917,15.3885462 1.98085417,12.6283154 2.0091875,9.27685385 C2.03397917,6.27223846 4.3105625,3.79446923 7.2728125,3.37354615 C7.5660625,3.33408462 7.86427083,3.31054615 8.16602083,3.31054615 C8.28289583,3.31054615 8.39552083,3.3147 8.5116875,3.31816154 C8.54002083,3.31816154 8.5605625,3.34239231 8.5605625,3.37008462 L8.5605625,4.40439231 C8.5605625,4.44316154 8.60447917,4.46739231 8.6370625,4.44731538 L10.1139375,3.61377692 L12.2502708,2.40639231 L12.4762292,2.28039231 C12.5123542,2.26100769 12.5123542,2.21323846 12.4762292,2.19385385 L8.6370625,0.0262384615 C8.60022917,0.00685384615 8.5605625,0.0303923077 8.5605625,0.0698538462 L8.5605625,1.29662308 C8.5605625,1.32431538 8.53577083,1.34785385 8.50814583,1.34785385 C8.39552083,1.34439231 8.28289583,1.34023846 8.17027083,1.34023846 C7.86852083,1.34023846 7.5703125,1.35616154 7.2770625,1.38731538 C2.67360417,1.8747 -0.783770833,6.10677692 0.1540625,10.9010077 C0.7660625,14.0316231 3.2650625,16.5059308 6.46035417,17.1387 C11.7190208,18.1771615 16.3387708,14.2794692 16.3387708,9.32393077 C16.3387708,6.87800769 15.2160625,4.69100769 13.4452292,3.22816154" id="Fill-1" fill="#010202" mask="url(#mask-2)"></path>
            </g>
            <path d="M10.5669875,13.9079077 L5.11919583,13.9079077 C4.74307083,13.9079077 4.4384875,13.6095231 4.4384875,13.2419077 L4.4384875,9.90913846 C4.4384875,9.54152308 4.74307083,9.24244615 5.11919583,9.24244615 L5.45919583,9.24244615 L5.45919583,8.24344615 C5.45919583,6.95506154 6.52665417,5.91106154 7.8427375,5.91106154 C9.15952917,5.91106154 10.2269875,6.95506154 10.2269875,8.24344615 L10.2269875,9.24244615 L10.5669875,9.24244615 C10.9424042,9.24244615 11.2476958,9.54083077 11.2476958,9.90913846 L11.2476958,13.2419077 C11.2476958,13.6088308 10.9424042,13.9079077 10.5669875,13.9079077 L10.5669875,13.9079077 Z M9.2048625,8.24344615 C9.2048625,7.50683077 8.5949875,6.91075385 7.8427375,6.91075385 C7.09119583,6.91075385 6.4806125,7.50683077 6.4806125,8.24344615 L6.4806125,9.24244615 L9.2048625,9.24244615 L9.2048625,8.24344615 Z" id="Fill-4" fill="#010202"></path>
        </g>
    </g>
</svg>