<?xml version="1.0" encoding="UTF-8"?>
<svg width="22px" height="22px" viewBox="0 0 22 22" version="1.1" xmlns="http://www.w3.org/2000/svg" xmlns:xlink="http://www.w3.org/1999/xlink">
    <!-- Generator: Sketch 53.1 (72631) - https://sketchapp.com -->
    <title>icon-roles-users-light</title>
    <desc>Created with Sketch.</desc>
    <defs>
        <polygon id="path-1" points="0 0.126415385 14.9783615 0.126415385 14.9783615 7.61538462 0 7.61538462"></polygon>
    </defs>
    <g id="Symbols" stroke="none" stroke-width="1" fill="none" fill-rule="evenodd">
        <g id="icon-roles-users-light">
            <path d="M7.48905385,12.4819538 C9.21266923,12.4819538 10.7729769,11.7830308 11.9025923,10.6534154 C13.0313615,9.52464615 13.7302846,7.96518462 13.7302846,6.24072308 C13.7302846,4.51710769 13.0313615,2.9568 11.9025923,1.82887692 C10.7729769,0.699261538 9.21266923,0.000338461538 7.48905385,0.000338461538 C5.76543846,0.000338461538 4.20513077,0.699261538 3.07551538,1.82887692 C1.94674615,2.9568 1.24782308,4.51710769 1.24782308,6.24072308 C1.24782308,7.96518462 1.94674615,9.52464615 3.07551538,10.6534154 C4.20513077,11.7830308 5.76543846,12.4819538 7.48905385,12.4819538" id="Fill-1" fill="#FFFFFF"></path>
            <g id="Group-5" transform="translate(0.000000, 13.603700)">
                <mask id="mask-2" fill="white">
                    <use xlink:href="#path-1"></use>
                </mask>
                <g id="Clip-4"></g>
                <path d="M7.48905385,0.126415385 C2.80897692,0.126415385 -0.000253846154,2.62256923 -0.000253846154,5.11872308 C-0.000253846154,6.3668 2.80897692,7.61572308 7.48905385,7.61572308 C11.8797462,7.61572308 14.9783615,6.3668 14.9783615,5.11872308 C14.9783615,2.62256923 12.0396692,0.126415385 7.48905385,0.126415385" id="Fill-3" fill="#FFFFFF" mask="url(#mask-2)"></path>
            </g>
            <path d="M11.7503692,12.6046462 C11.4068308,12.9481846 11.4068308,13.5074923 11.7503692,13.8510308 C12.0939077,14.1954154 12.6532154,14.1954154 12.9950615,13.8510308 L13.2438308,13.6056462 L14.2795231,14.6413385 C14.4572154,14.8190308 14.7415231,14.8190308 14.9183692,14.6413385 L16.4634462,13.0971077 C16.6402923,12.9194154 16.6402923,12.6359538 16.4634462,12.4582615 L15.4277538,11.4217231 L17.2732154,9.57372308 C17.6683692,9.77764615 18.1176769,9.89272308 18.5932154,9.89272308 C20.1865231,9.89272308 21.4777538,8.60233846 21.4777538,7.00818462 C21.4777538,5.41487692 20.1865231,4.12449231 18.5932154,4.12449231 C16.9999077,4.12449231 15.7095231,5.41487692 15.7095231,7.00818462 C15.7095231,7.48372308 15.8237538,7.93387692 16.0285231,8.32903077 L11.7503692,12.6046462 Z M17.4839077,7.00818462 C17.4839077,6.39641538 17.9806,5.89887692 18.5932154,5.89887692 C19.2058308,5.89887692 19.7025231,6.39641538 19.7025231,7.00818462 C19.7025231,7.6208 19.2058308,8.11749231 18.5932154,8.11749231 C17.9806,8.11749231 17.4839077,7.6208 17.4839077,7.00818462 L17.4839077,7.00818462 Z" id="Fill-6" fill="#FFFFFF"></path>
        </g>
    </g>
</svg>