<?xml version="1.0" encoding="UTF-8"?>
<svg width="15px" height="18px" viewBox="0 0 15 18" version="1.1" xmlns="http://www.w3.org/2000/svg" xmlns:xlink="http://www.w3.org/1999/xlink">
    <!-- Generator: Sketch 53.2 (72643) - https://sketchapp.com -->
    <title>icon-delete-blue</title>
    <desc>Created with Sketch.</desc>
    <defs>
        <polygon id="path-1" points="0.0179181492 0.0288697861 11.4225993 0.0288697861 11.4225993 12.2727273 0.0179181492 12.2727273"></polygon>
        <polygon id="path-3" points="1.034703e-05 0.00506131078 14.7157634 0.00506131078 14.7157634 4.87608964 1.034703e-05 4.87608964"></polygon>
    </defs>
    <g id="Page-1" stroke="none" stroke-width="1" fill="none" fill-rule="evenodd">
        <g id="icon-delete-blue">
            <g id="Group-3" transform="translate(1.636364, 5.727273)">
                <mask id="mask-2" fill="white">
                    <use xlink:href="#path-1"></use>
                </mask>
                <g id="Clip-2"></g>
                <path d="M10.7588943,0.0288697861 L0.752312112,0.0288697861 C0.317243323,0.0288697861 -0.0453253305,0.413908556 0.0272087942,0.875940642 L1.1873809,10.9636171 C1.25988104,11.7336947 1.91248422,12.2727561 2.63758754,12.2727561 L8.80105071,12.2727561 C9.52618802,12.2727561 10.1788252,11.7336947 10.2512913,10.9636171 L11.4114974,0.875940642 C11.4839976,0.413908556 11.193963,0.0288697861 10.7588943,0.0288697861" id="Fill-1" fill="#005EFF" mask="url(#mask-2)"></path>
            </g>
            <g id="Group-6">
                <mask id="mask-4" fill="white">
                    <use xlink:href="#path-3"></use>
                </mask>
                <g id="Clip-5"></g>
                <path d="M13.2442088,1.62874503 L9.56525327,1.62874503 C9.56525327,0.735747146 8.90304335,0.00505369979 8.09366417,0.00505369979 L6.62207507,0.00505369979 C5.81273038,0.00505369979 5.15052046,0.735747146 5.15052046,1.62874503 L1.47159945,1.62874503 C0.662220268,1.62874503 1.034703e-05,2.35940042 1.034703e-05,3.25243636 L1.034703e-05,4.064263 C1.034703e-05,4.5513666 0.294314371,4.87608964 0.735787652,4.87608964 L13.9799861,4.87608964 C14.4214594,4.87608964 14.7157634,4.5513666 14.7157634,4.064263 L14.7157634,3.25243636 C14.7157634,2.35940042 14.0535879,1.62874503 13.2442088,1.62874503" id="Fill-4" fill="#005EFF" mask="url(#mask-4)"></path>
            </g>
        </g>
    </g>
</svg>