<?xml version="1.0" encoding="UTF-8"?>
<svg width="15px" height="16px" viewBox="0 0 15 16" version="1.1" xmlns="http://www.w3.org/2000/svg" xmlns:xlink="http://www.w3.org/1999/xlink">
    <!-- Generator: Sketch 54.1 (76490) - https://sketchapp.com -->
    <title>iocn-calendar-green</title>
    <desc>Created with Sketch.</desc>
    <defs>
        <polygon id="path-1" points="0 0.000184615385 14.0283077 0.000184615385 14.0283077 15.5872615 0 15.5872615"></polygon>
    </defs>
    <g id="Payroll-ver2" stroke="none" stroke-width="1" fill="none" fill-rule="evenodd">
        <g id="payroll-hourly-pay-run-details" transform="translate(-256.000000, -117.000000)">
            <g id="iocn-calendar-green" transform="translate(256.000000, 117.000000)">
                <mask id="mask-2" fill="white">
                    <use xlink:href="#path-1"></use>
                </mask>
                <g id="Clip-2"></g>
                <path d="M-0.000184615385,3.11741538 C-0.000184615385,2.26018462 0.701353846,1.55864615 1.55858462,1.55864615 L12.4699692,1.55864615 C13.3308923,1.55864615 14.0287385,2.25649231 14.0287385,3.11741538 L14.0287385,14.0281846 C14.0287385,14.8891077 13.3308923,15.5875692 12.4699692,15.5875692 L1.55858462,15.5875692 C0.698276923,15.5875692 -0.000184615385,14.8891077 -0.000184615385,14.0281846 L-0.000184615385,3.11741538 Z M1.55858462,14.0281846 L12.4693538,14.0281846 L12.4693538,4.67618462 L1.55858462,4.67618462 L1.55858462,14.0281846 Z M3.11735385,1.55864615 L4.67550769,1.55864615 L4.67550769,-0.000123076923 L3.11735385,-0.000123076923 L3.11735385,1.55864615 Z M9.35243077,1.55864615 L10.9105846,1.55864615 L10.9105846,-0.000123076923 L9.35243077,-0.000123076923 L9.35243077,1.55864615 Z M3.11735385,8.57341538 L4.67550769,8.57341538 L4.67550769,7.01464615 L3.11735385,7.01464615 L3.11735385,8.57341538 Z M3.11735385,11.6903385 L4.67550769,11.6903385 L4.67550769,10.1315692 L3.11735385,10.1315692 L3.11735385,11.6903385 Z M6.23489231,8.57341538 L7.79366154,8.57341538 L7.79366154,7.01464615 L6.23489231,7.01464615 L6.23489231,8.57341538 Z M6.23489231,11.6903385 L7.79366154,11.6903385 L7.79366154,10.1315692 L6.23489231,10.1315692 L6.23489231,11.6903385 Z M9.35243077,8.57341538 L10.9105846,8.57341538 L10.9105846,7.01464615 L9.35243077,7.01464615 L9.35243077,8.57341538 Z M9.35243077,11.6903385 L10.9105846,11.6903385 L10.9105846,10.1315692 L9.35243077,10.1315692 L9.35243077,11.6903385 Z" id="Fill-1" fill="#1BB9A2" mask="url(#mask-2)"></path>
            </g>
        </g>
    </g>
</svg>