<?xml version="1.0" encoding="UTF-8"?>
<svg width="18px" height="14px" viewBox="0 0 18 14" version="1.1" xmlns="http://www.w3.org/2000/svg" xmlns:xlink="http://www.w3.org/1999/xlink">
    <!-- Generator: Sketch 52.5 (67469) - http://www.bohemiancoding.com/sketch -->
    <title>icon-departmentCodes</title>
    <desc>Created with Sketch.</desc>
    <defs>
        <polygon id="path-1" points="0 0 18 0 18 14 0 14"></polygon>
    </defs>
    <g id="Page-1" stroke="none" stroke-width="1" fill="none" fill-rule="evenodd">
        <g id="icon-departmentCodes">
            <mask id="mask-2" fill="white">
                <use xlink:href="#path-1"></use>
            </mask>
            <g id="Clip-2"></g>
            <path d="M16.0441979,9.26377237 L16.0441979,6.66680128 C16.0441979,6.39258375 15.8151162,6.17053694 15.5328027,6.17053694 L9.51152765,6.17053694 L9.51152765,4.72697568 L11.6871423,4.72697568 C11.9697206,4.72697568 12.1985375,4.50441487 12.1985375,4.23045434 L12.1985375,0.496264341 C12.1985375,0.22204681 11.9697206,0 11.6871423,0 L6.26571719,0 C5.98313888,0 5.75432195,0.22204681 5.75432195,0.496264341 L5.75432195,4.23045434 C5.75432195,4.50441487 5.98313888,4.72697568 6.26571719,4.72697568 L8.48847235,4.72697568 L8.48847235,6.17053694 L2.46693248,6.17053694 C2.18408934,6.17053694 1.95527241,6.39258375 1.95527241,6.66680128 L1.95527241,9.26377237 C0.839789898,9.49275815 0,10.455218 0,11.6055438 C0,12.9260028 1.10621331,14 2.46613798,14 C3.82738682,14 4.93465947,12.9260028 4.93465947,11.6055438 C4.93465947,10.455732 4.0943399,9.49327214 2.97859255,9.26377237 L2.97859255,7.16357962 L8.48847235,7.16357962 L8.48847235,9.2586324 C7.36107229,9.47913722 6.50936484,10.447251 6.50936484,11.6055438 C6.50936484,12.9260028 7.61610782,14 8.97603249,14 C10.3367517,14 11.4432298,12.9260028 11.4432298,11.6055438 C11.4432298,10.4636989 10.6150926,9.50792106 9.51152765,9.26968334 L9.51152765,7.16357962 L15.0208778,7.16357962 L15.0208778,9.26377237 C13.9053953,9.49301514 13.0653405,10.455475 13.0653405,11.6055438 C13.0653405,12.9260028 14.1720835,14 15.532273,14 C16.8929922,14 18,12.9260028 18,11.6055438 C18,10.455475 17.1599453,9.49327214 16.0441979,9.26377237" id="Fill-1" fill="#090909" mask="url(#mask-2)"></path>
        </g>
    </g>
</svg>