<?xml version="1.0" encoding="UTF-8"?>
<svg width="22px" height="22px" viewBox="0 0 22 22" version="1.1" xmlns="http://www.w3.org/2000/svg" xmlns:xlink="http://www.w3.org/1999/xlink">
    <!-- Generator: Sketch 52.5 (67469) - http://www.bohemiancoding.com/sketch -->
    <title>pay-icon</title>
    <desc>Created with Sketch.</desc>
    <defs>
        <polygon id="path-1" points="0.000296153846 0 21.8524308 0 21.8524308 21.8525438 0.000296153846 21.8525438"></polygon>
    </defs>
    <g id="Symbols" stroke="none" stroke-width="1" fill="none" fill-rule="evenodd">
        <g id="menu-bar" transform="translate(-16.000000, -311.000000)">
            <g id="pay-icon" transform="translate(16.000000, 311.000000)">
                <mask id="mask-2" fill="white">
                    <use xlink:href="#path-1"></use>
                </mask>
                <g id="Clip-2"></g>
                <path d="M10.9751231,21.8524308 C7.05996923,21.8702 3.43504615,19.7912 1.47196923,16.4040462 C-0.490261538,13.0160462 -0.490261538,8.83689231 1.47196923,5.44889231 C3.43504615,2.06089231 7.05996923,-0.0172615385 10.9751231,-0.000338461538 C16.9904308,0.0267384615 21.8524308,4.91073846 21.8524308,10.9260462 C21.8524308,16.9413538 16.9904308,21.8253538 10.9751231,21.8524308 Z M12.0683538,16.3896615 L13.1607385,16.3896615 C14.9647385,16.3812 16.4235077,14.9165077 16.4235077,13.1116615 C16.4235077,11.3068154 14.9647385,9.84212308 13.1607385,9.83366154 L8.77935385,9.83366154 C8.17773846,9.83112308 7.6912,9.34289231 7.6912,8.74127692 C7.6912,8.13966154 8.17773846,7.65143077 8.77935385,7.64804615 L15.3463538,7.64804615 L15.3463538,5.46327692 L12.0683538,5.46327692 L12.0683538,3.27766154 L9.88273846,3.27766154 L9.88273846,5.46327692 L8.78950769,5.46327692 C7.61504615,5.4582 6.52773846,6.08181538 5.93881538,7.09804615 C5.35073846,8.11427692 5.35073846,9.36827692 5.93881538,10.3845077 C6.52773846,11.4007385 7.61504615,12.0243538 8.78950769,12.0184308 L13.1607385,12.0184308 C13.5516615,12.0167385 13.9146615,12.2248923 14.1109692,12.5633538 C14.3072769,12.9026615 14.3072769,13.3206615 14.1109692,13.6591231 C13.9146615,13.9984308 13.5516615,14.2057385 13.1607385,14.2040462 L6.60473846,14.2040462 L6.60473846,16.3896615 L9.88273846,16.3896615 L9.88273846,18.5744308 L12.0683538,18.5744308 L12.0683538,16.3896615 Z" id="Fill-1" fill="#000000" mask="url(#mask-2)"></path>
            </g>
        </g>
    </g>
</svg>