<?xml version="1.0" encoding="UTF-8"?>
<svg width="18px" height="16px" viewBox="0 0 18 16" version="1.1" xmlns="http://www.w3.org/2000/svg" xmlns:xlink="http://www.w3.org/1999/xlink">
    <!-- Generator: Sketch 52.5 (67469) - http://www.bohemiancoding.com/sketch -->
    <title>icon-project-code</title>
    <desc>Created with Sketch.</desc>
    <defs>
        <polygon id="path-1" points="0.0967163435 0.420210526 16.0146499 0.420210526 16.0146499 4.10526316 0.0967163435 4.10526316"></polygon>
    </defs>
    <g id="Page-1" stroke="none" stroke-width="1" fill="none" fill-rule="evenodd">
        <g id="icon-project-code">
            <g id="Group-3" transform="translate(0.847645, 0.422147)">
                <mask id="mask-2" fill="white">
                    <use xlink:href="#path-1"></use>
                </mask>
                <g id="Clip-2"></g>
                <path d="M15.9409047,2.59957895 C15.9180183,2.02863158 15.7323839,1.89473684 15.2407496,1.89473684 L8.60283823,1.89473684 C7.59244488,1.89473684 7.47207922,1.90905263 6.7066554,1.09389474 C6.07176898,0.411789474 6.32182438,0.421052632 5.0105169,0.421052632 L1.51991302,0.421052632 C0.712954571,0.421052632 0.42560277,0.352 0.351857618,1.18568421 C0.282350693,1.95452632 0.11960277,3.81978947 0.0967163435,4.10526316 L16.0146499,4.10526316 L15.9409047,2.59957895 Z" id="Fill-1" fill="#090909" mask="url(#mask-2)"></path>
            </g>
            <path d="M11.867036,11.1168842 L14.4099723,11.1168842 L14.4099723,10.2747789 L11.867036,10.2747789 L11.867036,11.1168842 Z M7.62880886,11.1168842 L10.1717452,11.1168842 L10.1717452,10.2747789 L7.62880886,10.2747789 L7.62880886,11.1168842 Z M3.39058172,11.1168842 L5.93351801,11.1168842 L5.93351801,10.2747789 L3.39058172,10.2747789 L3.39058172,11.1168842 Z M16.9698615,5.26425263 L0.82899723,5.26425263 C0.00762880886,5.26425263 -0.0339058172,5.68783158 0.0127146814,6.20825263 L0.615390582,14.6360421 C0.656925208,15.1514105 0.777290859,15.5800421 1.59357341,15.5800421 L16.2510582,15.5800421 C17.0851413,15.5800421 17.1826205,15.1564632 17.229241,14.6360421 L17.7895346,6.10298947 C17.8319169,5.58677895 17.7895346,5.26425263 16.9698615,5.26425263 Z" id="Fill-4" fill="#090909"></path>
        </g>
    </g>
</svg>