<?xml version="1.0" encoding="UTF-8"?>
<svg width="14px" height="18px" viewBox="0 0 14 18" version="1.1" xmlns="http://www.w3.org/2000/svg" xmlns:xlink="http://www.w3.org/1999/xlink">
    <!-- Generator: Sketch 53 (72520) - https://sketchapp.com -->
    <title>icon-switch-client-light</title>
    <desc>Created with Sketch.</desc>
    <defs>
        <polygon id="path-1" points="0 0.4486 5.09526667 0.4486 5.09526667 8.6666 0 8.6666"></polygon>
        <polygon id="path-3" points="0.491533333 0.35 5.58666667 0.35 5.58666667 8.52386667 0.491533333 8.52386667"></polygon>
        <polygon id="path-5" points="0.000133333333 0.35 13.5866667 0.35 13.5866667 17.3333333 0.000133333333 17.3333333"></polygon>
    </defs>
    <g id="Page-1" stroke="none" stroke-width="1" fill="none" fill-rule="evenodd">
        <g id="icon-switch-client-light">
            <g id="Group-3" transform="translate(0.000000, 8.983200)">
                <mask id="mask-2" fill="white">
                    <use xlink:href="#path-1"></use>
                </mask>
                <g id="Clip-2"></g>
                <path d="M3.3966,3.72793333 L3.3966,3.14726667 C3.3966,2.42726667 3.83126667,1.7926 4.48993333,1.4086 C3.92326667,1.16926667 3.40393333,0.8426 2.94193333,0.4486 C2.1746,1.13993333 1.69793333,2.09393333 1.69793333,3.14726667 L1.69793333,3.72793333 C0.7126,4.0806 -6.66666667e-05,5.01326667 -6.66666667e-05,6.11926667 C-6.66666667e-05,7.52393333 1.1426,8.6666 2.54793333,8.6666 C3.95193333,8.6666 5.09526667,7.52393333 5.09526667,6.11926667 C5.09526667,5.01326667 4.3826,4.0806 3.3966,3.72793333 M2.54793333,6.9686 C2.0786,6.9686 1.69793333,6.58726667 1.69793333,6.11926667 C1.69793333,5.65126667 2.0786,5.26993333 2.54793333,5.26993333 C3.0166,5.26993333 3.3966,5.65126667 3.3966,6.11926667 C3.3966,6.58726667 3.0166,6.9686 2.54793333,6.9686" id="Fill-1" fill="#FFFFFF" mask="url(#mask-2)"></path>
            </g>
            <g id="Group-6" transform="translate(8.000000, 0.316533)">
                <mask id="mask-4" fill="white">
                    <use xlink:href="#path-3"></use>
                </mask>
                <g id="Clip-5"></g>
                <path d="M2.1902,5.28786667 L2.1902,5.58586667 C2.1902,6.42253333 1.73553333,7.15853333 1.04753333,7.58986667 C1.61286667,7.82253333 2.13353333,8.13853333 2.59553333,8.52386667 C3.39086667,7.77853333 3.8882,6.7392 3.8882,5.5872 L3.8882,5.28853333 C4.87353333,4.93653333 5.58686667,4.0032 5.58686667,2.89786667 C5.58686667,1.4932 4.44353333,0.349866667 3.03886667,0.349866667 C1.63486667,0.349866667 0.491533333,1.4932 0.491533333,2.89786667 C0.491533333,4.0032 1.2042,4.93653333 2.1902,5.28786667 M3.03886667,2.04853333 C3.5082,2.04853333 3.8882,2.42986667 3.8882,2.89786667 C3.8882,3.36586667 3.5082,3.74653333 3.03886667,3.74653333 C2.5702,3.74653333 2.1902,3.36586667 2.1902,2.89786667 C2.1902,2.42986667 2.5702,2.04853333 3.03886667,2.04853333" id="Fill-4" fill="#FFFFFF" mask="url(#mask-4)"></path>
            </g>
            <g id="Group-9" transform="translate(0.000000, 0.316533)">
                <mask id="mask-6" fill="white">
                    <use xlink:href="#path-5"></use>
                </mask>
                <g id="Clip-8"></g>
                <path d="M11.8328,12.3776667 C11.4854667,9.90433333 9.36146667,7.99233333 6.7928,7.99233333 C5.14946667,7.99233333 3.7768,6.81966667 3.46413333,5.26766667 C4.41546667,4.89766667 5.09546667,3.97766667 5.09546667,2.89766667 C5.09546667,1.493 3.95213333,0.349666667 2.54746667,0.349666667 C1.1428,0.349666667 0.000133333333,1.493 0.000133333333,2.89766667 C0.000133333333,4.02366667 0.7388,4.96966667 1.75346667,5.30566667 C2.10146667,7.77966667 4.22546667,9.691 6.7928,9.691 C8.4368,9.691 9.80946667,10.8636667 10.1221333,12.4156667 C9.1708,12.7863333 8.49146667,13.7056667 8.49146667,14.7856667 C8.49146667,16.1903333 9.6348,17.3336667 11.0394667,17.3336667 C12.4434667,17.3336667 13.5868,16.1903333 13.5868,14.7856667 C13.5868,13.6596667 12.8474667,12.7136667 11.8328,12.3776667 M2.54746667,2.04833333 C3.01613333,2.04833333 3.3968,2.42966667 3.3968,2.89766667 C3.3968,3.36566667 3.01613333,3.747 2.54746667,3.747 C2.0788,3.747 1.69813333,3.36566667 1.69813333,2.89766667 C1.69813333,2.42966667 2.0788,2.04833333 2.54746667,2.04833333 M11.0394667,15.635 C10.5701333,15.635 10.1901333,15.2536667 10.1901333,14.7856667 C10.1901333,14.3183333 10.5701333,13.9363333 11.0394667,13.9363333 C11.5081333,13.9363333 11.8881333,14.3183333 11.8881333,14.7856667 C11.8881333,15.2536667 11.5081333,15.635 11.0394667,15.635" id="Fill-7" fill="#FFFFFF" mask="url(#mask-6)"></path>
            </g>
        </g>
    </g>
</svg>