<?xml version="1.0" encoding="UTF-8"?>
<svg width="13px" height="18px" viewBox="0 0 13 18" version="1.1" xmlns="http://www.w3.org/2000/svg" xmlns:xlink="http://www.w3.org/1999/xlink">
    <!-- Generator: Sketch 52.5 (67469) - http://www.bohemiancoding.com/sketch -->
    <title>icons-locationCodes</title>
    <desc>Created with Sketch.</desc>
    <g id="Page-1" stroke="none" stroke-width="1" fill="none" fill-rule="evenodd">
        <path d="M9.62802755,6.54582462 C9.62802755,8.35223611 8.17341175,9.81873693 6.37878202,9.81873693 C4.58314633,9.81873693 3.12853053,8.35223611 3.12853053,6.54582462 C3.12853053,4.73839543 4.58314633,3.27291231 6.37878202,3.27291231 C8.17341175,3.27291231 9.62802755,4.73839543 9.62802755,6.54582462 M13,6.54582462 C13,2.92994855 10.0897624,0 6.50050298,0 C2.91023756,0 0,2.92994855 0,6.54582462 C0,8.13546673 0.563336687,9.59280828 1.49887797,10.7255046 L6.50553277,18 L11.5856225,10.6196642 C11.767701,10.3896647 11.9346901,10.1484706 12.0855838,9.89302878 L12.1368877,9.81873693 L12.1288401,9.81873693 C12.6821172,8.85599593 13,7.73856505 13,6.54582462" id="icons-locationCodes" fill="#090909"></path>
    </g>
</svg>