<?xml version="1.0" encoding="UTF-8"?>
<svg width="17px" height="17px" viewBox="0 0 17 17" version="1.1" xmlns="http://www.w3.org/2000/svg" xmlns:xlink="http://www.w3.org/1999/xlink">
    <!-- Generator: Sketch 52.5 (67469) - http://www.bohemiancoding.com/sketch -->
    <title>icon-divisionCodes</title>
    <desc>Created with Sketch.</desc>
    <defs>
        <polygon id="path-1" points="0 0.0558947368 7.55555556 0.0558947368 7.55555556 13.5738 0 13.5738"></polygon>
        <polygon id="path-3" points="0.108611111 0.865989474 11.2247222 0.865989474 11.2247222 8.52631579 0.108611111 8.52631579"></polygon>
        <polygon id="path-5" points="0 0.0558947368 7.55555556 0.0558947368 7.55555556 13.5738 0 13.5738"></polygon>
    </defs>
    <g id="Page-1" stroke="none" stroke-width="1" fill="none" fill-rule="evenodd">
        <g id="icon-divisionCodes" transform="translate(0.000000, -1.000000)">
            <g id="Group-3" transform="translate(9.444444, 0.891758)">
                <mask id="mask-2" fill="white">
                    <use xlink:href="#path-1"></use>
                </mask>
                <g id="Clip-2"></g>
                <path d="M0,7.66032632 L5.89522222,13.5738 C6.93411111,12.1593789 7.55555556,10.4181158 7.55555556,8.52622105 C7.55555556,4.13801053 4.25,0.527589474 0,0.0558 L0,7.66032632 Z" id="Fill-1" fill="#090909" mask="url(#mask-2)"></path>
            </g>
            <g id="Group-6" transform="translate(2.833333, 9.418074)">
                <mask id="mask-4" fill="white">
                    <use xlink:href="#path-3"></use>
                </mask>
                <g id="Clip-5"></g>
                <path d="M5.66666667,0.865989474 L0.108611111,6.44125263 C1.59894444,7.73725263 3.53977778,8.52641053 5.66666667,8.52641053 C7.79355556,8.52641053 9.73438889,7.73725263 11.2247222,6.44125263 L5.66666667,0.865989474 Z" id="Fill-4" fill="#090909" mask="url(#mask-4)"></path>
            </g>
            <g id="Group-9" transform="translate(0.000000, 0.891758)">
                <mask id="mask-6" fill="white">
                    <use xlink:href="#path-5"></use>
                </mask>
                <g id="Clip-8"></g>
                <path d="M7.55555556,7.66032632 L7.55555556,0.0558 C3.30555556,0.527589474 0,4.13801053 0,8.52622105 C0,10.4181158 0.621444444,12.1593789 1.66033333,13.5738 L7.55555556,7.66032632 Z" id="Fill-7" fill="#090909" mask="url(#mask-6)"></path>
            </g>
        </g>
    </g>
</svg>