<?xml version="1.0" encoding="UTF-8"?>
<svg width="22px" height="20px" viewBox="0 0 22 20" version="1.1" xmlns="http://www.w3.org/2000/svg" xmlns:xlink="http://www.w3.org/1999/xlink">
    <!-- Generator: Sketch 52.5 (67469) - http://www.bohemiancoding.com/sketch -->
    <title>add-user-icon</title>
    <desc>Created with Sketch.</desc>
    <g id="Symbols" stroke="none" stroke-width="1" fill="none" fill-rule="evenodd">
        <g id="menu-bar" transform="translate(-16.000000, -80.000000)" fill="#000000">
            <g id="add-user-icon" transform="translate(16.000000, 80.000000)">
                <path d="M6.94736842,11.5789474 C8.54642105,11.5789474 9.99378947,10.9305263 11.0416842,9.88263158 C12.0884211,8.83589474 12.7368421,7.38852632 12.7368421,5.78947368 C12.7368421,4.19042105 12.0884211,2.74305263 11.0416842,1.69631579 C9.99378947,0.648421053 8.54642105,0 6.94736842,0 C5.34831579,0 3.90094737,0.648421053 2.85305263,1.69631579 C1.80631579,2.74305263 1.15789474,4.19042105 1.15789474,5.78947368 C1.15789474,7.38852632 1.80631579,8.83589474 2.85305263,9.88263158 C3.90094737,10.9305263 5.34831579,11.5789474 6.94736842,11.5789474 Z" id="Path"></path>
                <path d="M6.94736842,19.6842105 C11.0208421,19.6842105 13.8947368,18.5263158 13.8947368,17.3684211 C13.8947368,15.0526316 11.1690526,12.7368421 6.94736842,12.7368421 C2.60526316,12.7368421 0,15.0526316 0,17.3684211 C0,18.5263158 2.60526316,19.6842105 6.94736842,19.6842105 Z" id="Path"></path>
                <path d="M20.8421053,9.26315789 L18.5263158,9.26315789 L18.5263158,6.94736842 C18.5263158,6.30705263 18.0087368,5.78947368 17.3684211,5.78947368 C16.7281053,5.78947368 16.2105263,6.30705263 16.2105263,6.94736842 L16.2105263,9.26315789 L13.8947368,9.26315789 C13.2544211,9.26315789 12.7368421,9.78073684 12.7368421,10.4210526 C12.7368421,11.0613684 13.2544211,11.5789474 13.8947368,11.5789474 L16.2105263,11.5789474 L16.2105263,13.8947368 C16.2105263,14.5350526 16.7281053,15.0526316 17.3684211,15.0526316 C18.0087368,15.0526316 18.5263158,14.5350526 18.5263158,13.8947368 L18.5263158,11.5789474 L20.8421053,11.5789474 C21.4824211,11.5789474 22,11.0613684 22,10.4210526 C22,9.78073684 21.4824211,9.26315789 20.8421053,9.26315789 Z" id="Path"></path>
            </g>
        </g>
    </g>
</svg>