<?xml version="1.0" encoding="UTF-8"?>
<svg width="18px" height="18px" viewBox="0 0 18 18" version="1.1" xmlns="http://www.w3.org/2000/svg" xmlns:xlink="http://www.w3.org/1999/xlink">
    <!-- Generator: Sketch 52.5 (67469) - http://www.bohemiancoding.com/sketch -->
    <title>icon-skills</title>
    <desc>Created with Sketch.</desc>
    <defs>
        <polygon id="path-1" points="0 0.000207692308 17.334 0.000207692308 17.334 17.3344846 0 17.3344846"></polygon>
    </defs>
    <g id="Page-1" stroke="none" stroke-width="1" fill="none" fill-rule="evenodd">
        <g id="icon-skills">
            <mask id="mask-2" fill="white">
                <use xlink:href="#path-1"></use>
            </mask>
            <g id="Clip-2"></g>
            <path d="M-0.000276923077,14.8065923 C-0.000276923077,16.2043615 1.13026154,17.3342077 2.52733846,17.3342077 C3.22449231,17.3342077 3.87526154,17.0711308 4.33356923,16.6121308 L8.94156923,12.0006692 L10.1766462,13.2357462 C10.0104923,13.8422077 10.1690308,14.5213615 10.6501846,15.0052846 L12.4411846,16.7962846 C13.1556462,17.5079769 14.3000308,17.5149 15.0048,16.8108231 C15.7088769,16.1060538 15.7026462,14.9623615 14.9902615,14.2465154 L13.1992615,12.4555154 C12.7153385,11.9750538 12.0368769,11.8165154 11.4297231,11.9826692 L10.1953385,10.7510538 L10.9894154,9.95628462 C12.6786462,10.3827462 14.5423385,9.93828462 15.8604923,8.64920769 C16.7674154,7.76097692 17.2658769,6.6339 17.3344154,5.46805385 L17.3344154,5.40643846 C17.3344154,5.01251538 17.0090308,4.69474615 16.6081846,4.69474615 C16.4094923,4.69474615 16.2288,4.77436154 16.0951846,4.90036154 L15.8826462,5.11013077 L15.1529538,5.82528462 C14.6946462,6.27320769 14.0404154,6.53628462 13.3370308,6.53628462 C12.6364154,6.53628462 12.0181846,6.22959231 11.5591846,5.77820769 C11.1084923,5.3199 10.7983385,4.69820769 10.7983385,3.99828462 C10.7983385,3.29351538 11.0614154,2.63997692 11.5093385,2.18166923 L12.2238,1.45128462 L12.4335692,1.23874615 C12.5602615,1.10513077 12.6398769,0.924438462 12.6398769,0.725746154 C12.6398769,0.325592308 12.3221077,0.000207692308 11.9274923,0.000207692308 L11.8665692,0.000207692308 C10.7000308,0.0680538462 9.57364615,0.567207692 8.68541538,1.47343846 C7.39633846,2.79228462 6.95533846,4.65528462 7.38110769,6.34174615 L6.58356923,7.13928462 L3.25010769,3.80305385 L3.25010769,2.88920769 L1.08318462,1.80574615 L-0.000276923077,2.88920769 L1.08318462,5.05613077 L1.99356923,5.05613077 L5.3298,8.3889 L0.722492308,13.0010538 C0.264184615,13.4593615 -0.000276923077,14.1101308 -0.000276923077,14.8065923 M1.80526154,14.6259 C1.80526154,14.1274385 2.20956923,13.7231308 2.70803077,13.7231308 C3.20718462,13.7231308 3.61149231,14.1274385 3.61149231,14.6259 C3.61149231,15.1243615 3.20718462,15.5286692 2.70803077,15.5286692 C2.20956923,15.5286692 1.80526154,15.1243615 1.80526154,14.6259" id="Fill-1" fill="#FEFEFE" mask="url(#mask-2)"></path>
        </g>
    </g>
</svg>