<?xml version="1.0" encoding="UTF-8"?>
<svg width="20px" height="26px" viewBox="0 0 20 26" version="1.1" xmlns="http://www.w3.org/2000/svg" xmlns:xlink="http://www.w3.org/1999/xlink">
    <!-- Generator: Sketch 53.1 (72631) - https://sketchapp.com -->
    <title>icon-privileges-light</title>
    <desc>Created with Sketch.</desc>
    <defs>
        <polygon id="path-1" points="0 0.61 19.628 0.61 19.628 20.27985 0 20.27985"></polygon>
    </defs>
    <g id="Symbols" stroke="none" stroke-width="1" fill="none" fill-rule="evenodd">
        <g id="icon-privileges-light" transform="translate(0.000000, -1.000000)">
            <path d="M5.2088,19.5537 C4.2678,19.5537 3.3668,19.2267 2.6708,18.6537 L0.2148,23.8927 L4.1038,22.5007 L5.5368,26.3897 L8.0338,21.0687 C7.6238,20.8637 7.2968,20.6177 6.9698,20.2907 C6.4788,19.7997 5.8638,19.5537 5.2088,19.5537" id="Fill-1" fill="#FFFFFF"></path>
            <path d="M16.5476,18.9809 C15.9346,19.3489 15.2376,19.5539 14.4606,19.5539 C13.8056,19.5539 13.1916,19.7989 12.7406,20.2909 C12.2906,20.7409 11.7586,21.0679 11.1446,21.2729 L13.5196,26.3899 L14.9516,22.5009 L18.8406,23.9339 L16.5476,18.9809 Z" id="Fill-3" fill="#FFFFFF"></path>
            <path d="M12.7,14.8051 L9.835,13.2911 L6.97,14.8051 L7.502,11.6121 L5.168,9.3611 L8.361,8.9101 L9.794,6.0041 L11.226,8.9101 L14.42,9.3611 L12.086,11.6121 L12.7,14.8051 Z M9.835,4.2851 C6.232,4.2851 3.285,7.2321 3.285,10.8341 C3.285,14.4371 6.232,17.3841 9.835,17.3841 C13.437,17.3841 16.385,14.4371 16.385,10.8341 C16.385,7.2321 13.437,4.2851 9.835,4.2851 L9.835,4.2851 Z" id="Fill-5" fill="#FFFFFF"></path>
            <g id="Group-9" transform="translate(0.000000, 0.390000)">
                <mask id="mask-2" fill="white">
                    <use xlink:href="#path-1"></use>
                </mask>
                <g id="Clip-8"></g>
                <path d="M9.8347,17.8131 C5.7817,17.8131 2.4667,14.4971 2.4667,10.4441 C2.4667,6.3921 5.7817,3.0761 9.8347,3.0761 C13.8877,3.0761 17.2027,6.3921 17.2027,10.4441 C17.2027,14.4971 13.8877,17.8131 9.8347,17.8131 M14.4607,18.3451 L14.4607,18.3451 C16.2617,18.3451 17.7347,16.8721 17.7347,15.0701 C17.7347,14.2101 18.0627,13.3511 18.6767,12.7371 C19.9457,11.4681 19.9457,9.3801 18.6767,8.1111 C18.0627,7.4971 17.7347,6.6791 17.7347,5.7781 C17.7347,3.9771 16.2617,2.5031 14.4607,2.5031 C13.6007,2.5031 12.7407,2.1761 12.1267,1.5621 C10.8577,0.2921 8.7707,0.2921 7.5017,1.5621 C6.8877,2.1761 6.0687,2.5031 5.1677,2.5031 C3.3667,2.5031 1.8937,3.9771 1.8937,5.7781 C1.8937,6.6381 1.5657,7.4971 0.9517,8.1111 C-0.3173,9.4211 -0.3173,11.4681 0.9517,12.7781 C1.5657,13.3921 1.8937,14.2101 1.8937,15.1111 C1.8937,16.9121 3.3667,18.3861 5.1677,18.3861 C6.0277,18.3861 6.8877,18.7131 7.5017,19.3281 C8.7707,20.5971 10.8577,20.5971 12.1267,19.3281 C12.7817,18.7131 13.6007,18.3451 14.4607,18.3451" id="Fill-7" fill="#FFFFFF" mask="url(#mask-2)"></path>
            </g>
        </g>
    </g>
</svg>