<?xml version="1.0" encoding="UTF-8"?>
<svg width="23px" height="25px" viewBox="0 0 23 25" version="1.1" xmlns="http://www.w3.org/2000/svg" xmlns:xlink="http://www.w3.org/1999/xlink">
    <!-- Generator: Sketch 53.2 (72643) - https://sketchapp.com -->
    <title>icon-notification-dark</title>
    <desc>Created with Sketch.</desc>
    <defs>
        <polygon id="path-1" points="0 0.087 22.2264019 0.087 22.2264019 23.7685126 0 23.7685126"></polygon>
        <polygon id="path-3" points="0.5544 0.2824 6.31464024 0.2824 6.31464024 4 0.5544 4"></polygon>
    </defs>
    <g id="Page-1" stroke="none" stroke-width="1" fill="none" fill-rule="evenodd">
        <g id="icon-notification-dark" transform="translate(0.000000, -1.000000)">
            <g id="Group-3" transform="translate(0.000000, 0.912600)">
                <mask id="mask-2" fill="white">
                    <use xlink:href="#path-1"></use>
                </mask>
                <g id="Clip-2"></g>
                <path d="M22.1273,15.0983 C22.0053,14.7833 21.8293,14.5563 21.6513,14.3543 C21.3923,14.1023 21.1163,13.9233 20.8043,13.8123 C19.5863,12.9733 18.7723,11.9863 18.3183,10.7943 C18.3153,10.7863 18.3093,10.7813 18.3053,10.7733 L16.9453,7.2433 C16.1133,5.0723 14.4663,3.3483 12.3093,2.3923 C10.9133,1.7663 9.4183,1.5373 7.9653,1.6893 L7.9413,1.6283 C7.7123,1.0313 7.2623,0.5583 6.6743,0.2973 C6.0863,0.0353 5.4333,0.0173 4.8383,0.2473 C4.2423,0.4773 3.7703,0.9273 3.5083,1.5153 C3.2473,2.1023 3.2293,2.7543 3.4593,3.3503 L3.4793,3.4033 C0.3733,5.7613 -0.8217,9.8743 0.5843,13.5193 L1.9503,17.0863 C1.9503,17.0883 1.9503,17.0893 1.9503,17.0903 C2.3943,18.2593 2.4553,19.5563 2.1323,20.9443 C1.7823,21.5213 1.7153,22.2313 1.9563,22.8563 C1.9583,22.8623 1.9603,22.8673 1.9613,22.8723 C2.2623,23.6353 3.1793,23.9533 3.9453,23.6613 L21.2483,17.0573 C22.0313,16.7593 22.4243,15.8823 22.1273,15.0983 M2.9563,12.4763 C2.9333,12.4803 2.9103,12.4823 2.8873,12.4823 C2.7183,12.4823 2.5663,12.3623 2.5333,12.1893 C2.4533,11.7763 2.4093,11.3543 2.4013,10.9323 C2.3983,10.7333 2.5573,10.5683 2.7573,10.5653 L2.7633,10.5653 C2.9603,10.5653 3.1213,10.7233 3.1253,10.9203 C3.1303,11.2993 3.1703,11.6813 3.2423,12.0533 C3.2803,12.2483 3.1523,12.4373 2.9563,12.4763 M5.9293,5.3973 C5.4493,5.7383 5.0163,6.1413 4.6413,6.5963 C4.0323,7.3363 3.5823,8.2163 3.3383,9.1413 C3.2963,9.3043 3.1493,9.4113 2.9893,9.4113 C2.9593,9.4113 2.9283,9.4083 2.8983,9.4003 C2.7053,9.3483 2.5893,9.1523 2.6403,8.9583 C2.9093,7.9333 3.4083,6.9573 4.0833,6.1363 C4.4993,5.6323 4.9793,5.1853 5.5123,4.8083 C5.6733,4.6913 5.8993,4.7303 6.0153,4.8943 C6.1313,5.0563 6.0923,5.2823 5.9293,5.3973" id="Fill-1" fill="#000000" mask="url(#mask-2)"></path>
            </g>
            <g id="Group-6" transform="translate(6.000000, 21.912600)">
                <mask id="mask-4" fill="white">
                    <use xlink:href="#path-3"></use>
                </mask>
                <g id="Clip-5"></g>
                <path d="M6.2274,0.2824 L5.5524,0.5424 L1.2294,2.2044 L0.5544,2.4644 C0.8594,3.0314 1.3324,3.4864 1.9384,3.7514 C2.3174,3.9174 2.7184,4.0004 3.1204,4.0004 C3.4764,4.0004 3.8324,3.9354 4.1734,3.8034 L4.4394,3.7014 C5.1654,3.4224 5.7424,2.8754 6.0634,2.1654 C6.3344,1.5634 6.3814,0.9074 6.2274,0.2824" id="Fill-4" fill="#000000" mask="url(#mask-4)"></path>
            </g>
        </g>
    </g>
</svg>