<?xml version="1.0" encoding="UTF-8"?>
<svg width="18px" height="16px" viewBox="0 0 18 16" version="1.1" xmlns="http://www.w3.org/2000/svg" xmlns:xlink="http://www.w3.org/1999/xlink">
    <!-- Generator: Sketch 52.5 (67469) - http://www.bohemiancoding.com/sketch -->
    <title>icon-eventCategories</title>
    <desc>Created with Sketch.</desc>
    <defs>
        <polygon id="path-1" points="0 16 18 16 18 0.25 0 0.25"></polygon>
    </defs>
    <g id="Page-1" stroke="none" stroke-width="1" fill="none" fill-rule="evenodd">
        <g id="icon-eventCategories" transform="translate(0.000000, -1.000000)">
            <polygon id="Fill-1" fill="#090909" points="8 12 10 12 10 10 8 10"></polygon>
            <g id="Group-10" transform="translate(0.000000, 0.750000)">
                <path d="M12.375,4.75 C12.996,4.75 13.5,4.251 13.5,3.614 L13.5,1.386 C13.5,0.758 13,0.25 12.375,0.25 C11.754,0.25 11.25,0.749 11.25,1.386 L11.25,3.614 C11.25,4.242 11.75,4.75 12.375,4.75" id="Fill-2" fill="#090909"></path>
                <path d="M5.625,4.75 C6.246,4.75 6.75,4.251 6.75,3.614 L6.75,1.386 C6.75,0.758 6.25,0.25 5.625,0.25 C5.004,0.25 4.5,0.749 4.5,1.386 L4.5,3.614 C4.5,4.242 5,4.75 5.625,4.75" id="Fill-4" fill="#090909"></path>
                <mask id="mask-2" fill="white">
                    <use xlink:href="#path-1"></use>
                </mask>
                <g id="Clip-7"></g>
                <polygon id="Fill-6" fill="#090909" mask="url(#mask-2)" points="3 11.25 5 11.25 5 9.25 3 9.25"></polygon>
                <path d="M12,12.25 L16,12.25 L16,8.25 L12,8.25 L12,12.25 Z M7,12.25 L11,12.25 L11,8.25 L7,8.25 L7,12.25 Z M2,12.25 L6,12.25 L6,8.25 L2,8.25 L2,12.25 Z M15.757,2.5 L14.625,2.5 L14.625,3.627 C14.625,4.864 13.618,5.875 12.375,5.875 C11.124,5.875 10.125,4.869 10.125,3.627 L10.125,2.5 L7.875,2.5 L7.875,3.627 C7.875,4.864 6.868,5.875 5.625,5.875 C4.374,5.875 3.375,4.869 3.375,3.627 L3.375,2.5 L2.243,2.5 C1.004,2.5 0,3.515 0,4.76 L0,13.74 C0,14.988 1.006,16 2.243,16 L15.757,16 C16.996,16 18,14.985 18,13.74 L18,4.76 C18,3.512 16.994,2.5 15.757,2.5 Z" id="Fill-8" fill="#090909" mask="url(#mask-2)"></path>
                <polygon id="Fill-9" fill="#090909" mask="url(#mask-2)" points="13 11.25 15 11.25 15 9.25 13 9.25"></polygon>
            </g>
        </g>
    </g>
</svg>