<?xml version="1.0" encoding="UTF-8"?>
<svg width="22px" height="22px" viewBox="0 0 22 22" version="1.1" xmlns="http://www.w3.org/2000/svg" xmlns:xlink="http://www.w3.org/1999/xlink">
    <!-- Generator: Sketch 52.5 (67469) - http://www.bohemiancoding.com/sketch -->
    <title>leave-icon</title>
    <desc>Created with Sketch.</desc>
    <g id="Symbols" stroke="none" stroke-width="1" fill="none" fill-rule="evenodd">
        <g id="menu-bar" transform="translate(-16.000000, -197.000000)" fill="#000000" fill-rule="nonzero">
            <g id="leave-icon" transform="translate(16.000000, 197.000000)">
                <path d="M14.6887019,17.0033482 L14.0805288,17.5680804 C14.0012019,17.6417411 13.9042468,17.6785714 13.7896635,17.6785714 C13.6750801,17.6785714 13.5737179,17.6417411 13.4855769,17.5680804 L11,15.2477679 L8.51442308,17.5680804 C8.42628205,17.6417411 8.32491987,17.6785714 8.21033654,17.6785714 C8.09575321,17.6785714 7.99879808,17.6417411 7.91947115,17.5680804 L7.31129808,17.0033482 C7.23197115,16.9296875 7.19230769,16.8396577 7.19230769,16.7332589 C7.19230769,16.6268601 7.23197115,16.5327381 7.31129808,16.4508929 L9.81009615,14.1428571 L7.31129808,11.8348214 C7.23197115,11.7529762 7.19230769,11.6588542 7.19230769,11.5524554 C7.19230769,11.4460565 7.23197115,11.3560268 7.31129808,11.2823661 L7.91947115,10.7176339 C7.99879808,10.6439732 8.09575321,10.6071429 8.21033654,10.6071429 C8.32491987,10.6071429 8.42628205,10.6439732 8.51442308,10.7176339 L11,13.0256696 L13.4855769,10.7176339 C13.5737179,10.6439732 13.6750801,10.6071429 13.7896635,10.6071429 C13.9042468,10.6071429 14.0012019,10.6439732 14.0805288,10.7176339 L14.6887019,11.2823661 C14.7680288,11.3560268 14.8076923,11.4460565 14.8076923,11.5524554 C14.8076923,11.6588542 14.7680288,11.7529762 14.6887019,11.8348214 L12.203125,14.1428571 L14.6887019,16.4508929 C14.7680288,16.5327381 14.8076923,16.6268601 14.8076923,16.7332589 C14.8076923,16.8396577 14.7680288,16.9296875 14.6887019,17.0033482 Z M1.69230769,20.4285714 L20.3076923,20.4285714 L20.3076923,7.85714286 L1.69230769,7.85714286 L1.69230769,20.4285714 Z M7.27692308,5.5 L7.27692308,1.96428571 C7.27692308,1.84970238 7.22536058,1.75558036 7.12223558,1.68191964 C7.01911058,1.60825893 6.88733974,1.57142857 6.72692308,1.57142857 L5.62692308,1.57142857 C5.46650641,1.57142857 5.33473558,1.60825893 5.23161058,1.68191964 C5.12848558,1.75558036 5.07692308,1.84970238 5.07692308,1.96428571 L5.07692308,5.5 C5.07692308,5.61458333 5.12848558,5.70870536 5.23161058,5.78236607 C5.33473558,5.85602679 5.46650641,5.89285714 5.62692308,5.89285714 L6.72692308,5.89285714 C6.88733974,5.89285714 7.01911058,5.85602679 7.12223558,5.78236607 C7.22536058,5.70870536 7.27692308,5.61458333 7.27692308,5.5 Z M17.4307692,5.5 L17.4307692,1.96428571 C17.4307692,1.84970238 17.3792067,1.75558036 17.2760817,1.68191964 C17.1729567,1.60825893 17.0411859,1.57142857 16.8807692,1.57142857 L15.7807692,1.57142857 C15.6203526,1.57142857 15.4885817,1.60825893 15.3854567,1.68191964 C15.2823317,1.75558036 15.2307692,1.84970238 15.2307692,1.96428571 L15.2307692,5.5 C15.2307692,5.61458333 15.2823317,5.70870536 15.3854567,5.78236607 C15.4885817,5.85602679 15.6203526,5.89285714 15.7807692,5.89285714 L16.8807692,5.89285714 C17.0411859,5.89285714 17.1729567,5.85602679 17.2760817,5.78236607 C17.3792067,5.70870536 17.4307692,5.61458333 17.4307692,5.5 Z M22,4.71428571 L22,20.4285714 C22,20.8541667 21.8325321,21.2224702 21.4975962,21.5334821 C21.1626603,21.844494 20.7660256,22 20.3076923,22 L1.69230769,22 C1.23397436,22 0.837339744,21.844494 0.502403846,21.5334821 C0.167467949,21.2224702 0,20.8541667 0,20.4285714 L0,4.71428571 C0,4.28869048 0.167467949,3.9203869 0.502403846,3.609375 C0.837339744,3.2983631 1.23397436,3.14285714 1.69230769,3.14285714 L3.38461538,3.14285714 L3.38461538,1.96428571 C3.38461538,1.42410714 3.59174679,0.961681548 4.00600962,0.577008929 C4.42027244,0.19233631 4.91826923,0 5.5,0 L6.34615385,0 C6.92788462,0 7.42588141,0.19233631 7.84014423,0.577008929 C8.25440705,0.961681548 8.46153846,1.42410714 8.46153846,1.96428571 L8.46153846,3.14285714 L13.5384615,3.14285714 L13.5384615,1.96428571 C13.5384615,1.42410714 13.7455929,0.961681548 14.1598558,0.577008929 C14.5741186,0.19233631 15.0721154,0 15.6538462,0 L16.5,0 C17.0817308,0 17.5797276,0.19233631 17.9939904,0.577008929 C18.4082532,0.961681548 18.6153846,1.42410714 18.6153846,1.96428571 L18.6153846,3.14285714 L20.3076923,3.14285714 C20.7660256,3.14285714 21.1626603,3.2983631 21.4975962,3.609375 C21.8325321,3.9203869 22,4.28869048 22,4.71428571 Z" id="Shape"></path>
            </g>
        </g>
    </g>
</svg>