<?xml version="1.0" encoding="UTF-8"?>
<svg width="48px" height="48px" viewBox="0 0 48 48" version="1.1" xmlns="http://www.w3.org/2000/svg" xmlns:xlink="http://www.w3.org/1999/xlink">
    <!-- Generator: Sketch 53 (72520) - https://sketchapp.com -->
    <title>icon-hourly</title>
    <desc>Created with Sketch.</desc>
    <defs>
        <polygon id="path-1" points="0 0 48 0 48 48 0 48"></polygon>
    </defs>
    <g id="Pay-Rate" stroke="none" stroke-width="1" fill="none" fill-rule="evenodd">
        <g id="Pay-Rate-Change" transform="translate(-734.000000, -201.000000)">
            <g id="icon-hourly" transform="translate(734.000000, 201.000000)">
                <mask id="mask-2" fill="white">
                    <use xlink:href="#path-1"></use>
                </mask>
                <g id="Clip-2"></g>
                <path d="M23.9990648,0 C10.7454312,0 0,10.7454312 0,23.9990648 C0,37.2526984 10.7454312,48 23.9990648,48 C37.2526984,48 48,37.2526984 48,23.9990648 C48,10.7454312 37.2526984,0 23.9990648,0 M23.9990648,3.99890894 C25.1025991,3.99890894 25.9985193,4.89669953 25.9985193,6.0002338 C25.9985193,7.10376807 25.1025991,7.99968827 23.9990648,7.99968827 C22.8955305,7.99968827 21.9996103,7.10376807 21.9996103,6.0002338 C21.9996103,4.89669953 22.8955305,3.99890894 23.9990648,3.99890894 M5.9983634,25.9985193 C4.89669953,25.9985193 3.99890894,25.1025991 3.99890894,23.9990648 C3.99890894,22.8955305 4.89669953,21.9996103 5.9983634,21.9996103 C7.10376807,21.9996103 7.99968827,22.8955305 7.99968827,23.9990648 C7.99968827,25.1025991 7.10376807,25.9985193 5.9983634,25.9985193 M12.6850329,38.141137 C11.903207,38.922963 10.6369481,38.922963 9.85699256,38.141137 C9.07516658,37.3593111 9.07516658,36.0930523 9.85699256,35.3130967 C10.6388185,34.5312707 11.9050773,34.5312707 12.6850329,35.3130967 C13.4668589,36.0930523 13.4668589,37.3611815 12.6850329,38.141137 M12.6850329,12.6850329 C11.903207,13.4668589 10.6369481,13.4668589 9.85699256,12.6850329 C9.07516658,11.903207 9.07516658,10.6369481 9.85699256,9.85886295 C10.6388185,9.07516658 11.9050773,9.07516658 12.6850329,9.85886295 C13.4668589,10.6369481 13.4668589,11.9050773 12.6850329,12.6850329 M21.1710244,26.8271052 C19.6092429,25.2653236 19.6092429,22.732806 21.1710244,21.1710244 C22.1529829,20.189066 30.1246152,14.4525582 35.9153645,10.3227214 C37.0768811,9.49413553 38.5077349,10.9231189 37.6772786,12.0827651 C33.5474418,17.8735144 27.8090636,25.8451467 26.8271052,26.8271052 C25.2653236,28.3888867 22.732806,28.3888867 21.1710244,26.8271052 M38.141137,38.141137 C37.3593111,38.922963 36.0930523,38.922963 35.3130967,38.141137 C34.5331411,37.3593111 34.5312707,36.0930523 35.3130967,35.3130967 C36.0949227,34.5312707 37.3611815,34.5312707 38.141137,35.3130967 C38.922963,36.0930523 38.922963,37.3611815 38.141137,38.141137 M41.9997662,25.9985193 C40.8943615,25.9985193 39.9984413,25.1025991 39.9984413,23.9990648 C39.9984413,22.8955305 40.8943615,21.9996103 41.9997662,21.9996103 C43.1033005,21.9996103 43.9992207,22.8955305 43.9992207,23.9990648 C43.9992207,25.1025991 43.1033005,25.9985193 41.9997662,25.9985193" id="Fill-1" fill="#2E3D4A" mask="url(#mask-2)"></path>
            </g>
        </g>
    </g>
</svg>