<?xml version="1.0" encoding="UTF-8"?>
<svg width="18px" height="18px" viewBox="0 0 18 18" version="1.1" xmlns="http://www.w3.org/2000/svg" xmlns:xlink="http://www.w3.org/1999/xlink">
    <!-- Generator: Sketch 52.5 (67469) - http://www.bohemiancoding.com/sketch -->
    <title>icon-info</title>
    <desc>Created with Sketch.</desc>
    <g id="Page-1" stroke="none" stroke-width="1" fill="none" fill-rule="evenodd">
        <path d="M9,18 C4.02943725,18 0,13.9705627 0,9 C0,4.02943725 4.02943725,0 9,0 C13.9705627,0 18,4.02943725 18,9 C18,13.9705627 13.9705627,18 9,18 Z M9.96479936,13.9090909 L9.96479936,6.56063565 L8.31445312,6.56063565 L8.31445312,13.9090909 L9.96479936,13.9090909 Z M8.2125799,4.65221058 C8.2125799,4.90123527 8.29294575,5.10837542 8.45367987,5.27363725 C8.61441398,5.43889909 8.8441924,5.52152876 9.14302202,5.52152876 C9.44185164,5.52152876 9.67276197,5.43889909 9.83575994,5.27363725 C9.99875792,5.10837542 10.0802557,4.90123527 10.0802557,4.65221058 C10.0802557,4.39865818 9.99875792,4.18812229 9.83575994,4.02059659 C9.67276197,3.8530709 9.44185164,3.7693093 9.14302202,3.7693093 C8.8441924,3.7693093 8.61441398,3.8530709 8.45367987,4.02059659 C8.29294575,4.18812229 8.2125799,4.39865818 8.2125799,4.65221058 Z" id="icon-info" fill="#000000"></path>
    </g>
</svg>