<?xml version="1.0" encoding="UTF-8"?>
<svg width="22px" height="25px" viewBox="0 0 22 25" version="1.1" xmlns="http://www.w3.org/2000/svg" xmlns:xlink="http://www.w3.org/1999/xlink">
    <!-- Generator: Sketch 52.5 (67469) - http://www.bohemiancoding.com/sketch -->
    <title>project-icon</title>
    <desc>Created with Sketch.</desc>
    <g id="Symbols" stroke="none" stroke-width="1" fill="none" fill-rule="evenodd">
        <g id="menu-bar" transform="translate(-16.000000, -136.000000)" fill="#000000">
            <g id="project-icon" transform="translate(16.000000, 136.000000)">
                <path d="M1.61056771,4.32590501 L20.3894323,4.32590501 C21.2756882,4.32590501 22,5.13007966 22,6.11283654 L22,10.9401029 C22,11.9228597 21.2756882,12.7270344 20.3894323,12.7270344 L13.0231925,12.7270344 L8.9768075,12.7270344 L1.61056771,12.7270344 C0.724311788,12.7270344 0,11.9228597 0,10.9401029 L0,6.11283654 C0,5.13007966 0.724311788,4.32590501 1.61056771,4.32590501 Z M21.0915599,13.7109005 L21.0915599,21.8535848 C21.0915599,23.3099728 19.9501865,24.5034789 18.5548049,24.5034789 L3.44519512,24.5034789 C2.04981345,24.5034789 0.908440052,23.3099728 0.908440052,21.8535848 L0.908440052,13.7109005 L8.75496622,13.7109005 L8.75496622,17.2470505 L11,18.722295 L13.2450338,17.2470505 L13.2450338,13.7109005 L21.0915599,13.7109005 Z M9.54139357,13.7109005 L9.54139357,16.8222245 L11,17.7805788 L12.4586064,16.8222245 L12.4586064,13.7109005 L9.54139357,13.7109005 Z M7.09004739,0 L14.9099526,0 C15.6364828,0 16.2310174,0.594534637 16.2310174,1.32106484 L16.2310174,3.38197035 L14.5561158,3.38197035 L14.5561158,2.16406171 C14.5561158,1.83573661 14.2876878,1.56619946 13.9593627,1.56619946 L8.04063729,1.56619946 C7.71231219,1.56619946 7.44388424,1.83573661 7.44388424,2.16406171 L7.44388424,3.38197035 L5.76898256,3.38197035 L5.76898256,1.32106484 C5.76898256,0.594534637 6.36351719,0 7.09004739,0 Z" id="Shape"></path>
            </g>
        </g>
    </g>
</svg>