<?xml version="1.0" encoding="UTF-8"?>
<svg width="16px" height="18px" viewBox="0 0 16 18" version="1.1" xmlns="http://www.w3.org/2000/svg" xmlns:xlink="http://www.w3.org/1999/xlink">
    <!-- Generator: Sketch 53.2 (72643) - https://sketchapp.com -->
    <title>icon-excel-blue</title>
    <desc>Created with Sketch.</desc>
    <defs>
        <polygon id="path-1" points="1.22562353 0.338538462 15.5966824 0.338538462 15.5966824 18 1.22562353 18"></polygon>
    </defs>
    <g id="Page-1" stroke="none" stroke-width="1" fill="none" fill-rule="evenodd">
        <g id="icon-excel-blue" transform="translate(0.000000, 0.000000)">
            <mask id="mask-2" fill="white">
                <use xlink:href="#path-1"></use>
            </mask>
            <g id="Clip-2"></g>
            <path d="M14.8392706,4.82538462 L11.5456235,1.08 L10.8948,0.338538462 L3.11456471,0.338538462 C2.06985882,0.338538462 1.22562353,1.16792308 1.22562353,2.19323077 L1.22562353,4.54984615 L2.39668235,4.54984615 L2.39597647,2.64461538 C2.39668235,2.06792308 2.86962353,1.60130769 3.45550588,1.60130769 L10.1098588,1.59507692 L10.1098588,4.68692308 C10.1112706,5.83823077 11.0599765,6.77076923 12.2345647,6.77076923 L14.5371529,6.77076923 L14.4242118,15.6897692 C14.4220941,16.2636923 13.9477412,16.7268462 13.3632706,16.7316923 L3.37150588,16.7268462 C2.83644706,16.7268462 2.40656471,16.2124615 2.40374118,15.5783077 L2.40374118,14.823 L1.23127059,14.823 L1.23127059,15.9486923 C1.23127059,17.0799231 2.00350588,18 2.95291765,18 L13.7056235,17.9972308 C14.7496235,17.9972308 15.5966824,17.1636923 15.5966824,16.1411538 L15.5966824,5.68938462 L14.8392706,4.82538462" id="Fill-1" fill="#005EFF" mask="url(#mask-2)"></path>
            <path d="M0,5.82352941 L7.41176471,5.82352941 L7.41176471,13.2352941 L0,13.2352941 L0,5.82352941 Z M6.35294118,12.1764706 L4.48877005,9.35318894 L6.13048128,6.88235294 L4.52406417,6.88235294 L3.74278075,8.2258584 L3.01016043,6.88235294 L1.4315508,6.88235294 L2.9973262,9.35318894 L1.05882353,12.1764706 L2.62085561,12.1764706 L3.73582888,10.4390189 L4.79786096,12.1764706 L6.35294118,12.1764706 Z" id="Combined-Shape" fill="#005EFF"></path>
        </g>
    </g>
</svg>