<?xml version="1.0" encoding="UTF-8"?>
<svg width="18px" height="19px" viewBox="0 0 18 19" version="1.1" xmlns="http://www.w3.org/2000/svg" xmlns:xlink="http://www.w3.org/1999/xlink">
    <!-- Generator: Sketch 52.5 (67469) - http://www.bohemiancoding.com/sketch -->
    <title>Fill 1</title>
    <desc>Created with Sketch.</desc>
    <g id="Page-1" stroke="none" stroke-width="1" fill="none" fill-rule="evenodd">
        <g id="ver6-menu" transform="translate(-45.000000, -345.000000)" fill="#000000">
            <path d="M60.75,349.714286 C61.9935,349.714286 63,348.707786 63,347.464286 C63,346.220786 61.9935,345.214286 60.75,345.214286 C59.5065,345.214286 58.5,346.220786 58.5,347.464286 C58.5,348.096536 58.7625,348.665786 59.18175,349.073786 L57.4065,352.180286 C57.04425,352.047536 56.658,351.964286 56.25,351.964286 C55.35,351.964286 54.53625,352.322036 53.93175,352.897286 L49.329,349.445786 C49.43775,349.181036 49.5,348.893036 49.5,348.589286 C49.5,347.345786 48.4935,346.339286 47.25,346.339286 C46.0065,346.339286 45,347.345786 45,348.589286 C45,349.832786 46.0065,350.839286 47.25,350.839286 C47.781,350.839286 48.2625,350.648036 48.64725,350.340536 L53.262,353.802536 C53.022,354.264536 52.875,354.782036 52.875,355.339286 C52.875,355.691786 52.94475,356.025536 53.04525,356.345036 L48.2175,358.940036 C47.92275,358.799786 47.59725,358.714286 47.25,358.714286 C46.0065,358.714286 45,359.720786 45,360.964286 C45,362.207786 46.0065,363.214286 47.25,363.214286 C48.4935,363.214286 49.5,362.207786 49.5,360.964286 C49.5,360.507536 49.36125,360.083786 49.12725,359.728286 L53.55225,357.348536 C54.168,358.172786 55.1415,358.714286 56.25,358.714286 C56.81025,358.714286 57.33075,358.564286 57.7965,358.322786 L58.896,359.692286 C58.647,360.054536 58.5,360.491786 58.5,360.964286 C58.5,362.207786 59.5065,363.214286 60.75,363.214286 C61.9935,363.214286 63,362.207786 63,360.964286 C63,359.720786 61.9935,358.714286 60.75,358.714286 C60.38925,358.714286 60.0525,358.808036 59.75025,358.958786 L58.6995,357.649286 C59.2695,357.044786 59.625,356.235536 59.625,355.339286 C59.625,354.288536 59.1345,353.361536 58.3815,352.742786 L60.16275,349.626536 C60.35025,349.678286 60.54525,349.714286 60.75,349.714286" id="Fill-1"></path>
        </g>
    </g>
</svg>