<?xml version="1.0" encoding="UTF-8"?>
<svg width="18px" height="18px" viewBox="0 0 18 18" version="1.1" xmlns="http://www.w3.org/2000/svg" xmlns:xlink="http://www.w3.org/1999/xlink">
    <!-- Generator: Sketch 52.5 (67469) - http://www.bohemiancoding.com/sketch -->
    <title>Group 12</title>
    <desc>Created with Sketch.</desc>
    <defs>
        <polygon id="path-1" points="0 0 17.9998989 0 17.9998989 17.9999798 0 17.9999798"></polygon>
    </defs>
    <g id="Page-1" stroke="none" stroke-width="1" fill="none" fill-rule="evenodd">
        <g id="ver6-menu" transform="translate(-47.000000, -164.000000)">
            <g id="Group-12" transform="translate(47.000000, 164.000000)">
                <g id="Group-3" transform="translate(0.000000, 0.000020)">
                    <mask id="mask-2" fill="white">
                        <use xlink:href="#path-1"></use>
                    </mask>
                    <g id="Clip-2"></g>
                    <path d="M17.2499663,4.49997978 L11.2498989,4.49997978 L11.2498989,0.74991236 C11.2498989,0.29991236 10.9499663,-2.02247191e-05 10.4999663,-2.02247191e-05 L0.750033708,-2.02247191e-05 C0.300033708,-2.02247191e-05 -0.000101123596,0.29991236 -0.000101123596,0.74991236 L-0.000101123596,17.9999798 L17.9998989,17.9999798 L17.9998989,5.24991236 C17.9998989,4.79991236 17.6999663,4.49997978 17.2499663,4.49997978 Z M11.2501011,16.4999124 L16.5000337,16.4999124 L16.5000337,6.00004719 L11.2501011,6.00004719 L11.2501011,16.4999124 Z M9.75003371,1.50004719 L9.75003371,5.24991236 L9.75003371,16.4999124 L7.50003371,16.4999124 L7.50003371,12.7500472 L3.74996629,12.7500472 L3.74996629,16.4999124 L1.49996629,16.4999124 L1.49996629,1.50004719 L9.75003371,1.50004719 Z M4.49989888,16.4999124 L6.74989888,16.4999124 L6.74989888,13.4999798 L4.49989888,13.4999798 L4.49989888,16.4999124 Z" id="Fill-1" fill="#000000" mask="url(#mask-2)"></path>
                </g>
                <path d="M2.99993258,5.24995281 L5.24993258,5.24995281 L5.24993258,2.99995281 L2.99993258,2.99995281 L2.99993258,5.24995281 Z M3.75006742,4.50002022 L4.5,4.50002022 L4.5,3.75008764 L3.75006742,3.75008764 L3.75006742,4.50002022 Z" id="Fill-4" fill="#000000"></path>
                <path d="M2.99993258,8.25008764 L5.24993258,8.25008764 L5.24993258,6.00008764 L2.99993258,6.00008764 L2.99993258,8.25008764 Z M3.75006742,7.49995281 L4.5,7.49995281 L4.5,6.75002022 L3.75006742,6.75002022 L3.75006742,7.49995281 Z" id="Fill-5" fill="#000000"></path>
                <path d="M2.99993258,11.2500202 L5.24993258,11.2500202 L5.24993258,9.00002022 L2.99993258,9.00002022 L2.99993258,11.2500202 Z M3.75006742,10.5000876 L4.5,10.5000876 L4.5,9.74995281 L3.75006742,9.74995281 L3.75006742,10.5000876 Z" id="Fill-6" fill="#000000"></path>
                <path d="M6.00006742,5.24995281 L8.25006742,5.24995281 L8.25006742,2.99995281 L6.00006742,2.99995281 L6.00006742,5.24995281 Z M6.75,4.50002022 L7.49993258,4.50002022 L7.49993258,3.75008764 L6.75,3.75008764 L6.75,4.50002022 Z" id="Fill-7" fill="#000000"></path>
                <path d="M6.00006742,8.25008764 L8.25006742,8.25008764 L8.25006742,6.00008764 L6.00006742,6.00008764 L6.00006742,8.25008764 Z M6.75,7.49995281 L7.49993258,7.49995281 L7.49993258,6.75002022 L6.75,6.75002022 L6.75,7.49995281 Z" id="Fill-8" fill="#000000"></path>
                <path d="M6.00006742,11.2500202 L8.25006742,11.2500202 L8.25006742,9.00002022 L6.00006742,9.00002022 L6.00006742,11.2500202 Z M6.75,10.5000876 L7.49993258,10.5000876 L7.49993258,9.74995281 L6.75,9.74995281 L6.75,10.5000876 Z" id="Fill-9" fill="#000000"></path>
                <path d="M12.7500674,9.74995281 L15.0000674,9.74995281 L15.0000674,7.49995281 L12.7500674,7.49995281 L12.7500674,9.74995281 Z M13.5,9.00002022 L14.2499326,9.00002022 L14.2499326,8.25008764 L13.5,8.25008764 L13.5,9.00002022 Z" id="Fill-10" fill="#000000"></path>
                <path d="M12.7500674,12.7500876 L15.0000674,12.7500876 L15.0000674,10.5000876 L12.7500674,10.5000876 L12.7500674,12.7500876 Z M13.5,11.9999528 L14.2499326,11.9999528 L14.2499326,11.2500202 L13.5,11.2500202 L13.5,11.9999528 Z" id="Fill-11" fill="#000000"></path>
            </g>
        </g>
    </g>
</svg>