<?xml version="1.0" encoding="UTF-8"?>
<svg width="24px" height="27px" viewBox="0 0 24 27" version="1.1" xmlns="http://www.w3.org/2000/svg" xmlns:xlink="http://www.w3.org/1999/xlink">
    <!-- Generator: Sketch 52.5 (67469) - http://www.bohemiancoding.com/sketch -->
    <title>icon-notificatio</title>
    <desc>Created with Sketch.</desc>
    <g id="Page-1" stroke="none" stroke-width="1" fill="none" fill-rule="evenodd" opacity="0.5">
        <g id="ver-7nav" transform="translate(-1134.000000, -14.000000)" stroke="#000000">
            <g id="notification" transform="translate(1135.000000, 10.000000)">
                <g id="icon-notificatio" transform="translate(0.000000, 5.000000)">
                    <path d="M6.23,5.63 C5.76943043,5.95926615 5.35565757,6.34949096 5,6.79 C4.40261017,7.50544868 3.96607378,8.34100661 3.72,9.24 C3.68310804,9.39238943 3.5467913,9.4997905 3.39,9.5 L3.3,9.5 C3.21032741,9.47883039 3.13308602,9.42217363 3.08595915,9.3430005 C3.03883229,9.26382738 3.02585563,9.1689178 3.05,9.08 C3.47101371,7.46093959 4.45250572,6.04362262 5.82,5.08 C5.89549087,5.02534811 5.98966103,5.00306103 6.08164032,5.01807806 C6.1736196,5.03309508 6.25581133,5.08417594 6.31,5.16 C6.405757,5.31440761 6.37144887,5.51596786 6.23,5.63 Z M3.36,12.46 L3.29,12.46 C3.14546059,12.4414474 3.02881644,12.3328477 3,12.19 C2.90647487,11.7991336 2.84625919,11.4010411 2.82,11 C2.81992265,10.8105392 2.97061651,10.6554132 3.16,10.65 C3.34946082,10.6499227 3.50458685,10.8006165 3.51,10.99 C3.51143747,11.359339 3.54827257,11.72769 3.62,12.09 C3.63980189,12.2614468 3.52801286,12.4205312 3.36,12.46 Z M21.87,15 C21.763193,14.7332675 21.6071441,14.4890171 21.41,14.28 C21.1790194,14.0474931 20.8987994,13.8697926 20.59,13.76 C19.5095592,13.0557335 18.6717216,12.0363645 18.19,10.84 L16.87,7.41 C16.0625331,5.31371172 14.4490468,3.62819471 12.39,2.73 C11.0758906,2.13218502 9.62560879,1.89737749 8.19,2.05 L8.19,1.99 C7.97849022,1.42019092 7.55092961,0.956700861 7,0.7 C6.43309213,0.429179062 5.78007289,0.402056385 5.19265963,0.624933439 C4.60524638,0.847810494 4.13457587,1.30128491 3.89,1.88 C3.63888907,2.43993707 3.62089915,3.07678011 3.84,3.65 L3.84,3.7 C0.836523246,5.97071648 -0.304795898,9.95310507 1.04,13.47 L2.36,16.92 C2.79352827,18.1135231 2.85627052,19.4101963 2.54,20.64 C2.20176625,21.1976827 2.1390654,21.8800154 2.37,22.49 C2.70602454,23.2136449 3.54972835,23.547611 4.29,23.25 L21,16.89 C21.3679057,16.7572528 21.6671657,16.4824404 21.8307108,16.1271526 C21.994256,15.7718648 22.0084098,15.365813 21.87,15 Z" id="Shape"></path>
                    <path d="M12.31,21 L11.66,21.25 L7.48,22.83 L6.83,23.08 C7.50503255,24.330394 9.00494952,24.8832205 10.33,24.37 L10.58,24.27 C11.2770673,24.0014823 11.8408469,23.4700213 12.15,22.79 C12.3993003,22.2273117 12.4555532,21.5979825 12.31,21 Z" id="Shape"></path>
                </g>
            </g>
        </g>
    </g>
</svg>