<?xml version="1.0" encoding="UTF-8"?>
<svg width="22px" height="22px" viewBox="0 0 22 22" version="1.1" xmlns="http://www.w3.org/2000/svg" xmlns:xlink="http://www.w3.org/1999/xlink">
    <!-- Generator: sketchtool 52.4 (67378) - http://www.bohemiancoding.com/sketch -->
    <title>8B97883E-0117-4290-9BC8-1A7A62DF3CFF</title>
    <desc>Created with sketchtool.</desc>
    <defs>
        <polygon id="path-1" points="0 -0.000253846154 21.5760769 -0.000253846154 21.5760769 21.5766692 0 21.5766692"></polygon>
    </defs>
    <g id="Page-1" stroke="none" stroke-width="1" fill="none" fill-rule="evenodd">
        <g id="dashboard" transform="translate(-21.000000, -383.000000)">
            <g id="settings-icon" transform="translate(21.000000, 383.000000)">
                <mask id="mask-2" fill="white">
                    <use xlink:href="#path-1"></use>
                </mask>
                <g id="Clip-2"></g>
                <path d="M0,18.4298231 C0,20.1695154 1.40715385,21.5766692 3.14684615,21.5766692 C4.01415385,21.5766692 4.82307692,21.2483615 5.39423077,20.6772077 L11.1294615,14.9377462 L12.6669231,16.4743615 C12.4604615,17.2299769 12.6584615,18.0752846 13.2566923,18.6769 L15.4854615,20.9065154 C16.3756154,21.7924385 17.8005385,21.8009 18.6771538,20.9251308 C19.5537692,20.0476692 19.5453077,18.6235923 18.6593846,17.7334385 L16.4297692,15.5038231 C15.8273077,14.9055923 14.982,14.7084385 14.2272308,14.9149 L12.6897692,13.3816692 L13.6789231,12.3933615 C15.7816154,12.9239 18.1017692,12.3705154 19.7424615,10.7662077 C20.8712308,9.66028462 21.4914615,8.25820769 21.5769231,6.80620769 L21.5769231,6.72920769 C21.5769231,6.23928462 21.1716154,5.84328462 20.6732308,5.84328462 C20.4253077,5.84328462 20.2010769,5.94313077 20.0343846,6.09966923 L19.7695385,6.36113077 L18.8616154,7.25043846 C18.2904615,7.80805385 17.4764615,8.13551538 16.6006923,8.13551538 C15.7283077,8.13551538 14.9591538,7.7539 14.3888462,7.19205385 C13.827,6.62174615 13.4403077,5.84836154 13.4403077,4.97682308 C13.4403077,4.09936154 13.7686154,3.28620769 14.3262308,2.71505385 L15.2155385,1.80628462 L15.477,1.54228462 C15.6335385,1.37559231 15.7325385,1.15136154 15.7325385,0.903438462 C15.7325385,0.405053846 15.3373846,-0.000253846154 14.8466154,-0.000253846154 L14.7704615,-0.000253846154 C13.3193077,0.0852076923 11.9163846,0.706284615 10.8104615,1.83420769 C9.20615385,3.4749 8.657,5.79420769 9.18753846,7.89351538 L8.195,8.8869 L4.04546154,4.73313077 L4.04546154,3.5959 L1.34876923,2.24713077 L0,3.5959 L1.34876923,6.29343846 L2.48092308,6.29343846 L6.63469231,10.4421308 L0.898615385,16.1824385 C0.328307692,16.7535923 0,17.5625154 0,18.4298231 M2.24738462,18.2047462 C2.24738462,17.5845154 2.75084615,17.0819 3.37107692,17.0819 C3.99130769,17.0819 4.49476923,17.5845154 4.49476923,18.2047462 C4.49476923,18.8258231 3.99130769,19.3292846 3.37107692,19.3292846 C2.75084615,19.3292846 2.24738462,18.8258231 2.24738462,18.2047462" id="Fill-1" fill="#FFFFFF" mask="url(#mask-2)"></path>
            </g>
        </g>
    </g>
</svg>