<?xml version="1.0" encoding="UTF-8"?>
<svg width="18px" height="17px" viewBox="0 0 18 17" version="1.1" xmlns="http://www.w3.org/2000/svg" xmlns:xlink="http://www.w3.org/1999/xlink">
    <!-- Generator: Sketch 52.5 (67469) - http://www.bohemiancoding.com/sketch -->
    <title>icon-eventLog</title>
    <desc>Created with Sketch.</desc>
    <g id="Page-1" stroke="none" stroke-width="1" fill="none" fill-rule="evenodd">
        <g id="icon-eventLog" fill="#000000">
            <path d="M10,16.5288872 L18,16.5288872 L18,7.52822581 L10,7.52822581 L10,16.5288872 Z M11,10.5282258 L17,10.5282258 L17,9.52822581 L11,9.52822581 L11,10.5282258 Z M11,12.5282258 L17,12.5282258 L17,11.5282258 L11,11.5282258 L11,12.5282258 Z M11,14.5282258 L16,14.5282258 L16,13.5282258 L11,13.5282258 L11,14.5282258 Z" id="Fill-1"></path>
            <polygon id="Fill-2" points="2 8.52822581 3 8.52822581 3 7.52822581 2 7.52822581"></polygon>
            <polygon id="Fill-2-Copy" points="4 8.52822581 5 8.52822581 5 7.52822581 4 7.52822581"></polygon>
            <polygon id="Fill-2-Copy-2" points="6 8.52822581 7 8.52822581 7 7.52822581 6 7.52822581"></polygon>
            <polygon id="Fill-2-Copy-3" points="8 8.52822581 9 8.52822581 9 7.52822581 8 7.52822581"></polygon>
            <polygon id="Fill-2-Copy-7" points="2 10.5282258 3 10.5282258 3 9.52822581 2 9.52822581"></polygon>
            <polygon id="Fill-2-Copy-6" points="4 10.5282258 5 10.5282258 5 9.52822581 4 9.52822581"></polygon>
            <polygon id="Fill-2-Copy-5" points="6 10.5282258 7 10.5282258 7 9.52822581 6 9.52822581"></polygon>
            <polygon id="Fill-2-Copy-4" points="8 10.5282258 9 10.5282258 9 9.52822581 8 9.52822581"></polygon>
            <polygon id="Fill-2-Copy-11" points="2 12.5282258 3 12.5282258 3 11.5282258 2 11.5282258"></polygon>
            <polygon id="Fill-2-Copy-10" points="4 12.5282258 5 12.5282258 5 11.5282258 4 11.5282258"></polygon>
            <polygon id="Fill-2-Copy-9" points="6 12.5282258 7 12.5282258 7 11.5282258 6 11.5282258"></polygon>
            <polygon id="Fill-2-Copy-8" points="8 12.5282258 9 12.5282258 9 11.5282258 8 11.5282258"></polygon>
            <polygon id="Fill-2-Copy-15" points="2 14.5282258 3 14.5282258 3 13.5282258 2 13.5282258"></polygon>
            <polygon id="Fill-2-Copy-14" points="4 14.5282258 5 14.5282258 5 13.5282258 4 13.5282258"></polygon>
            <polygon id="Fill-2-Copy-13" points="6 14.5282258 7 14.5282258 7 13.5282258 6 13.5282258"></polygon>
            <polygon id="Fill-2-Copy-12" points="8 14.5282258 9 14.5282258 9 13.5282258 8 13.5282258"></polygon>
            <path d="M3.23115321,1.95630326 C3.23115321,1.95630326 3.23115321,1.83113037 3.30674787,1.75090907 C3.30674787,1.75090907 3.38234252,1.67068777 3.50029625,1.67068777 L4.03858234,1.67068777 C4.03858234,1.67068777 4.15653607,1.67068777 4.23213073,1.75090907 C4.23213073,1.75090907 4.30772538,1.83113037 4.30772538,1.95630326 L4.30772538,4.52753424 C4.30772538,4.52753424 4.30772538,4.65270713 4.23213073,4.73292843 C4.23213073,4.73292843 4.15653607,4.8138413 4.03858234,4.8138413 L3.50029625,4.8138413 C3.50029625,4.8138413 3.38234252,4.8138413 3.30674787,4.73292843 C3.30674787,4.73292843 3.23115321,4.65270713 3.23115321,4.52753424 L3.23115321,1.95630326 Z M9.69254128,1.95630326 C9.69254128,1.95630326 9.69254128,1.83113037 9.76813594,1.75090907 C9.76813594,1.75090907 9.8437306,1.67068777 9.96168433,1.67068777 L10.4999704,1.67068777 C10.4999704,1.67068777 10.6179241,1.67068777 10.6935188,1.75090907 C10.6935188,1.75090907 10.7691135,1.83113037 10.7691135,1.95630326 L10.7691135,4.52753424 C10.7691135,4.52753424 10.7691135,4.65270713 10.6935188,4.73292843 C10.6935188,4.73292843 10.6179241,4.8138413 10.4999704,4.8138413 L9.96168433,4.8138413 C9.96168433,4.8138413 9.8437306,4.8138413 9.76813594,4.73292843 C9.76813594,4.73292843 9.69254128,4.65270713 9.69254128,4.52753424 L9.69254128,1.95630326 Z M8.38918514,15.5720892 L1.07670551,15.5720892 L1.07670551,6.52287275 L12.9235612,6.52287275 L12.9235612,7.52822581 L14.0001333,7.52822581 L14.0001333,3.95630326 C14.0001333,3.95630326 14.0001333,3.49226453 13.6808111,3.15270713 C13.6808111,3.15270713 13.3608371,2.8138413 12.9235612,2.8138413 L11.846989,2.8138413 L11.846989,1.95630326 C11.846989,1.95630326 11.846989,1.36709164 11.4507687,0.947312943 C11.4507687,0.947312943 11.0558518,0.528225806 10.4999704,0.528225806 L9.96168433,0.528225806 C9.96168433,0.528225806 9.40710629,0.528225806 9.01088602,0.947312943 C9.01088602,0.947312943 8.61596911,1.36709164 8.61596911,1.95630326 L8.61596911,2.8138413 L5.38494923,2.8138413 L5.38494923,1.95630326 C5.38494923,1.95630326 5.38494923,1.36709164 4.98938065,0.947312943 C4.98938065,0.947312943 4.59381206,0.528225806 4.03858234,0.528225806 L3.50029625,0.528225806 C3.50029625,0.528225806 2.94506654,0.528225806 2.54949795,0.947312943 C2.54949795,0.947312943 2.15392936,1.36709164 2.15392936,1.95630326 L2.15392936,2.8138413 L1.07670551,2.8138413 C1.07670551,2.8138413 0.639429521,2.8138413 0.319455588,3.15270713 C0.319455588,3.15270713 0.000133333333,3.49226453 0.000133333333,3.95630326 L0.000133333333,15.3850723 C0.000133333333,15.3850723 0.000133333333,15.849111 0.319455588,16.1886684 C0.319455588,16.1886684 0.639429521,16.5282258 1.07670551,16.5282258 L8.38918514,16.5282258 L8.38918514,15.5720892 Z" id="Fill-11"></path>
        </g>
    </g>
</svg>