<?xml version="1.0" encoding="UTF-8"?>
<svg width="22px" height="22px" viewBox="0 0 22 22" version="1.1" xmlns="http://www.w3.org/2000/svg" xmlns:xlink="http://www.w3.org/1999/xlink">
    <!-- Generator: sketchtool 52.4 (67378) - http://www.bohemiancoding.com/sketch -->
    <title>5E78B27A-CC9B-4456-BFE4-4A0BA4315102</title>
    <desc>Created with sketchtool.</desc>
    <defs>
        <polygon id="path-1" points="0.000169230769 8.46153846e-05 21.7148462 8.46153846e-05 21.7148462 21.7145077 0.000169230769 21.7145077"></polygon>
    </defs>
    <g id="Page-1" stroke="none" stroke-width="1" fill="none" fill-rule="evenodd">
        <g id="dashboard" transform="translate(-21.000000, -93.000000)">
            <g id="dashboard-icon" transform="translate(21.000000, 93.000000)">
                <mask id="mask-2" fill="white">
                    <use xlink:href="#path-1"></use>
                </mask>
                <g id="Clip-2"></g>
                <path d="M10.8571692,8.46153846e-05 C4.86132308,8.46153846e-05 0.000169230769,4.86123846 0.000169230769,10.8570846 C0.000169230769,16.8529308 4.86132308,21.7149308 10.8571692,21.7149308 C16.8530154,21.7149308 21.7150154,16.8529308 21.7150154,10.8570846 C21.7150154,4.86123846 16.8530154,8.46153846e-05 10.8571692,8.46153846e-05 M10.8571692,1.80916154 C11.3564,1.80916154 11.7617077,2.21531538 11.7617077,2.71454615 C11.7617077,3.21377692 11.3564,3.61908462 10.8571692,3.61908462 C10.3579385,3.61908462 9.95263077,3.21377692 9.95263077,2.71454615 C9.95263077,2.21531538 10.3579385,1.80916154 10.8571692,1.80916154 M2.71378462,11.7616231 C2.2154,11.7616231 1.80924615,11.3563154 1.80924615,10.8570846 C1.80924615,10.3578538 2.2154,9.95254615 2.71378462,9.95254615 C3.21386154,9.95254615 3.61916923,10.3578538 3.61916923,10.8570846 C3.61916923,11.3563154 3.21386154,11.7616231 2.71378462,11.7616231 M5.73878462,17.2548538 C5.38509231,17.6085462 4.81224615,17.6085462 4.4594,17.2548538 C4.10570769,16.9011615 4.10570769,16.3283154 4.4594,15.9754692 C4.81309231,15.6217769 5.38593846,15.6217769 5.73878462,15.9754692 C6.09247692,16.3283154 6.09247692,16.9020077 5.73878462,17.2548538 M5.73878462,5.7387 C5.38509231,6.09239231 4.81224615,6.09239231 4.4594,5.7387 C4.10570769,5.38500769 4.10570769,4.81216154 4.4594,4.46016154 C4.81309231,4.10562308 5.38593846,4.10562308 5.73878462,4.46016154 C6.09247692,4.81216154 6.09247692,5.38585385 5.73878462,5.7387 M9.57778462,12.1364692 C8.87124615,11.4299308 8.87124615,10.2842385 9.57778462,9.5777 C10.0220154,9.13346923 13.6283231,6.53831538 16.2480154,4.67000769 C16.7734769,4.29516154 17.4207846,4.94162308 17.0450923,5.46623846 C15.1767846,8.08593077 12.5807846,11.6922385 12.1365538,12.1364692 C11.4300154,12.8430077 10.2843231,12.8430077 9.57778462,12.1364692 M17.2549385,17.2548538 C16.9012462,17.6085462 16.3284,17.6085462 15.9755538,17.2548538 C15.6227077,16.9011615 15.6218615,16.3283154 15.9755538,15.9754692 C16.3292462,15.6217769 16.9020923,15.6217769 17.2549385,15.9754692 C17.6086308,16.3283154 17.6086308,16.9020077 17.2549385,17.2548538 M19.0005538,11.7616231 C18.5004769,11.7616231 18.0951692,11.3563154 18.0951692,10.8570846 C18.0951692,10.3578538 18.5004769,9.95254615 19.0005538,9.95254615 C19.4997846,9.95254615 19.9050923,10.3578538 19.9050923,10.8570846 C19.9050923,11.3563154 19.4997846,11.7616231 19.0005538,11.7616231" id="Fill-1" fill="#FFFFFF" mask="url(#mask-2)"></path>
            </g>
        </g>
    </g>
</svg>