<?xml version="1.0" encoding="UTF-8"?>
<svg width="20px" height="18px" viewBox="0 0 20 18" version="1.1" xmlns="http://www.w3.org/2000/svg" xmlns:xlink="http://www.w3.org/1999/xlink">
    <!-- Generator: Sketch 53.1 (72631) - https://sketchapp.com -->
    <title>icon-new-hire-light</title>
    <desc>Created with Sketch.</desc>
    <g id="generic" stroke="none" stroke-width="1" fill="none" fill-rule="evenodd">
        <g id="nav" transform="translate(-390.000000, -124.000000)" fill="#FFFFFF">
            <g id="icon-new-hire-light" transform="translate(390.000000, 124.000000)">
                <path d="M6.31578947,10.4210526 C7.76947368,10.4210526 9.08526316,9.83747368 10.0378947,8.89436842 C10.9894737,7.95230526 11.5789474,6.64967368 11.5789474,5.21052632 C11.5789474,3.77137895 10.9894737,2.46874737 10.0378947,1.52668421 C9.08526316,0.583578947 7.76947368,0 6.31578947,0 C4.86210526,0 3.54631579,0.583578947 2.59368421,1.52668421 C1.64210526,2.46874737 1.05263158,3.77137895 1.05263158,5.21052632 C1.05263158,6.64967368 1.64210526,7.95230526 2.59368421,8.89436842 C3.54631579,9.83747368 4.86210526,10.4210526 6.31578947,10.4210526 Z" id="Path"></path>
                <path d="M6.31578947,17.7157895 C10.0189474,17.7157895 12.6315789,16.6736842 12.6315789,15.6315789 C12.6315789,13.5473684 10.1536842,11.4631579 6.31578947,11.4631579 C2.36842105,11.4631579 0,13.5473684 0,15.6315789 C0,16.6736842 2.36842105,17.7157895 6.31578947,17.7157895 Z" id="Path"></path>
                <path d="M18.9473684,8.33684211 L16.8421053,8.33684211 L16.8421053,6.25263158 C16.8421053,5.67634737 16.3715789,5.21052632 15.7894737,5.21052632 C15.2073684,5.21052632 14.7368421,5.67634737 14.7368421,6.25263158 L14.7368421,8.33684211 L12.6315789,8.33684211 C12.0494737,8.33684211 11.5789474,8.80266316 11.5789474,9.37894737 C11.5789474,9.95523158 12.0494737,10.4210526 12.6315789,10.4210526 L14.7368421,10.4210526 L14.7368421,12.5052632 C14.7368421,13.0815474 15.2073684,13.5473684 15.7894737,13.5473684 C16.3715789,13.5473684 16.8421053,13.0815474 16.8421053,12.5052632 L16.8421053,10.4210526 L18.9473684,10.4210526 C19.5294737,10.4210526 20,9.95523158 20,9.37894737 C20,8.80266316 19.5294737,8.33684211 18.9473684,8.33684211 Z" id="Path"></path>
            </g>
        </g>
    </g>
</svg>