<?xml version="1.0" encoding="UTF-8"?>
<svg width="15px" height="18px" viewBox="0 0 15 18" version="1.1" xmlns="http://www.w3.org/2000/svg" xmlns:xlink="http://www.w3.org/1999/xlink">
    <!-- Generator: Sketch 52.6 (67491) - http://www.bohemiancoding.com/sketch -->
    <title>icon-pdf-black</title>
    <desc>Created with Sketch.</desc>
    <g id="Page-1" stroke="none" stroke-width="1" fill="none" fill-rule="evenodd">
        <path d="M9.72740769,12.1324846 L9.72740769,12.7084846 L8.60240769,12.7084846 L8.60240769,13.9684846 L7.8921,13.9684846 L7.8921,10.8357923 L9.80633077,10.8357923 L9.80633077,11.4166385 L8.60240769,11.4166385 L8.60240769,12.1324846 L9.72740769,12.1324846 Z M3.50141538,11.8072385 C3.50141538,12.1277769 3.2688,12.3181615 2.89287692,12.3181615 C2.79041538,12.3181615 2.71564615,12.3133154 2.65541538,12.2994692 L2.65541538,11.3745462 C2.70664615,11.3607 2.80426154,11.3468538 2.94826154,11.3468538 C3.30133846,11.3468538 3.50141538,11.5185462 3.50141538,11.8072385 Z M5.68716923,11.3566846 C6.29570769,11.3566846 6.67716923,11.7007615 6.67232308,12.3515308 C6.67232308,13.0992231 6.25416923,13.4523 5.61309231,13.4481462 C5.52447692,13.4481462 5.42686154,13.4481462 5.36593846,13.4336077 L5.36593846,11.3843769 C5.42686154,11.3705308 5.52863077,11.3566846 5.68716923,11.3566846 Z M4.65556154,13.9539462 L4.65556154,10.8773308 C4.91586923,10.8357923 5.25440769,10.8129462 5.61302308,10.8129462 C6.20771538,10.8129462 6.59333077,10.9195615 6.89517692,11.1473308 C7.22056154,11.3889462 7.42548462,11.7745615 7.42548462,12.3277154 C7.42548462,12.9272538 7.20671538,13.3412538 6.90486923,13.5960231 C6.57463846,13.8701769 6.07271538,14.0003308 5.45933077,14.0003308 C5.09240769,14.0003308 4.8321,13.9774846 4.65556154,13.9539462 Z M12.2896385,16.8678692 L2.77317692,16.8678692 C2.37925385,16.8678692 2.05802308,16.5466385 2.05802308,16.1520231 L2.05802308,15.3233308 L10.9285615,15.3233308 C11.3397923,15.3233308 11.6741769,14.9903308 11.6741769,14.5791 L11.6741769,10.0624846 C11.6741769,9.65125385 11.3397923,9.31756154 10.9285615,9.31756154 L2.05802308,9.31756154 L2.05802308,2.4831 C2.05802308,2.08986923 2.37925385,1.76794615 2.77317692,1.76794615 L9.32448462,1.76171538 L9.32448462,4.18271538 C9.32448462,4.89025385 9.89840769,5.46486923 10.6066385,5.46486923 L12.9777923,5.45794615 L13.0047923,16.1520231 C13.0047923,16.5466385 12.6842538,16.8678692 12.2896385,16.8678692 Z M1.95348462,10.8773308 C2.17225385,10.8406385 2.47825385,10.8129462 2.91094615,10.8129462 C3.34779231,10.8129462 3.65863846,10.8960231 3.86840769,11.0635615 C4.06779231,11.2214077 4.20348462,11.4824077 4.20348462,11.7884077 C4.20348462,12.0951 4.10102308,12.3554077 3.91479231,12.5319462 C3.67317692,12.7597154 3.31525385,12.8621769 2.8971,12.8621769 C2.80433077,12.8621769 2.72056154,12.8573308 2.65548462,12.8483308 L2.65548462,13.9684846 L1.95348462,13.9684846 L1.95348462,10.8773308 Z M9.74748462,0.635330769 L2.77317692,0.635330769 C1.7541,0.635330769 0.925407692,1.46471538 0.925407692,2.4831 L0.925407692,9.31756154 L0.744715385,9.31756154 C0.333484615,9.31756154 -0.000207692308,9.65125385 -0.000207692308,10.0624846 L-0.000207692308,14.5791 C-0.000207692308,14.9903308 0.333484615,15.3233308 0.744715385,15.3233308 L0.925407692,15.3233308 L0.925407692,16.1520231 C0.925407692,17.1711 1.7541,17.9997923 2.77317692,17.9997923 L12.2896385,17.9997923 C13.3080231,17.9997923 14.1374077,17.1711 14.1374077,16.1520231 L14.1374077,5.00933077 L9.74748462,0.635330769 Z" id="icon-pdf-black" fill="#000000"></path>
    </g>
</svg>