<?xml version="1.0" encoding="UTF-8"?>
<svg width="16px" height="18px" viewBox="0 0 16 18" version="1.1" xmlns="http://www.w3.org/2000/svg" xmlns:xlink="http://www.w3.org/1999/xlink">
    <!-- Generator: Sketch 52.5 (67469) - http://www.bohemiancoding.com/sketch -->
    <title>icon-dependendents</title>
    <desc>Created with Sketch.</desc>
    <g id="Page-1" stroke="none" stroke-width="1" fill="none" fill-rule="evenodd">
        <g id="icon-dependendents" fill="#FEFEFE">
            <path d="M7.67127273,1.94206154 C7.67127273,3.01444615 6.71272727,3.88467692 5.52945455,3.88467692 C4.34618182,3.88467692 3.38690909,3.01444615 3.38690909,1.94206154 C3.38690909,0.869676923 4.34618182,0.000138461538 5.52945455,0.000138461538 C6.71272727,0.000138461538 7.67127273,0.869676923 7.67127273,1.94206154" id="Fill-1"></path>
            <path d="M11.0334545,10.2501 L9.59418182,5.37348462 C9.01381818,4.93940769 8.27927273,4.60848462 7.42181818,4.40217692 C6.84,4.25748462 6.19854545,4.1751 5.52509091,4.1751 C4.85163636,4.1751 4.23927273,4.25748462 3.62690909,4.40217692 C2.80145455,4.60848462 2.06690909,4.93940769 1.45454545,5.37348462 L0.0167272727,10.2501 C-0.0756363636,10.5810231 0.230545455,10.9112538 0.750545455,10.9735615 C0.811636364,10.9735615 0.872727273,10.9943308 0.933818182,10.9943308 C1.36290909,10.9943308 1.76072727,10.7873308 1.82181818,10.4979462 L3.10763636,6.30325385 L3.10763636,17.4002538 L4.94327273,17.4002538 L4.94327273,10.9943308 L6.168,10.9943308 L6.168,17.4002538 L8.00363636,17.4002538 L8.00363636,6.30325385 L9.25890909,10.4979462 C9.32,10.7873308 9.71709091,10.9943308 10.1454545,10.9943308 C10.2065455,10.9943308 10.2676364,10.9943308 10.3294545,10.9735615 C10.8189091,10.9112538 11.1556364,10.5810231 11.0334545,10.2501" id="Fill-3"></path>
            <path d="M14.3672727,10.4258769 C14.3672727,11.0628 13.7978182,11.5792615 13.0952727,11.5792615 C12.392,11.5792615 11.8232727,11.0628 11.8232727,10.4258769 C11.8232727,9.78895385 12.392,9.27249231 13.0952727,9.27249231 C13.7978182,9.27249231 14.3672727,9.78895385 14.3672727,10.4258769" id="Fill-5"></path>
            <path d="M15.8424,14.4117 L14.9514909,12.5722385 C14.6467636,12.1997769 14.1631273,11.9152385 13.6293091,11.7837 C13.4765818,11.7615462 13.2729455,11.7400846 13.0954909,11.7400846 L11.8234909,11.7400846 L10.4744,9.76908462 C10.3216727,9.55031538 10.0162182,9.48454615 9.78785455,9.61608462 C9.53330909,9.74762308 9.45694545,10.0100077 9.60967273,10.2073154 L11.8234909,13.4480077 L11.8234909,17.4336231 L12.8402182,17.4336231 L12.8402182,14.8056231 L13.3493091,14.8056231 L13.3493091,17.4336231 L14.3674909,17.4336231 L14.3674909,13.6231615 L14.9267636,14.7620077 C15.0031273,14.9371615 15.2067636,15.0250846 15.3842182,15.0250846 C15.4613091,15.0250846 15.5114909,15.0250846 15.5878545,14.9807769 C15.8424,14.8935462 15.9696727,14.6304692 15.8424,14.4117" id="Fill-7"></path>
        </g>
    </g>
</svg>