<?xml version="1.0" encoding="UTF-8"?>
<svg width="18px" height="18px" viewBox="0 0 18 18" version="1.1" xmlns="http://www.w3.org/2000/svg" xmlns:xlink="http://www.w3.org/1999/xlink">
    <!-- Generator: Sketch 52.5 (67469) - http://www.bohemiancoding.com/sketch -->
    <title>icon-directDeposit</title>
    <desc>Created with Sketch.</desc>
    <defs>
        <polygon id="path-1" points="0 0.438132182 17.8577242 0.438132182 17.8577242 13.0344828 0 13.0344828"></polygon>
        <polygon id="path-3" points="0.340758621 0.477931034 4.91462069 0.477931034 4.91462069 5.05036552 0.340758621 5.05036552"></polygon>
    </defs>
    <g id="Page-1" stroke="none" stroke-width="1" fill="none" fill-rule="evenodd">
        <g id="icon-directDeposit">
            <g id="Group-3" transform="translate(0.000000, 4.487648)">
                <mask id="mask-2" fill="white">
                    <use xlink:href="#path-1"></use>
                </mask>
                <g id="Clip-2"></g>
                <path d="M17.7521586,7.58234483 C17.4896069,7.38682759 17.1289862,7.27696552 16.7994,7.28503448 C16.4958828,7.04855172 16.1154,6.89710345 15.9118138,6.81641379 L15.8460207,6.79096552 C15.8385724,6.78724138 15.8305034,6.78848276 15.8224345,6.786 C15.8236759,6.74006897 15.8280207,6.69537931 15.8280207,6.64944828 C15.8280207,4.04503448 13.7884345,1.82793103 10.9202276,0.948413793 C10.4199517,1.56910345 9.65464138,1.96758621 8.79684828,1.96758621 C7.83229655,1.96758621 6.98505517,1.46296552 6.50029655,0.705103448 C6.36436552,0.731793103 6.23277931,0.762827586 6.10181379,0.795724138 C6.13408966,0.834206897 6.17071034,0.867724138 6.20050345,0.908068966 C6.56484828,1.40213793 6.63126207,1.99862069 6.37615862,2.50262069 C6.10988276,3.03082759 5.54815862,3.35917241 4.91008966,3.35917241 C4.82691724,3.35917241 4.74126207,3.35358621 4.65436552,3.3417931 C3.82264138,3.23193103 3.49181379,2.70372414 3.32546897,2.24689655 C2.68677931,2.82351724 2.18774483,3.51310345 1.86374483,4.29331034 L1.27346897,4.29331034 C0.570848276,4.29331034 -0.000186206897,4.90406897 -0.000186206897,5.65572414 L-0.000186206897,6.87289655 C-0.000186206897,7.62455172 0.570848276,8.23593103 1.27346897,8.23593103 L1.61112414,8.23593103 C1.99905517,9.71875862 2.93381379,10.9781379 4.32229655,11.7881379 L4.33843448,12.4870345 C4.34650345,12.8395862 4.51967586,12.9624828 4.62146897,13.004069 C4.65871034,13.0202069 4.71084828,13.0344828 4.77415862,13.0344828 C4.8834,13.0344828 5.02615862,12.9910345 5.18629655,12.8364828 L5.66298621,12.3784138 C6.42208966,12.6204828 7.26436552,12.7595172 8.19229655,12.7595172 C9.4374,12.7595172 10.5018828,12.6124138 11.4167793,12.3542069 L11.9189172,12.8364828 C12.0796759,12.9910345 12.2224345,13.0344828 12.3322966,13.0344828 C12.3949862,13.0344828 12.4471241,13.0202069 12.4843655,13.004069 C12.5867793,12.9624828 12.7599517,12.8395862 12.7674,12.4870345 L12.7822966,11.8303448 C14.685331,10.8657931 15.6182276,9.23586207 15.7945034,7.33841379 C15.9192621,7.38993103 16.0347103,7.44144828 16.1352621,7.49172414 C15.9788483,7.61524138 15.8801586,7.78841379 15.8522276,7.99448276 C15.8162276,8.26262069 15.9099517,8.50406897 16.1098138,8.65675862 C16.2364345,8.75296552 16.393469,8.80262069 16.5505034,8.80262069 C16.645469,8.80262069 16.7416759,8.78462069 16.8304345,8.74675862 C17.0650552,8.64744828 17.2177448,8.43393103 17.2494,8.1602069 C17.2605724,8.06586207 17.2549862,7.97710345 17.2357448,7.89331034 C17.3096069,7.92248276 17.3785034,7.95972414 17.437469,8.00441379 C17.5541586,8.09068966 17.7192621,8.06710345 17.8055379,7.95103448 C17.8924345,7.83372414 17.8682276,7.66986207 17.7521586,7.58234483 M4.82567586,4.78117241 C4.73505517,5.47696552 4.25526207,5.9877931 3.75436552,5.92324138 C3.74381379,5.922 3.73388276,5.91703448 3.72333103,5.91455172 C3.37450345,5.85310345 3.11443448,5.52351724 3.02877931,5.0877931 C2.99526207,4.91896552 2.98533103,4.73586207 3.01077931,4.54406897 C3.1014,3.84889655 3.58057241,3.33806897 4.08208966,3.40324138 C4.5836069,3.4677931 4.91629655,4.08475862 4.82567586,4.78117241 M16.6249862,8.26262069 C16.5629172,8.28868966 16.4822276,8.27875862 16.429469,8.23841379 C16.3816759,8.20117241 16.3636759,8.14468966 16.3742276,8.06462069 C16.3829172,7.9982069 16.4108483,7.9137931 16.5436759,7.85793103 C16.5685034,7.84737931 16.5945724,7.83931034 16.6231241,7.83186207 C16.701331,7.92248276 16.7367103,8.01186207 16.7267793,8.09937931 C16.7168483,8.1837931 16.683331,8.23655172 16.6249862,8.26262069 M2.76622759,0.815586207 C2.76622759,0.815586207 4.61898621,-0.0968275862 5.68098621,0.915517241 C5.75174483,0.983172414 5.81815862,1.05827586 5.88146897,1.14331034 C6.54622759,2.04393103 5.80574483,3.09351724 4.70650345,2.94827586 C4.00574483,2.85641379 3.77981379,2.39710345 3.64822759,1.96137931 C3.58926207,1.764 3.54953793,1.57096552 3.49367586,1.41827586 C3.34471034,1.00675862 2.76622759,0.815586207 2.76622759,0.815586207" id="Fill-1" fill="#000000" mask="url(#mask-2)"></path>
            </g>
            <g id="Group-6" transform="translate(6.206897, 0.142821)">
                <mask id="mask-4" fill="white">
                    <use xlink:href="#path-3"></use>
                </mask>
                <g id="Clip-5"></g>
                <path d="M2.62737931,0.477744828 C3.888,0.477744828 4.91462069,1.50312414 4.91462069,2.76436552 C4.91462069,3.49988276 4.55896552,4.14850345 4.01772414,4.56684828 C3.63103448,4.8654 3.15310345,5.05036552 2.62737931,5.05036552 C2.00793103,5.05036552 1.4462069,4.80084828 1.03406897,4.39802069 C0.607655172,3.9834 0.340758621,3.40491724 0.340758621,2.76436552 C0.340758621,1.50312414 1.36737931,0.477744828 2.62737931,0.477744828" id="Fill-4" fill="#000000" mask="url(#mask-4)"></path>
            </g>
        </g>
    </g>
</svg>