<?xml version="1.0" encoding="UTF-8"?>
<svg width="18px" height="15px" viewBox="0 0 18 15" version="1.1" xmlns="http://www.w3.org/2000/svg" xmlns:xlink="http://www.w3.org/1999/xlink">
    <!-- Generator: Sketch 52.5 (67469) - http://www.bohemiancoding.com/sketch -->
    <title>Group 6</title>
    <desc>Created with Sketch.</desc>
    <defs>
        <polygon id="path-1" points="0 0.308108571 17.9861143 0.308108571 17.9861143 10.8 0 10.8"></polygon>
    </defs>
    <g id="Page-1" stroke="none" stroke-width="1" fill="none" fill-rule="evenodd">
        <g id="ver6-menu" transform="translate(-47.000000, -203.000000)">
            <g id="Group-6" transform="translate(47.000000, 203.000000)">
                <g id="Group-3" transform="translate(0.000000, 4.189629)">
                    <mask id="mask-2" fill="white">
                        <use xlink:href="#path-1"></use>
                    </mask>
                    <g id="Clip-2"></g>
                    <path d="M17.1461829,0.308108571 L0.837154286,0.308108571 C0.00812571429,0.308108571 -0.0340457143,0.73908 0.0127542857,1.26828 L0.621668571,9.83988 C0.66384,10.3644514 0.785725714,10.8000514 1.61012571,10.8000514 L16.4200114,10.8000514 C17.26344,10.8000514 17.3616686,10.36908 17.4084686,9.83988 L17.9752114,1.16079429 C18.0173829,0.636222857 17.9752114,0.308108571 17.1461829,0.308108571" id="Fill-1" fill="#000000" mask="url(#mask-2)"></path>
                </g>
                <path d="M16.9636114,2.21688 C16.9399543,1.63625143 16.7527543,1.49996571 16.2564686,1.49996571 L9.54915429,1.49996571 C8.52778286,1.49996571 8.40589714,1.51436571 7.63344,0.685337143 C6.99161143,-0.00792 7.24464,0.00133714286 5.91881143,0.00133714286 L2.39235429,0.00133714286 C1.57721143,0.00133714286 1.28664,-0.0686057143 1.21206857,0.778937143 C1.14161143,1.56116571 0.977554286,3.45836571 0.954411429,3.74842286 L17.0386971,3.74842286 L16.9636114,2.21688 Z" id="Fill-4" fill="#000000"></path>
            </g>
        </g>
    </g>
</svg>