<?xml version="1.0" encoding="UTF-8"?>
<svg width="22px" height="20px" viewBox="0 0 22 20" version="1.1" xmlns="http://www.w3.org/2000/svg" xmlns:xlink="http://www.w3.org/1999/xlink">
    <!-- Generator: Sketch 52.5 (67469) - http://www.bohemiancoding.com/sketch -->
    <title>icon-event-codes-white</title>
    <desc>Created with Sketch.</desc>
    <g id="Symbols" stroke="none" stroke-width="1" fill="none" fill-rule="evenodd">
        <path d="M15.125,5.5 C14.3611111,5.5 13.75,4.87911111 13.75,4.11155556 L13.75,1.38844444 C13.75,0.609888889 14.366,0 15.125,0 C15.8888889,0 16.5,0.620888889 16.5,1.38844444 L16.5,4.11155556 C16.5,4.89011111 15.884,5.5 15.125,5.5 M2.74144444,2.75 L4.125,2.75 L4.125,4.12744444 C4.125,5.64544444 5.346,6.875 6.875,6.875 C8.39422222,6.875 9.625,5.63933333 9.625,4.12744444 L9.625,2.75 L12.375,2.75 L12.375,4.12744444 C12.375,5.64544444 13.596,6.875 15.125,6.875 C16.6442222,6.875 17.875,5.63933333 17.875,4.12744444 L17.875,2.75 L19.2585556,2.75 C20.7704444,2.75 22,3.98688889 22,5.51222222 L22,16.4877778 C22,18.0094444 20.7728889,19.25 19.2585556,19.25 L2.74144444,19.25 C1.22955556,19.25 0,18.0131111 0,16.4877778 L0,5.51222222 C0,3.99055556 1.22711111,2.75 2.74144444,2.75 M6.875,5.5 C6.11111111,5.5 5.5,4.87911111 5.5,4.11155556 L5.5,1.38844444 C5.5,0.609888889 6.116,0 6.875,0 C7.63888889,0 8.25,0.620888889 8.25,1.38844444 L8.25,4.11155556 C8.25,4.89011111 7.634,5.5 6.875,5.5" id="icon-event-codes-white" fill="#FFFFFF"></path>
    </g>
</svg>