<?xml version="1.0" encoding="UTF-8"?>
<svg width="14px" height="20px" viewBox="0 0 14 20" version="1.1" xmlns="http://www.w3.org/2000/svg" xmlns:xlink="http://www.w3.org/1999/xlink">
    <!-- Generator: sketchtool 52.4 (67378) - http://www.bohemiancoding.com/sketch -->
    <title>EDB080C4-12BE-4108-8003-ADA4222E002D</title>
    <desc>Created with sketchtool.</desc>
    <defs>
        <polygon id="path-1" points="0.352 0.683703704 11.2786667 0.683703704 11.2786667 11.6101481 0.352 11.6101481"></polygon>
        <polygon id="path-3" points="7.40740741e-05 0.110814815 13.1118519 0.110814815 13.1118519 6.66637037 7.40740741e-05 6.66637037"></polygon>
    </defs>
    <g id="Page-1" stroke="none" stroke-width="1" fill="none" fill-rule="evenodd">
        <g id="login" transform="translate(-534.000000, -284.000000)">
            <g id="Group-7" transform="translate(534.000000, 284.000000)">
                <g id="Group-3" transform="translate(0.740741, 0.057111)">
                    <mask id="mask-2" fill="white">
                        <use xlink:href="#path-1"></use>
                    </mask>
                    <g id="Clip-2"></g>
                    <path d="M11.2786667,6.14718519 C11.2786667,4.6382963 10.6668148,3.27237037 9.67940741,2.28422222 C8.68977778,1.29533333 7.32459259,0.683481481 5.8157037,0.683481481 C4.30607407,0.683481481 2.94088889,1.29533333 1.952,2.28422222 C0.963851852,3.27237037 0.352,4.6382963 0.352,6.14718519 C0.352,7.65607407 0.963851852,9.022 1.952,10.0094074 C2.94088889,10.9982963 4.30607407,11.6101481 5.8157037,11.6101481 C7.32459259,11.6101481 8.68977778,10.9982963 9.67940741,10.0094074 C10.6668148,9.022 11.2786667,7.65607407 11.2786667,6.14718519" id="Fill-1" fill="#949494" mask="url(#mask-2)"></path>
                </g>
                <g id="Group-6" transform="translate(0.000000, 12.649704)">
                    <mask id="mask-4" fill="white">
                        <use xlink:href="#path-3"></use>
                    </mask>
                    <g id="Clip-5"></g>
                    <path d="M7.40740741e-05,4.48118519 C7.40740741e-05,5.57377778 2.45859259,6.66637037 6.55637037,6.66637037 C10.4000741,6.66637037 13.1119259,5.57377778 13.1119259,4.48118519 C13.1119259,2.296 10.5400741,0.110814815 6.55637037,0.110814815 C2.45859259,0.110814815 7.40740741e-05,2.296 7.40740741e-05,4.48118519" id="Fill-4" fill="#949494" mask="url(#mask-4)"></path>
                </g>
            </g>
        </g>
    </g>
</svg>