<?xml version="1.0" encoding="UTF-8"?>
<svg width="18px" height="15px" viewBox="0 0 18 15" version="1.1" xmlns="http://www.w3.org/2000/svg" xmlns:xlink="http://www.w3.org/1999/xlink">
    <!-- Generator: Sketch 52.5 (67469) - http://www.bohemiancoding.com/sketch -->
    <title>icon-laborAllocation</title>
    <desc>Created with Sketch.</desc>
    <defs>
        <polygon id="path-1" points="0 0.519404578 7.24199171 0.519404578 7.24199171 6.92690847 0 6.92690847"></polygon>
        <polygon id="path-3" points="0.519562545 0.219461538 6.1306875 0.219461538 6.1306875 8.316 0.519562545 8.316"></polygon>
        <polygon id="path-5" points="0.3675375 0.0860192308 10.325475 0.0860192308 10.325475 5.19230769 0.3675375 5.19230769"></polygon>
    </defs>
    <g id="Page-1" stroke="none" stroke-width="1" fill="none" fill-rule="evenodd">
        <g id="icon-laborAllocation">
            <g id="Group-3" transform="translate(0.000000, 5.793692)">
                <mask id="mask-2" fill="white">
                    <use xlink:href="#path-1"></use>
                </mask>
                <g id="Clip-2"></g>
                <path d="M6.8315625,5.08482692 C7.2804375,5.42175 7.3749375,6.04540385 7.0464375,6.50578846 C6.7185,6.96675 6.111,7.06309615 5.662125,6.72617308 L3.2810625,4.96078846 C3.2248125,4.91867308 3.164625,4.85175 3.105,4.78425 C2.3619375,5.13271154 1.4743125,5.01848077 0.838125,4.43059615 L0.689625,4.27540385 C0.0534375,3.68751923 -0.158625,2.77655769 0.120375,1.99194231 C0.120375,1.99194231 0.1243125,2.01675 0.1485,2.01271154 L1.28475,3.10886538 C1.632375,3.43598077 2.149875,3.40482692 2.4688125,3.04771154 C2.7883125,2.69059615 2.757375,2.15925 2.40975,1.83155769 L1.2735,0.735980769 L1.245375,0.715211538 C1.989,0.367326923 2.876625,0.481557692 3.5128125,1.06944231 L3.6601875,1.22463462 C4.2373125,1.74501923 4.4544375,2.52732692 4.31325,3.23925 C4.366125,3.25655769 4.39425,3.27732692 4.4505,3.31944231 L6.8315625,5.08482692 Z M6.3174375,6.29001923 C6.5120625,6.25886538 6.6346875,6.08636538 6.604875,5.88675 C6.5745,5.68713462 6.40575,5.56136538 6.2116875,5.59194231 C6.017625,5.62309615 5.8944375,5.79559615 5.9248125,5.99521154 C5.95125,6.16944231 6.1228125,6.32117308 6.3174375,6.29001923 Z" id="Fill-1" fill="#FEFEFE" mask="url(#mask-2)"></path>
            </g>
            <path d="M12.3076688,4.25515385 C12.3076688,3.07996154 11.8430438,2.01611538 11.0932313,1.24707692 C10.3422938,0.476884615 9.30448125,0.000346153846 8.15866875,0.000346153846 C7.01285625,0.000346153846 5.97560625,0.476884615 5.22466875,1.24707692 C4.47485625,2.01611538 4.01023125,3.07996154 4.01023125,4.25515385 C4.01023125,5.43034615 4.47485625,6.49419231 5.22466875,7.26380769 C5.97560625,8.034 7.01285625,8.50996154 8.15866875,8.50996154 C9.30448125,8.50996154 10.3422938,8.034 11.0932313,7.26380769 C11.8430438,6.49419231 12.3076688,5.43034615 12.3076688,4.25515385" id="Fill-4" fill="#FEFEFE"></path>
            <g id="Group-8" transform="translate(11.812500, 2.909077)">
                <mask id="mask-4" fill="white">
                    <use xlink:href="#path-3"></use>
                </mask>
                <g id="Clip-7"></g>
                <path d="M4.73315625,3.27542308 L5.82721875,2.88138462 C5.93690625,2.84215385 6.03196875,2.75907692 6.08596875,2.64369231 C6.14053125,2.52830769 6.14334375,2.40080769 6.10453125,2.28888462 C6.06628125,2.17638462 5.98696875,2.07888462 5.87334375,2.0235 L2.27334375,0.219461538 L0.56446875,3.93657692 C0.51046875,4.05196154 0.50653125,4.17888462 0.54534375,4.29138462 C0.58359375,4.40388462 0.66459375,4.50080769 0.77709375,4.55619231 C0.88959375,4.61157692 1.01446875,4.61503846 1.12303125,4.57580769 L2.18784375,4.19273077 C2.57146875,5.40946154 2.80996875,6.80388462 1.68328125,8.316 L2.11134375,8.16196154 C4.09246875,7.44830769 5.19609375,5.32580769 4.73315625,3.27542308" id="Fill-6" fill="#FEFEFE" mask="url(#mask-4)"></path>
            </g>
            <g id="Group-11" transform="translate(2.812500, 9.255231)">
                <mask id="mask-6" fill="white">
                    <use xlink:href="#path-5"></use>
                </mask>
                <g id="Clip-10"></g>
                <path d="M5.346225,0.0860192308 C2.2350375,0.0860192308 0.3675375,1.78794231 0.3675375,3.49044231 C0.3675375,4.34140385 2.2350375,5.19236538 5.346225,5.19236538 C8.2650375,5.19236538 10.325475,4.34140385 10.325475,3.49044231 C10.325475,1.78794231 8.3719125,0.0860192308 5.346225,0.0860192308" id="Fill-9" fill="#FEFEFE" mask="url(#mask-6)"></path>
            </g>
        </g>
    </g>
</svg>