<?xml version="1.0" encoding="UTF-8"?>
<svg width="33px" height="25px" viewBox="0 0 33 25" version="1.1" xmlns="http://www.w3.org/2000/svg" xmlns:xlink="http://www.w3.org/1999/xlink">
    <!-- Generator: Sketch 53.2 (72643) - https://sketchapp.com -->
    <title>icon-team-dark</title>
    <desc>Created with Sketch.</desc>
    <g id="Page-1" stroke="none" stroke-width="1" fill="none" fill-rule="evenodd">
        <g id="icon-team-dark" fill="#000000">
            <path d="M17,14 C18.9334,14 20.6834,13.216 21.9504,11.949 C23.216,10.6834 24,8.9334 24,7 C24,5.0666 23.216,3.3166 21.9504,2.051 C20.6834,0.784 18.9334,0 17,0 C15.0666,0 13.3166,0.784 12.0496,2.051 C10.784,3.3166 10,5.0666 10,7 C10,8.9334 10.784,10.6834 12.0496,11.949 C13.3166,13.216 15.0666,14 17,14" id="Fill-1"></path>
            <path d="M27.5,16 C28.466,16 29.341,15.6094 29.9752,14.9766 C30.6094,14.3438 31,13.4688 31,12.5 C31,11.534 30.6094,10.659 29.9752,10.0248 C29.341,9.3906 28.466,9 27.5,9 C26.5326,9 25.6576,9.3906 25.0234,10.0248 C24.3906,10.659 24,11.534 24,12.5 C24,13.4674 24.3906,14.3424 25.0234,14.9766 C25.6562,15.6108 26.5326,16 27.5,16" id="Fill-3"></path>
            <path d="M27.9782609,16.8848525 C26.0685652,16.8848525 24.6323478,17.493751 23.793,18.3366106 C22.1932174,16.9613398 19.6636957,16 16.5,16 C13.2487826,16 10.7680435,16.9733378 9.19408696,18.3471088 C8.33895652,17.4982503 6.88695652,16.8848525 5.02173913,16.8848525 C1.88243478,16.8848525 0,18.5195801 0,20.1588069 C0,20.9761706 1.88243478,21.7950342 5.02173913,21.7950342 C5.88834783,21.7950342 6.666,21.7200467 7.3503913,21.5970672 C7.33604348,21.7320447 7.293,21.8655224 7.293,22.0004999 C7.293,23.50025 10.745087,25 16.5,25 C21.8976522,25 25.707,23.50025 25.707,22.0004999 C25.707,21.8730212 25.6912174,21.7455424 25.6783043,21.6180637 C26.3426087,21.7275454 27.105913,21.7950342 27.9782609,21.7950342 C30.921,21.7950342 33,20.9761706 33,20.1588069 C33,18.5195801 31.0300435,16.8848525 27.9782609,16.8848525" id="Fill-5"></path>
            <path d="M5.5,16 C6.466,16 7.341,15.6094 7.9752,14.9752 C8.6094,14.341 9,13.466 9,12.5 C9,11.5354 8.6094,10.6604 7.9752,10.0248 C7.341,9.392 6.466,9 5.5,9 C4.5326,9 3.6576,9.392 3.0234,10.0248 C2.3906,10.6604 2,11.5354 2,12.5 C2,13.466 2.3906,14.341 3.0234,14.9752 C3.6576,15.6094 4.5326,16 5.5,16" id="Fill-7"></path>
        </g>
    </g>
</svg>