<?xml version="1.0" encoding="UTF-8"?>
<svg width="17px" height="22px" viewBox="0 0 17 22" version="1.1" xmlns="http://www.w3.org/2000/svg" xmlns:xlink="http://www.w3.org/1999/xlink">
    <!-- Generator: sketchtool 52.4 (67378) - http://www.bohemiancoding.com/sketch -->
    <title>30AE2853-5129-4DEF-A7DA-27372D7CAD09</title>
    <desc>Created with sketchtool.</desc>
    <g id="Page-1" stroke="none" stroke-width="1" fill="none" fill-rule="evenodd">
        <g id="dashboard" transform="translate(-24.000000, -239.000000)" fill="#FFFFFF">
            <path d="M25.6210887,254.594514 L38.9841406,254.594514 L38.9841406,252.89027 L25.6210887,252.89027 L25.6210887,254.594514 Z M25.6210887,258.065581 L38.9841406,258.065581 L38.9841406,256.361337 L25.6210887,256.361337 L25.6210887,258.065581 Z M28.7055294,243.942135 C29.092156,243.21003 29.6210887,242.644235 30.2931847,242.243892 C30.9644235,241.844406 31.722246,241.643806 32.5657951,241.643806 C33.4093442,241.643806 34.1380197,241.818688 34.7509644,242.168453 C35.3639091,242.519074 35.8242606,243.022289 36.1320189,243.678097 C36.4397771,244.334762 36.5760823,245.096871 36.5392199,245.963566 C36.5057865,246.837977 36.2880411,247.534076 35.8859837,248.053579 C35.4839263,248.572225 34.9481354,248.831976 34.2786112,248.831976 C34.0042863,248.831976 33.760823,248.772825 33.5499357,248.653665 C33.3390484,248.534505 33.1753108,248.366481 33.0578654,248.148736 C32.7295328,248.591084 32.2897557,248.811402 31.7368195,248.811402 C31.415345,248.811402 31.134162,248.717102 30.8932705,248.527647 C30.6515216,248.339048 30.474925,248.069867 30.3634805,247.721817 C30.2511787,247.373768 30.2168881,246.978568 30.2597514,246.536219 C30.3609087,245.699529 30.63009,245.025718 31.0690099,244.51736 C31.5079297,244.008144 32.0445778,243.753536 32.6815259,243.753536 C33.1735962,243.753536 33.5970853,243.867553 33.9519931,244.095585 L34.268324,244.306472 L34.0120017,247.254608 C33.9554222,247.720103 34.1157308,247.953279 34.4946421,247.953279 C34.7792542,247.953279 35.0175739,247.771539 35.2104586,247.408058 C35.4024861,247.044578 35.508787,246.57994 35.5293613,246.014145 C35.5859408,244.895414 35.3544792,244.03129 34.8332619,243.421775 C34.3129018,242.812259 33.5499357,242.50793 32.5452207,242.50793 C31.9057008,242.50793 31.3373339,242.67081 30.84012,242.997428 C30.3429061,243.324046 29.9494213,243.786112 29.6596657,244.383626 C29.36991,244.981997 29.2070296,245.662666 29.1701672,246.425632 C29.1161595,247.597514 29.3510502,248.494213 29.8731247,249.115731 C30.3960566,249.737248 31.1795971,250.047578 32.2237462,250.047578 C32.5057865,250.047578 32.8032576,250.015002 33.117874,249.94985 C33.4333476,249.883841 33.6888127,249.808401 33.886841,249.72096 L34.0728676,250.555079 C33.8679811,250.688813 33.592799,250.796828 33.2464638,250.879126 C32.9001286,250.960566 32.5520789,251.001715 32.2040291,251.001715 C31.2901843,251.001715 30.516931,250.826832 29.8859837,250.477068 C29.2550364,250.127304 28.785255,249.608658 28.4766395,248.921989 C28.1688813,248.236177 28.0317188,247.403772 28.0651522,246.425632 C28.1054436,245.5015 28.3189027,244.673382 28.7055294,243.942135 Z M24,261 L40.6043721,261 L40.6043721,239 L24,239 L24,261 Z" id="Fill-3"></path>
        </g>
    </g>
</svg>