<?xml version="1.0" encoding="UTF-8"?>
<svg width="22px" height="20px" viewBox="0 0 22 20" version="1.1" xmlns="http://www.w3.org/2000/svg" xmlns:xlink="http://www.w3.org/1999/xlink">
    <!-- Generator: Sketch 52.5 (67469) - http://www.bohemiancoding.com/sketch -->
    <title>icon-event-codes</title>
    <desc>Created with Sketch.</desc>
    <g id="Symbols" stroke="none" stroke-width="1" fill="none" fill-rule="evenodd">
        <g id="menu-bar" transform="translate(-17.000000, -254.000000)" fill="#000000">
            <path d="M32.125,259.5 C31.3611111,259.5 30.75,258.879111 30.75,258.111556 L30.75,255.388444 C30.75,254.609889 31.366,254 32.125,254 C32.8888889,254 33.5,254.620889 33.5,255.388444 L33.5,258.111556 C33.5,258.890111 32.884,259.5 32.125,259.5 M19.7414444,256.75 L21.125,256.75 L21.125,258.127444 C21.125,259.645444 22.346,260.875 23.875,260.875 C25.3942222,260.875 26.625,259.639333 26.625,258.127444 L26.625,256.75 L29.375,256.75 L29.375,258.127444 C29.375,259.645444 30.596,260.875 32.125,260.875 C33.6442222,260.875 34.875,259.639333 34.875,258.127444 L34.875,256.75 L36.2585556,256.75 C37.7704444,256.75 39,257.986889 39,259.512222 L39,270.487778 C39,272.009444 37.7728889,273.25 36.2585556,273.25 L19.7414444,273.25 C18.2295556,273.25 17,272.013111 17,270.487778 L17,259.512222 C17,257.990556 18.2271111,256.75 19.7414444,256.75 M23.875,259.5 C23.1111111,259.5 22.5,258.879111 22.5,258.111556 L22.5,255.388444 C22.5,254.609889 23.116,254 23.875,254 C24.6388889,254 25.25,254.620889 25.25,255.388444 L25.25,258.111556 C25.25,258.890111 24.634,259.5 23.875,259.5" id="icon-event-codes"></path>
        </g>
    </g>
</svg>