<?xml version="1.0" encoding="UTF-8"?>
<svg width="19px" height="22px" viewBox="0 0 19 22" version="1.1" xmlns="http://www.w3.org/2000/svg" xmlns:xlink="http://www.w3.org/1999/xlink">
    <!-- Generator: sketchtool 52.4 (67378) - http://www.bohemiancoding.com/sketch -->
    <title>9593A191-B592-46A0-9723-BED663E1A0A8</title>
    <desc>Created with sketchtool.</desc>
    <defs>
        <polygon id="path-1" points="0 0.0736153846 18.8069554 0.0736153846 18.8069554 20.1118184 0 20.1118184"></polygon>
        <polygon id="path-3" points="0.469107692 0.238953846 5.34315712 0.238953846 5.34315712 3.38461538 0.469107692 3.38461538"></polygon>
    </defs>
    <g id="Page-1" stroke="none" stroke-width="1" fill="none" fill-rule="evenodd">
        <g id="dashboard" transform="translate(-23.000000, -334.000000)">
            <g id="Group-7" transform="translate(23.000000, 334.000000)">
                <g id="Group-3" transform="translate(0.000000, 0.772200)">
                    <mask id="mask-2" fill="white">
                        <use xlink:href="#path-1"></use>
                    </mask>
                    <g id="Clip-2"></g>
                    <path d="M18.7231,12.7754846 C18.6198692,12.5089462 18.4709462,12.3168692 18.3203308,12.1459462 C18.1011769,11.9327154 17.8676385,11.7812538 17.6036385,11.6873308 C16.5730231,10.9774077 15.8842538,10.1422538 15.5001,9.13363846 C15.4975615,9.12686923 15.4924846,9.12263846 15.4891,9.11586923 L14.3383308,6.12894615 C13.6343308,4.29194615 12.2407154,2.83317692 10.4155615,2.02425385 C9.23433077,1.49456154 7.96933077,1.30079231 6.73986923,1.42940769 L6.71956154,1.37779231 C6.52579231,0.872638462 6.14502308,0.472407692 5.64748462,0.251561538 C5.14994615,0.0298692308 4.59740769,0.0146384615 4.09394615,0.209253846 C3.58963846,0.403869231 3.19025385,0.784638462 2.96856154,1.28217692 C2.74771538,1.77886923 2.73248462,2.33056154 2.9271,2.83486923 L2.94402308,2.87971538 C0.315869231,4.87494615 -0.695284615,8.35517692 0.494407692,11.4394077 L1.65025385,14.4576385 C1.65025385,14.4593308 1.65025385,14.4601769 1.65025385,14.4610231 C2.02594615,15.4501769 2.07756154,16.5476385 1.80425385,17.7221 C1.5081,18.2103308 1.45140769,18.8111 1.65533077,19.3399462 C1.65702308,19.3450231 1.65871538,19.3492538 1.65956154,19.3534846 C1.91425385,19.9991 2.69017692,20.2681769 3.33833077,20.0211 L17.9793308,14.4331 C18.6418692,14.1809462 18.9744077,13.4388692 18.7231,12.7754846 M2.50148462,10.5568692 C2.48202308,10.5602538 2.46256154,10.5619462 2.4431,10.5619462 C2.3001,10.5619462 2.17148462,10.4604077 2.14356154,10.3140231 C2.07586923,9.96456154 2.03863846,9.60748462 2.03186923,9.25040769 C2.02933077,9.08202308 2.16386923,8.94240769 2.3331,8.93986923 L2.33817692,8.93986923 C2.50486923,8.93986923 2.6411,9.07356154 2.64448462,9.24025385 C2.64871538,9.56094615 2.68256154,9.88417692 2.74348462,10.1989462 C2.77563846,10.3639462 2.66733077,10.5238692 2.50148462,10.5568692 M5.0171,4.56694615 C4.61094615,4.85548462 4.24456154,5.19648462 3.92725385,5.58148462 C3.41194615,6.20763846 3.03117692,6.95225385 2.82471538,7.73494615 C2.78917692,7.87286923 2.66479231,7.96340769 2.52940769,7.96340769 C2.50402308,7.96340769 2.47779231,7.96086923 2.45240769,7.9541 C2.2891,7.9101 2.19094615,7.74425385 2.2341,7.5801 C2.46171538,6.71279231 2.88394615,5.88694615 3.4551,5.19225385 C3.8071,4.76579231 4.21325385,4.38756154 4.66425385,4.06856154 C4.80048462,3.96956154 4.99171538,4.00256154 5.08986923,4.14133077 C5.18802308,4.27840769 5.15502308,4.46963846 5.0171,4.56694615" id="Fill-1" fill="#FFFFFF" mask="url(#mask-2)"></path>
                </g>
                <g id="Group-6" transform="translate(5.076923, 18.541431)">
                    <mask id="mask-4" fill="white">
                        <use xlink:href="#path-3"></use>
                    </mask>
                    <g id="Clip-5"></g>
                    <path d="M5.26933846,0.238953846 L4.69818462,0.458953846 L1.04026154,1.86526154 L0.469107692,2.08526154 C0.727184615,2.56503077 1.12741538,2.95003077 1.64018462,3.17426154 C1.96087692,3.31472308 2.30018462,3.38495385 2.64033846,3.38495385 C2.94156923,3.38495385 3.2428,3.32995385 3.53133846,3.21826154 L3.75641538,3.13195385 C4.37072308,2.89587692 4.85895385,2.43303077 5.13056923,1.83226154 C5.35987692,1.32287692 5.39964615,0.7678 5.26933846,0.238953846" id="Fill-4" fill="#FFFFFF" mask="url(#mask-4)"></path>
                </g>
            </g>
        </g>
    </g>
</svg>