<?xml version="1.0" encoding="UTF-8"?>
<svg width="48px" height="48px" viewBox="0 0 48 48" version="1.1" xmlns="http://www.w3.org/2000/svg" xmlns:xlink="http://www.w3.org/1999/xlink">
    <!-- Generator: Sketch 53 (72520) - https://sketchapp.com -->
    <title>icon-pay-rate</title>
    <desc>Created with Sketch.</desc>
    <defs>
        <polygon id="path-1" points="0 0 48 0 48 48 0 48"></polygon>
    </defs>
    <g id="Pay-Rate" stroke="none" stroke-width="1" fill="none" fill-rule="evenodd">
        <g id="Pay-Rate-Change" transform="translate(-1156.000000, -201.000000)">
            <g id="icon-pay-rate" transform="translate(1156.000000, 201.000000)">
                <mask id="mask-2" fill="white">
                    <use xlink:href="#path-1"></use>
                </mask>
                <g id="Clip-2"></g>
                <path d="M24.1072811,47.9997597 C15.5075151,48.0381593 7.54519545,43.472445 3.23283233,36.0305995 C-1.07761078,28.5887541 -1.07761078,19.409326 3.23283233,11.9674805 C7.54519545,4.52755499 15.5075151,-0.0381592921 24.1072811,0.00024032336 C37.3208532,0.0597597274 48,10.7866923 48,24 C48,37.2133077 37.3208532,47.9402403 24.1072811,47.9997597 L24.1072811,47.9997597 Z M26.5073051,35.9998798 L28.9073291,35.9998798 C32.8721687,35.9826 36.0747607,32.7627923 36.0747607,28.7999519 C36.0747607,24.8351916 32.8721687,21.6173039 28.9073291,21.600024 L19.2841928,21.600024 C17.9632196,21.5942641 16.8937689,20.5209948 16.8937689,19.2000481 C16.8937689,17.8791013 17.9632196,16.805832 19.2841928,16.8000721 L33.7073771,16.8000721 L33.7073771,12.0001202 L26.5073051,12.0001202 L26.5073051,7.20016823 L21.7072571,7.20016823 L21.7072571,12.0001202 L19.3072331,12.0001202 C16.7267273,11.9886003 14.3382234,13.3575466 13.0460505,15.5904842 C11.7519575,17.8234218 11.7519575,20.5766743 13.0460505,22.8096119 C14.3382234,25.0406296 16.7267273,26.4114959 19.3072331,26.399976 L28.9073291,26.399976 C29.7674977,26.396136 30.5643056,26.8530914 30.99631,27.596124 C31.4283143,28.3410765 31.4283143,29.2588273 30.99631,30.0018599 C30.5643056,30.7468124 29.7674977,31.2037679 28.9073291,31.1999279 L14.5071851,31.1999279 L14.5071851,35.9998798 L21.7072571,35.9998798 L21.7072571,40.7998318 L26.5073051,40.7998318 L26.5073051,35.9998798 Z" id="Fill-1" fill="#2E3D4A" mask="url(#mask-2)"></path>
            </g>
        </g>
    </g>
</svg>